<?xml version="1.0" ?><!DOCTYPE svg  PUBLIC '-//W3C//DTD SVG 1.1//EN'  'http://www.w3.org/Graphics/SVG/1.1/DTD/svg11.dtd'><svg enable-background="new 0 0 512 512" height="512px" id="Layer_1" version="1.1" viewBox="0 0 512 512" width="512px" xml:space="preserve" xmlns="http://www.w3.org/2000/svg" xmlns:xlink="http://www.w3.org/1999/xlink"><g><path clip-rule="evenodd" d="M256.23,336.034c43.979,0,79.804-35.824,79.804-79.804   c0-44.448-35.824-80.272-79.804-80.272c-44.448,0-80.272,35.824-80.272,80.272C175.958,300.21,211.782,336.034,256.23,336.034   L256.23,336.034z" fill="#0CA3D1" fill-rule="evenodd"/><path clip-rule="evenodd" d="M147.383,228.108c12.702-48.526,56.236-84.35,108.848-84.35   h229.913C444.883,58.955,357.36,0,256.23,0C180.036,0,112.012,33.106,65.298,85.257L147.383,228.108z" fill="#E1584B" fill-rule="evenodd"/><path clip-rule="evenodd" d="M157.812,310.193L43.988,112.465   C16.327,153.734,0,202.713,0,256.23c0,123.347,87.522,226.288,203.619,250.317l82.53-142.392   c-9.515,2.719-19.951,4.078-29.919,4.078c-41.729,0-78.007-22.67-97.052-56.229C158.726,311.553,158.265,311.1,157.812,310.193   L157.812,310.193z" fill="#36B39B" fill-rule="evenodd"/><path clip-rule="evenodd" d="M352.361,312.912L238.084,511.547   C243.982,512,249.872,512,256.23,512C397.263,512,512,397.263,512,256.23c0-28.122-4.546-54.877-12.701-80.272H334.676   c20.403,20.404,33.559,48.519,33.559,80.272C368.234,276.635,362.345,296.586,352.361,312.912L352.361,312.912z" fill="#F3AB4B" fill-rule="evenodd"/></g></svg>