<?xml version="1.0" ?><!DOCTYPE svg  PUBLIC '-//W3C//DTD SVG 1.1//EN'  'http://www.w3.org/Graphics/SVG/1.1/DTD/svg11.dtd'><svg enable-background="new 0 0 512 512" height="512px" id="Layer_1" version="1.1" viewBox="0 0 512 512" width="512px" xml:space="preserve" xmlns="http://www.w3.org/2000/svg" xmlns:xlink="http://www.w3.org/1999/xlink"><g><path clip-rule="evenodd" d="M256.23,512C396.81,512,512,396.81,512,256.23   C512,115.184,396.81,0,256.23,0C115.184,0,0,115.184,0,256.23C0,396.81,115.184,512,256.23,512L256.23,512z" fill="#0CA3D1" fill-rule="evenodd"/><path clip-rule="evenodd" d="M235.366,298.852c-34.473,19.497-82.085-20.404-82.085-34.919   c0.453-11.787,4.984-19.044,14.061-20.404c8.616,0,24.942,2.265,38.09,6.343c2.265-13.6-0.453-29.927-9.522-41.269   c0-2.718,29.473-23.123,34.012-25.849c4.531-2.265,6.351-5.89,7.257-10.428c3.625-3.625,4.531-10.429-0.906-10.429   c-2.726,0.453-21.318-0.453-27.669-1.359c-8.616-2.727-27.661-21.771-33.098-29.481c4.984-26.755,14.959-39.902,38.09-55.322   c-24.943,2.266-57.143,12.241-77.547,31.747c-14.061-4.992-40.815,1.359-52.15,6.343c-18.139-8.163-24.036-38.543-26.755-56.682   c-19.053,17.232-32.2,40.808-31.747,87.975C9.069,178.677,0,216.313,0,256.23C0,397.263,114.73,512,256.23,512   C397.263,512,512,397.263,512,256.23c0-61.228-21.325-117.464-57.15-161.451c9.983,17.686,15.874,34.918,15.874,45.8   c-20.404-65.298-107.473-92.514-156.452-89.787c19.951,3.624,49.432,11.334,58.493,31.285c-11.326-3.171-26.747-1.359-34.465,3.18   c59.869,17.686,106.583,61.22,102.489,99.771c-4.983-8.163-13.14-14.514-22.217-15.873c10.89,42.175,12.249,76.64,3.172,104.309   c-4.983-18.146-12.233-29.934-17.232-33.113c8.171,53.518-1.359,98.856-26.747,126.525c4.53-16.326,5.89-30.388,4.53-41.261   c-29.934,44.886-62.587,68.023-101.13,69.383c-38.089-0.453-68.93-13.607-96.138-40.823c24.029,2.265,49.424,1.812,68.024-11.327   l31.286-22.232c2.719-1.359,9.983-1.359,12.702,0c8.155-0.906,9.983-6.796,6.343-12.232c-3.625-5.453-8.155-9.983-15.873-14.062   C271.183,285.696,253.504,287.509,235.366,298.852L235.366,298.852z" fill="#E17842" fill-rule="evenodd"/></g></svg>