<?xml version="1.0" ?><!DOCTYPE svg  PUBLIC '-//W3C//DTD SVG 1.1//EN'  'http://www.w3.org/Graphics/SVG/1.1/DTD/svg11.dtd'><svg enable-background="new 0 0 512 512" height="512px" id="Layer_1" version="1.1" viewBox="0 0 512 512" width="512px" xml:space="preserve" xmlns="http://www.w3.org/2000/svg" xmlns:xlink="http://www.w3.org/1999/xlink"><g><polygon clip-rule="evenodd" fill="#D8D9D9" fill-rule="evenodd" points="167.795,408.605 228.108,239.896 343.753,103.849    283.884,272.088  "/><polygon clip-rule="evenodd" fill="#E1584B" fill-rule="evenodd" points="343.753,103.849 283.884,272.088 228.108,239.896  "/><path clip-rule="evenodd" d="M256.23,48.065c114.723,0,207.697,92.967,207.697,208.165   c0,114.723-92.975,207.697-207.697,207.697c-115.198,0-208.165-92.975-208.165-207.697   C48.065,141.032,141.032,48.065,256.23,48.065L256.23,48.065z M256.23,0C114.73,0,0,114.73,0,256.23   C0,397.263,114.73,512,256.23,512C397.263,512,512,397.263,512,256.23C512,114.73,397.263,0,256.23,0L256.23,0z" fill="#0CA3D1" fill-rule="evenodd"/></g></svg>