<?xml version="1.0" standalone="no"?>
<!DOCTYPE svg PUBLIC "-//W3C//DTD SVG 1.1//EN" "http://www.w3.org/Graphics/SVG/1.1/DTD/svg11.dtd">
<svg version="1.1" xmlns="http://www.w3.org/2000/svg" width="100" height="100" viewBox="0 0 64 64">
  <path d="M59.557955795579566,40.7245802485246L60.85088508850886,41.22234304059073L61.97099709970998,42.37234673260558L62.07980798079809,43.30264822674297L60.223622362236235,42.01876350789654ZM38.666266626662676,40.87562550956535L39.65196519651966,41.97756934579451L38.749474947494754,42.20757008419748L37.955795579557964,43.30951392042664L37.24532453245325,41.82309123791192ZM56.51125112511252,38.19800497293377L56.440844084408454,38.33531884660718L56.81848184818483,37.961138540847124L57.66336633663367,38.99785828708141L56.024802480248034,38.85024587288248ZM26.313031303130316,35.06038295949624L26.70347034703471,36.12799832730704L26.03780378037804,36.357999065710004L25.058505850585064,35.53068297682768ZM22.88868886888689,27.56304545692778L25.160916091609167,29.09409514838636L24.098409840984104,29.533499544141286ZM56.11441144114412,37.4050173524698L55.52555255525554,38.125915189255224L52.22282228222823,36.53650710148544L51.864386438643876,36.24814796677127L48.91369136913692,35.8430720394347L47.6975697569757,36.22411803887843L46.21262126212622,35.76068371523065L44.84288428842885,34.36351505060365L43.81878187818783,35.06381580633807L43.306730673067314,36.845463317250626L42.38503850385039,36.807702001990435L40.887288728872896,38.41770717081123L40.15121512151216,38.56875243185198L40.368836883688374,35.503220202093L39.51115111511152,35.98381875994995L38.65346534653466,37.67621225297479L37.7957795779578,38.33188599976535L38.64066406640665,39.17293347601501L37.6933693369337,40.60443060906036L36.85488548854886,40.81040141957048L34.1986198619862,43.46055918146739L33.05290529052906,43.9171278114315L32.995299529953,44.63459280137509L27.420342034203426,46.344150528609106L29.38533853385339,44.483547540334335L30.41584158415842,44.38056213507927L32.630463046304634,42.92503507414107L34.02580258025803,41.61025473371812L34.774677467746784,39.10084369233647L33.71857185718572,39.536815241249556L32.796879687968804,39.0356196023416L33.07850785078509,39.59517363756076L31.587158715871592,38.46233417975509L31.043104310431048,38.81935025130597L30.057405740574062,39.33427727758127L30.390239023902396,38.27696045029598L30.00620062006201,36.16232679572539L28.073207320732077,36.53650710148544L27.682768276827687,35.54098151735319L28.53405340534054,34.72396396899637L26.889088908890894,33.36112377278772L27.362736273627366,31.84380546869649L29.570957095709577,30.281860155661395L31.72157215721573,29.780664516753433L32.0928092809281,29.30006595889648L31.651165116511656,27.806777582698093L32.11841184118413,27.02408850275963L30.211021102110216,27.841106051116448L27.727572757275734,27.068715511703488L27.401140114011405,26.001100143892685L28.04760476047605,25.733338090229527L26.601060106010607,24.772140974515622L29.602960296029607,23.522584724087547L30.27502750275028,24.579901551372842L32.41284128412842,24.521543155061643L32.080008000800085,22.95616499518471L30.54385438543855,22.568253302057315L30.36463646364637,21.552130636874043L28.860486048604866,19.859737143849205L29.270127012701273,18.87794294708429L30.659065906590666,19.015256820757703L32.47684768476848,16.893757472503445L34.288228822882296,15.798679329957963L35.369936993699376,15.8124107173253L36.214821482148224,14.926736232131773L38.94149414941495,16.45092022990668L40.65046504650466,16.45778592359035L43.83158315831584,17.123758210906416L45.11811181118112,16.708383743044337L46.80788078807882,17.3262961745747L50.33463346334634,35.142771283700284L52.126812681268134,35.19769683316965L54.034203420342045,36.44038738991405L54.341434143414354,37.037702740393414L55.775177517751786,34.850979302144275L56.54965496549656,35.6782953910266L58.55945594559457,36.79740346146493L61.21572157215723,39.67756196176481L63.2895289528953,39.91442839385145L64.00000000000001,41.397418229524334L63.71197119711972,42.523391993646335L62.89908990899091,41.97756934579451L62.24622462246226,40.58040068116752L61.77897789778979,41.751001454233375L61.22212221222123,40.19248898804012L57.24092409240925,37.28143486616372Z" fill="#0C4D82"></path>
</svg>