<?xml version="1.0" standalone="no"?>
<!DOCTYPE svg PUBLIC "-//W3C//DTD SVG 1.1//EN" "http://www.w3.org/Graphics/SVG/1.1/DTD/svg11.dtd">
<svg version="1.1" xmlns="http://www.w3.org/2000/svg" width="100" height="100" viewBox="0 0 64 64">
  <path d="M24.333584159988494,0.057605760576045384L38.593367168612545,0.44804480448043904L46.7749176698106,0.43524352435242264L46.536066304416146,2.617861786178608L47.96204460527855,5.446944694469437L48.54313076287998,7.994399439943983L49.248990021806875,9.338533853385329L49.434367200918985,36.63726372637264L48.93527479561715,36.784478447844776L48.96379436163439,38.34623462346234L48.336363909254935,39.120712071207116L49.64469900029619,41.14971497149715L49.605484597022475,44.13881388138813L48.717813104735626,44.78527852785278L48.4932215223498,46.257425742574256L46.68935897175886,48.996899689969L45.858726611506505,48.81128112811281L45.455887741512875,49.82258225822582L46.09757797690096,50.32183218321832L44.91758093293731,51.64676467646765L45.18495186434902,53.38773877387739L44.436313256396254,53.39413941394139L45.0566138172714,54.495049504950494L43.85879204454698,56.07600760076007L44.67872956754286,57.62496249624962L44.525436900200155,58.27142714271427L42.71800940385705,58.495449544954496L40.95336125653983,59.24432443244324L40.63251613884579,60.69086908690869L41.42393409582442,61.96459645964596L40.311671021151746,62.886288628862886L36.736030431739266,61.05570557055705L35.3314418053898,61.82378237823782L34.568543414428405,63.62876287628763L32.63634281675985,62.585458545854586L31.37435202049662,60.37083708370837L32.1942895434925,59.57715771577158L31.417131369522494,57.44574457445744L31.41000147801818,55.62156215621562L28.490310907002407,53.163716371637165L27.837925834357854,53.573357335733576L27.096417117909404,52.47244724472447L24.88615075157268,50.6994699469947L23.920050452738394,49.52175217521752L23.78458251415647,48.16481648164816L25.609834739260346,44.73407340734073L25.306814350327087,43.812381238123805L26.22300540863118,42.21862186218621L24.99309912413736,41.405740574057404L23.053768634964484,40.90649064906491L21.720478923658135,41.86018601860185L20.96827536995322,39.959195919591956L21.19999684384336,39.370337033703365L20.476312856155687,36.95729572957295L18.209007357784465,35.23552355235523L15.27862194951222,31.811181118111804L14.280437138908535,28.23322332233223L14.2590474643956,25.93539353935393L14.693970846158633,24.725672567256716L15.570947501189012,24.08560856085608L15.314271407033779,22.24862486248624L15.75275973454897,21.717371737173707L17.795473650534365,21.064506450645055L18.14840327999781,19.28512851285128L19.2998807579442,18.15221522152214L19.495952774312784,16.187218721872178L18.098494039467628,14.49104910491048L18.80078835264236,12.455645564556448L22.144707468164704,12.052405240524045L24.88615075157268,10.669866986698658L25.20699586926672,8.89688968896889L26.283609486417834,8.218421842184206L26.743487488445957,5.907790779077899L26.575935038094627,4.608460846084597L24.629474657417443,3.2963296329632854L23.984219476277204,1.4977497749774855L22.47624742311521,0.33923392339232805Z" fill="#0C4D82"></path>
</svg>