<?xml version="1.0" standalone="no"?>
<!DOCTYPE svg PUBLIC "-//W3C//DTD SVG 1.1//EN" "http://www.w3.org/Graphics/SVG/1.1/DTD/svg11.dtd">
<svg version="1.1" xmlns="http://www.w3.org/2000/svg" width="100" height="100" viewBox="0 0 64 64">
  <path d="M38.24346470950199,0.08960896089609349L52.330742586928054,0.0448044804480503L52.596063515561184,23.28552855285529L52.541314752509905,30.91509150915092L52.57500629900299,42.79467946794679L51.610585780638104,43.62676267626763L52.46972021621207,44.91969196919692L51.85906093602469,45.841384138413844L52.83611578432449,46.23182318231824L52.6887152684172,47.96639663966397L50.44401598331463,48.07520752075207L48.523597833208115,49.42574257425743L46.8516548384882,48.68966896689669L44.842796378837306,48.94569456945695L44.60695555338563,49.611361136113615L45.12075163740535,51.55075507550755L44.07631369611936,53.106110611061105L42.53492544406018,53.82938293829383L42.1053582262732,55.4039403940394L41.01038296524756,56.31923192319232L39.89856193097536,56.17841784178418L38.879392649559186,58.04100410041004L38.90887275274065,59.25072507250725L38.315059245799816,60.55005500550055L37.190603881592715,61.30533053305331L36.697865014131175,60.62046204620462L35.43022057732841,60.44124412441244L34.272073666628216,59.62836283628363L34.272073666628216,58.444244424442445L33.57718552020809,58.12421242124213L32.583284898661745,58.91149114911491L31.968414175162724,58.55945594559456L31.955779845227816,59.78837883788379L31.185085719198227,59.87798779877988L31.248257368872785,61.70857085708571L30.27120252057298,61.83018301830183L29.25624468246844,62.995099509951L29.42891385824556,62.01580158015802L28.51924210293195,62.297429742974295L27.58009024443688,60.729272927292726L24.539428173434903,62.00300030003L24.071957965843186,63.62876287628763L23.292840953190325,63.94879487948795L20.087932593034502,61.452545254525454L18.52969856772878,61.88138813881388L17.29995712073075,60.83808380838084L17.434723306703134,62.5022502250225L16.263942066068026,63.001500150015005L16.35659381892404,61.94539453945394L14.322466699403327,62.3038303830383L13.438063603959538,61.49094909490949L12.987439169614369,62.02860286028603L13.341200407791884,63.40474047404741L12.852672983641982,63.903990399039905L10.97858070996348,61.94539453945394L12.01880720793784,61.95179517951795L12.052498754430935,59.705170517051705L13.130628242210031,57.75297529752975L12.498911745464468,56.79287928792879L13.147474015456579,55.57675767576758L14.170854740184392,55.88398839883988L15.59011113620609,53.822982298229824L15.501670826661712,52.90769076907691L16.925138665995046,52.09480948094809L16.63033763418045,51.62756275627563L17.577912379298795,49.6945694569457L18.41177815500294,49.40654065406541L18.91715135239939,47.819181918191816L18.20962887604436,46.53265326532653L18.752905063245542,45.08610861086109L17.990633823839232,44.522852285228524L18.0327482569556,43.370737073707375L16.975675985734693,42.07780778077808L18.04538258689051,40.86168616861686L17.51474072962424,39.338333833383345L18.643407537142977,38.6982698269827L18.790808053050277,30.454245424542457L19.098243414799782,20.123612361236127L19.52359918927513,0.7296729672967359L20.656477440105505,1.7153715371537217L22.23155723865778,2.1762176217621843L24.41729631739743,1.7857785778577906L27.992811688977316,7.105427357601002e-15Z" fill="#0C4D82"></path>
</svg>