<?xml version="1.0" standalone="no"?>
<!DOCTYPE svg PUBLIC "-//W3C//DTD SVG 1.1//EN" "http://www.w3.org/Graphics/SVG/1.1/DTD/svg11.dtd">
<svg version="1.1" xmlns="http://www.w3.org/2000/svg" width="100" height="100" viewBox="0 0 64 64">
  <path d="M46.084608460846084,29.21393265504792L46.34063406340634,30.360046263376663L44.996499649965,29.722941934040982L45.61096109610962,28.23636516559105ZM63.18711871187119,39.73121047265287L63.353535353535364,41.042499277476054L62.58545854585459,42.556043424945486L61.894189418941906,42.421206529847986L61.004500450045015,43.38866125217254L60.4988498849885,45.31008700731191L59.993199319932,45.21233025836622L59.37873787378739,46.89779144708496L55.83918391839184,47.336011356151836L55.30793079307931,47.989970297374704L53.522152215221524,47.73378019668946L52.42124212421243,48.70797676376889L51.80678067806781,47.73378019668946L52.39563956395641,46.00112609468659L52.78607860786079,44.82467418496091L50.859485948594866,44.794335883563974L51.121912191219124,43.83362300599429L52.88848884888489,43.10550377246779L51.42914291429143,42.41446468509311L52.18441844184419,40.67169781595793L51.4995499549955,40.98182267468218L50.83388338833883,42.680767552910666L49.98259825982599,41.605443314508115L50.763476347634764,41.30880214529361L50.02740274027403,40.385169413875744L49.060906090609066,42.15490366203042L47.7871787178718,41.39307520472955L46.86548654865487,40.085157322283806L46.7950795079508,40.93462976139805L45.3997399739974,38.60195147621131L46.62226222622263,37.685060589548314L46.12301230123013,36.815362616169445L46.50705070507051,35.851278816222326L47.62716271627163,35.750151144899206L49.54735473547355,36.94682858888951L46.6990699069907,34.0950282575774L45.20772077207721,33.53882606530021L46.30863086308631,31.647738611557784L47.65276527652766,33.45455300586428L47.281528152815284,31.728640748616282L48.536053605360536,30.929732145163598L47.2879287928793,31.07805272977085L46.88468846884689,29.46675183335573L47.646364636463645,28.944258864852923L47.44154415441545,28.037480745322238L48.363236323632364,26.847545146086805L47.51835183518352,26.284601109054748L46.82068206820682,27.892531083092425L46.084608460846084,26.166618825844434L47.36473647364737,23.09233761762145L48.42724272427243,22.023755223973765L49.464146414641476,21.717001287626957L50.75707570757076,20.109071313589276L52.31243124312432,20.59785505831771L50.98749874987499,19.31016271013659L49.944194419441956,20.560774912165897L50.424242424242436,18.302256919282783L48.61286128612862,18.969699550015406L48.54245424542455,20.83719054711577L46.775877587758785,22.411411297379075L46.5902590259026,20.78662671145421L46.084608460846084,21.339457981353956L45.988598859886,23.351898640684134L45.51495149514952,21.713630365249518L44.31163116311632,24.51149593852263L42.94829482948295,25.189051336387564L43.127512751275134,24.245193070705067L41.2905290529053,24.177774623156317L42.53865386538655,25.66435139160625L43.74837483748375,26.37224509086812L42.55785578557857,27.545326078216366L44.42044204420442,28.68806876416767L43.33873387338734,29.22741634455767L42.30823082308231,27.84870909218574L41.86658665866587,28.297041768384926L43.24272427242725,29.25101280119973L43.36433643364337,30.55555976126804L42.37863786378638,31.519643561215158L43.057105710571065,31.816284730429658L42.3978397839784,33.01970401917484L43.0955095509551,38.5109365720205L44.68286828682869,40.236848829268496L44.11321132113211,41.46723549703317L42.647464746474654,39.78514523069187L41.8921892189219,39.55929343140356L40.55445544554456,37.98170175876282L40.24082408240825,38.31542307412913L41.27132713271328,39.697501248878496L42.95469546954696,40.759341797771306L43.21712171217122,41.44363904039111L44.7980798079808,41.87511710470311L44.426842684268436,42.556043424945486L45.43174317431743,44.447130878687915L45.169316931693174,46.36518571144984L43.70997099709972,44.42690534442329L42.55785578557857,44.87860894299991L41.64896489648966,43.37854848504023L39.86318631863186,42.46839944313211L39.408740874087414,43.179664064771416L38.570257025702574,42.7549278452143L37.5973597359736,40.1930268383618L38.026202620262026,42.46165759837723L36.77807780778079,41.96276108651649L35.08830883088309,39.18849196988543L32.68806880688069,40.742487185884116L32.06080608060806,40.314380043949555L31.74717471747175,38.36261598741325L33.052905290529054,36.30298241479895L34.109010901090116,35.81756959244795L34.04500450045005,34.99169360997577L35.16511651165116,34.29391267784621L35.376337633763384,32.53766211920128L37.008500850085014,30.909506610898976L35.10751075107511,29.01504823477911L33.97459745974598,30.144307231220665L32.16961696169618,29.244270956444858L32.16961696169618,28.526264490050675L30.7934793479348,27.764436032749803L29.06530653065307,27.531842388706615L28.24602460246025,26.702595483856996L29.0973097309731,24.707009436414005L27.586758675867593,23.270996503625636L24.840884088408846,22.694568777083827L25.13531353135314,21.760823278533643L24.56565656565657,20.328181268122712L23.003900390039007,18.62923638989422L23.80398039803981,18.339337065434595L23.061506150615067,17.510090160584976L21.262926292629267,17.70560365847635L19.899589958995904,16.229139657158733L18.87548754875488,15.96620771171861L17.544154415441547,17.35502773122285L16.392039203920397,16.94040427879804L14.779077907790784,19.168583970284217L12.052405240524056,18.85508818918253L10.068206820682072,17.439300790658788L7.5655565556555695,20.533807533146398L6.464646464646468,19.72815708493884L3.3411341134113446,21.93948216453783L3.552713678800501e-15,24.64633283362013L0.4032403240324068,15.147073574001297L20.027602760276032,15.514504113141982L28.489248924892493,15.629115473974856L38.013401340134024,15.635857318729734L52.965296529652974,15.490907656499921L52.97809780978098,16.83590568509748L54.655065506550656,38.76038482795087L63.475147514751484,38.76712667270575Z" fill="#0C4D82"></path>
</svg>