<?xml version="1.0" standalone="no"?>
<!DOCTYPE svg PUBLIC "-//W3C//DTD SVG 1.1//EN" "http://www.w3.org/Graphics/SVG/1.1/DTD/svg11.dtd">
<svg version="1.1" xmlns="http://www.w3.org/2000/svg" width="100" height="100" viewBox="0 0 64 64">
  <path d="M55.37193719371937,13.080376975742553L56.69686968696869,13.023166141075919L57.1065106510651,15.281087082585927L57.94499449944994,16.810523396007405L57.44574457445744,18.538290602939895L57.989798979897984,21.780237900716088L57.82338233823382,23.481306718137482L58.5018501850185,24.694176413070224L58.98189818981898,26.734696182847006L60.562856285628555,30.056738649156497L61.14531453145314,36.086760623020226L61.03650365036503,37.28818815101964L61.689368936893686,38.14635067101922L61.529352935293524,41.3425293010621L62.16301630163016,43.600450242572116L63.41754175417541,45.46933750834898L63.96159615961596,48.71509886176962L63.980798079807975,50.30174600985773L56.28082808280828,50.65263912914645L48.254425442544246,50.904366801679664L34.58905890589059,51.06837119439069L25.525752575257524,51.045486860524036L12.167616761676166,50.79375918799083L0,50.33988656630216L1.0369036903690367,28.18785138337963L1.696169616961696,12.931628805609293L16.238423842384236,13.446526317609042L28.489248924892486,13.595274487742302L37.8981898189819,13.553319875653436L48.427242724272425,13.324476536986879Z" fill="#0C4D82"></path>
</svg>