<?xml version="1.0" standalone="no"?>
<!DOCTYPE svg PUBLIC "-//W3C//DTD SVG 1.1//EN" "http://www.w3.org/Graphics/SVG/1.1/DTD/svg11.dtd">
<svg version="1.1" xmlns="http://www.w3.org/2000/svg" width="100" height="100" viewBox="0 0 64 64">
  <path d="M9.236123612361242,13.645145992292932L9.146514651465152,17.47405947499584L20.76367636763677,17.69127668218764L30.71667166716672,17.746501395880472L41.07290729072908,17.650778558812895L56.21042104210421,17.356246752451135L57.16411641164117,18.2692953521726L57.38173817381738,19.300156674438767L58.32903290329033,19.167617361575974L59.36593659365937,20.117482437092658L59.78837883788379,22.738815513712343L60.52445244524453,24.693770378438536L61.54215421542154,25.25706245810541L63.2063206320632,25.36751188549107L63.737573757375735,26.280560485212533L62.26542654265427,27.38137311148962L61.31813181318132,29.5682717737257L59.08430843084309,31.96134270041502L60.063606360636065,33.448728322541925L58.46344634463446,36.06637975158208L58.802680268026805,37.885113655865965L60.01880188018802,38.1759638146482L60.16601660166017,39.93210971008021L63.430343034303434,42.77065999389169L63.961596159615965,43.720525069408374L62.87988798879888,44.04451005640632L59.532353235323534,46.548030410481296L59.57715771577158,47.33958464007853L57.61856185618562,47.99123626165393L56.402440244024405,48.812243671887344L54.37983798379838,48.44776056151466L53.106110611061105,49.16936348710098L52.562056205620564,50.12291021019718L39.15271527152716,50.37326224560468L30.953495349534958,50.395352131081815L11.546754675467552,50.20390645694667L7.105427357601002e-15,49.89832970784634L1.0305030503050374,17.555055721745326L3.104310431043111,16.770864787307133L8.020002000200027,14.112715234892228Z" fill="#0C4D82"></path>
</svg>