<?xml version="1.0" standalone="no"?>
<!DOCTYPE svg PUBLIC "-//W3C//DTD SVG 1.1//EN" "http://www.w3.org/Graphics/SVG/1.1/DTD/svg11.dtd">
<svg version="1.1" xmlns="http://www.w3.org/2000/svg" width="100" height="100" viewBox="0 0 64 64">
  <path d="M2.291429142914298,33.99573471320717L2.547454745474554,34.4987436957658L1.2865286528652935,35.48613169856609L0.1152115211521223,34.734723218447634L0.9792979297929864,33.84514251781153ZM60.05080508050805,32.905881917663464L62.81588158815882,33.62624046058694L60.71647164716472,33.65729039778192L60.351635163516356,34.13235443686507L56.453645364536456,34.8573704703678L55.685568556855685,33.961579782292695ZM20.22602260226023,24.23829194968551L21.93499349934994,24.37801666706291L24.65526552655266,25.03938032931593L27.48434843484349,24.862395687304556L29.129312931293132,25.362299676143692L29.993399339933998,24.91207558681652L35.06270627062707,25.418189563094653L36.40684068406841,24.811163290932846L39.107910791079114,25.33901222324746L41.41854185418542,25.488051921783352L43.23632363236324,26.424207528211923L43.82518251825183,26.012795860378475L42.87788778877888,25.35453719184495L45.66856685668567,25.98950840748224L45.96939693969397,25.620014154862005L49.624162416241624,26.30466527001126L50.12981298129813,26.849591667783116L53.579757975797584,28.001544337716776L54.776677667766776,27.481457889700906L54.424642464246425,30.407914470327526L55.37833783378338,31.235395296573678L54.32863286328633,31.968173814375145L52.21002100210021,32.25693823028843L50.96189618961896,33.75044020936685L49.65616561656166,36.57908948782929L47.7999799979998,37.457802710447154L45.31653165316532,37.42830527011193L42.37223722372237,38.41414077605246L40.92569256925693,37.83195445364663L40.03600360036004,38.59578290864308L37.84698469846985,37.453145219867906L36.70767076707671,38.383090838857484L34.96669666966697,37.161275810235125L32.07360736073608,37.839716937945376L30.953495349534958,37.33981294910624L29.980598059805985,37.73259465462271L27.791579157915795,36.74986414240167L26.121012101210127,38.12692885699892L24.431243124312434,38.106746397822185L23.311131113111315,38.5740479526066L22.71587158715872,37.97633666160328L20.75727572757276,37.53077006285535L19.937993799379942,38.19523871882787L18.037003700370043,37.76830208239693L17.409740974097414,36.95945121846777L18.293029302930297,36.29498256249525L17.409740974097414,36.010875637161206L18.017801780178022,34.32952153805318L17.998599859986005,32.81894209351753L18.741074107410746,32.013196223307865L17.659365936593666,29.713948374019783L16.878487848784882,29.549383706886402L15.995199519952001,27.973599394241297L18.561856185618566,26.725391919003204L18.517051705170523,24.92294306483476Z" fill="#0C4D82"></path>
</svg>