<?xml version="1.0" standalone="no"?>
<!DOCTYPE svg PUBLIC "-//W3C//DTD SVG 1.1//EN" "http://www.w3.org/Graphics/SVG/1.1/DTD/svg11.dtd">
<svg version="1.1" xmlns="http://www.w3.org/2000/svg" width="100" height="100" viewBox="0 0 64 64">
  <path d="M30.600426515922432,0.46724672467246364L44.164269684755666,0.6144614461446096L46.14037780637902,12.078007800780078L48.9721203724166,28.918091809180915L49.66070237768329,30.108610861086106L49.89702046233103,31.785578557855786L51.44123691201196,34.544254425442546L51.03786638821667,36.054805480548055L52.37021145166169,36.87408740874088L50.41447557871487,38.634263426342635L50.53670907077405,40.06800680068007L49.5303199861535,42.532253225322535L49.7340424729188,44.47804780478047L50.52041127183283,45.489348934893485L50.675240361774456,46.801480148014804L49.921467160742864,50.20662066206621L49.98258390677246,51.21152115211521L50.805622753304235,52.254825482548256L51.20491882736421,53.707770777077705L38.313359864856444,53.84218421842184L21.38809566439586,53.62456245624563L20.948055092982827,55.37833783378338L22.44337814584008,57.32413241324132L23.669787516167148,58.3994399439944L23.038247807194736,60.15961596159616L23.555702923578583,61.31173117311731L21.498105807249118,63.32153215321532L18.849713479300302,63.83358335833584L19.428285341713735,63.001500150015005L17.680346405267517,61.34373437343734L17.78628209838547,59.634763476347636L17.42365607194325,57.32413241324132L15.993524214850886,58.24582458245825L15.451622400055207,60.14041404140414L15.370133405349089,61.83018301830183L14.200766331316304,62.00300030003L12.045382421339498,61.58695869586958L11.6297885483383,41.46974697469747L14.763040394788515,16.744074407440742L16.771744114294307,1.5745574557455697L15.655344886820501,0Z" fill="#0C4D82"></path>
</svg>