<?xml version="1.0" standalone="no"?>
<!DOCTYPE svg PUBLIC "-//W3C//DTD SVG 1.1//EN" "http://www.w3.org/Graphics/SVG/1.1/DTD/svg11.dtd">
<svg version="1.1" xmlns="http://www.w3.org/2000/svg" width="100" height="100" viewBox="0 0 64 64">
  <path d="M45.72421769927014,0.6656665666566539L45.932118944066744,0.7360736073607228L58.701632242889346,0.6656665666566539L59.259682952606525,52.60686068606861L59.35269140422605,63.95519551955196L39.95222261346987,63.974397439743974L20.212546528571856,56.357635763576354L4.663721851942106,50.07860786078608L5.008400231473307,48.63206320632063L5.845476296049082,47.31353135313531L7.5032151690324795,47.25592559255925L8.088621305696583,46.28942894289429L7.694703157660925,44.2028202820282L6.261278785642277,44.03000300030003L5.98772451617307,39.901590159015896L6.66066801906732,39.86318631863186L7.897133317068137,38.36543654365436L8.225398440431187,36.75887588758876L7.973728512519516,34.185818581858186L9.00776365111312,32.412841284128405L10.714742292600974,31.516751675167512L11.836314797424725,30.115011501150107L10.025385533538572,28.386838683868383L8.947581711829894,25.41694169416941L7.5032151690324795,23.37513751375137L7.5360416813687845,20.95569556955695L8.219927355041802,20.6036603660366L8.105034561864736,18.529852985298525L7.426619973581101,16.494449444944486L7.388322375855412,12.577257725772569L7.0272307401560585,9.946594659465937L8.198043013484266,9.364136413641354L10.572494072476987,9.485748574857475L11.715950918858272,10.970697069706965L12.624151093496042,10.72107210721071L13.537822353523195,9.02490249024902L13.844203135328707,-1.4210854715202004e-14L28.692728882117287,0.47364736473646474L38.69387297391151,0.6528652865286446Z" fill="#0C4D82"></path>
</svg>