<?xml version="1.0" standalone="no"?>
<!DOCTYPE svg PUBLIC "-//W3C//DTD SVG 1.1//EN" "http://www.w3.org/Graphics/SVG/1.1/DTD/svg11.dtd">
<svg version="1.1" xmlns="http://www.w3.org/2000/svg" width="100" height="100" viewBox="0 0 64 64">
  <path d="M11.437943794379443,8.847979051391349L24.22642264226423,9.391094129283523L30.307030703070307,9.497860341176853L30.204620462046204,11.20147772225743L31.836783678367837,10.964735252406996L32.1952195219522,9.511786368815116L37.02130213021302,9.743886829452798L39.62636263626362,9.586058516219175L52.24202420242024,9.688182718899753L54.68706870687068,9.808874958431346L63.385538553855376,9.906357151899172L63.99999999999999,25.976993046452193L63.77597759775977,36.47257587648812L62.310231023102304,36.75573843846609L62.790279027902784,39.70805629777739L61.74057405740573,40.6178901034771L61.02370237023702,39.59200606745855L60.3068306830683,40.42292571654145L58.67466746674667,40.176899228265505L58.14341434143414,39.44346177265044L56.99769976997699,41.332759522241155L54.501450145014495,40.367221605988405L53.899789978997894,35.585952116852184L53.771777177717766,37.405619728251594L54.2070207020702,40.65966818639188L53.46454645464546,41.69483624083594L51.28832883288328,40.701446269306665L50.48824882488248,41.02174490498666L50.398639863986396,42.32150748455768L48.88808880888088,41.73661432375072L48.44644464446444,42.48397780700405L46.36623662366236,42.70215224000347L45.738973897389734,41.676268203984925L45.88618861886188,40.473987817881735L44.638063806380636,38.723950344673625L44.2028202820282,39.18350925673623L45.57255725572557,40.89641065624232L45.7005700570057,42.77178237819478L44.337233723372336,43.47736777853333L43.978797879787976,42.74857233213101L42.32743274327432,42.641806120237675L40.33683368336833,43.65840613783072L39.97199719971997,43.03637690332174L39.19751975197519,43.997272810361736L38.039003900390036,43.00388283883246L33.92339233923392,43.70482622995826L31.19031903190319,43.273119373172165L30.115011501150114,44.062260939340284L29.826982698269827,43.328823483725216L28.764476447644764,44.141175095957095L27.5995599559956,44.257225326275936L27.292329232923294,41.88515861855883L26.69066906690669,43.14314311521507L24.565656565656568,44.58216597116869L23.624762476247625,45.92370663365448L22.491849184918493,45.6219760348255L19.809980998099814,48.42110759011593L18.152215221522155,47.49734775677796L15.419141914191423,49.68837610519767L14.631863186318636,49.219533174709554L12.724472447244729,49.813710353942014L9.741774177417746,52.36217341174375L8.749674967496755,52.19970308929737L8.173617361736179,53.16988301476288L6.8038803880388095,53.11417890420984L3.302730273027309,54.68782002733331L2.387438743874394,54.23290312448346L7.105427357601002e-15,50.29183730285564L8.160816081608166,45.46414772159188L5.933393339333939,41.82481249879304L7.053505350535059,27.615622298554218L8.320832083208327,8.820126996114823Z" fill="#0C4D82"></path>
</svg>