<?xml version="1.0" standalone="no"?>
<!DOCTYPE svg PUBLIC "-//W3C//DTD SVG 1.1//EN" "http://www.w3.org/Graphics/SVG/1.1/DTD/svg11.dtd">
<svg version="1.1" xmlns="http://www.w3.org/2000/svg" width="100" height="100" viewBox="0 0 64 64">
  <path d="M52.56832348104011,56.06960696069607L51.72271576907747,58.76427642764276L51.37579978468253,56.78647864786478ZM52.8664544051295,50.86588658865887L54.15112765984199,51.16031603160316L53.939725731851325,52.18441844184419L52.50869729622224,53.25332533253325L52.286454243719234,52.42124212421242ZM54.991314809548456,47.7935793579358L55.23524011107615,48.062406240624064L54.0752397882556,49.96979697969797L53.4789779400768,48.62566256625662ZM55.8206608347426,43.492349234923495L56.83972653890271,43.94039403940394L55.75561408766855,45.246124612461244L55.218978424307636,43.972397239723975ZM54.660660511922046,45.09250925092509L53.950566856363665,46.14221422142214L54.991314809548456,46.96149614961496L53.47355737782064,48.83048304830483L53.3868283817219,50.18741874187418L54.02103416569389,50.68026802680268L52.156360749571135,50.526652665266525L52.768884284518435,51.27552755275528L51.93411769706813,52.75407540754075L52.31355705500009,54.63586358635864L51.51673440334298,55.52555255525552L52.167201874083474,55.85838583858386L51.49505215431829,58.87948794879488L50.25916395991135,59.052305230523054L46.8713125498046,57.57375737573757L45.326452306795915,58.1050105010501L45.02832138270652,59.9035903590359L45.54869535929892,61.158115811581155L45.17467656362314,63.782378237823785L43.58103126030892,63.94239423942394L43.223274151401654,63.45594559455946L43.07149840822886,61.087708770877086L11.751489692073967,58.75147514751475L11.117283908101982,58.07300730073007L10.878779168830468,56.287228722872285L10.174106075528263,55.1031103110311L9.865134026926526,53.24692469246925L9.052049688500908,52.15241524152415L9.057470250757078,50.878687868786876L9.919339649488236,47.62076207620762L9.800087279852477,46.27662766276627L9.024946877220053,45.21412141214121L8.894853383071954,43.24912491249125L10.006068645586968,40.72727272727273L9.941021898512918,39.223122312231226L12.000835555857822,37.51415141514151L10.683638927608317,36.650065006500654L11.133545594870494,35.088308830883086L9.951863023025261,32.931293129312934L9.480274106738399,30.454245424542457L8.791862700204709,29.225322532253223L4.899899000274072,0L6.8621425370079026,0.08960896089608639L27.270559431490973,0.518451845184515L33.03803767205671,0.39683968396839475L32.66401887638092,1.433743374337432L31.4985979913042,2.067406740674066L30.571681845498993,3.2643264326432657L30.365700479764502,4.749274927492749L34.165514621340236,7.623162316231621L35.28215044611142,7.456745674567458L36.02476747520682,9.261726172617259L36.96794530778054,10.349834983498347L39.09280571219949,14.721472147214719L42.442713186513046,17.262526252625264L43.31000314750038,19.20832083208321L44.92533069983928,20.021202120212017L46.54607881443435,21.8005800580058L46.17206001875856,22.75427542754275L48.2264531138473,24.85368536853685L48.296920423177525,25.65376537653765L49.971874160334295,26.498649864986497L51.424584844988075,27.708370837083706L51.31075303760848,28.7004700470047L52.2539308701822,30.115011501150114L52.302715930487736,32.867286728672866L53.91262292057047,33.85938593859386L55.80981971023026,37.51415141514151L55.403277541017445,38.07740774077408L55.87486645730431,39.895189518951895L57.18122196104146,40.317631763176315L56.66084798444906,41.04090409040904L57.33841826647041,43.38993899389939L55.02925874534165,42.35303530353035L55.59299721998342,43.46034603460346L55.39785697876127,45.18211821182118Z" fill="#0C4D82"></path>
</svg>