<?xml version="1.0" standalone="no"?>
<!DOCTYPE svg PUBLIC "-//W3C//DTD SVG 1.1//EN" "http://www.w3.org/Graphics/SVG/1.1/DTD/svg11.dtd">
<svg version="1.1" xmlns="http://www.w3.org/2000/svg" width="100" height="100" viewBox="0 0 64 64">
  <path d="M51.61476147614761,35.7771933123036L54.73827382738274,37.60293977968003L56.274427442744276,37.85434053478152L58.431443144314436,38.86818620289574L60.71007100710071,40.94121210151953L60.62046204620462,42.330098240358936L61.65096509650965,42.31361294494244L61.8941894189419,43.46758362409684L63.993599359936,44.9759881547058L62.00300030003,47.13556185426618L59.461946194619465,48.277168561858204L58.265026502650265,48.202984732484L55.78157815781579,49.79793706402954L54.04700470047005,52.41909903525167L51.32033203320332,51.063183487245254L50.86588658865887,50.02873119986042L51.237123712371236,47.246837598327495L50.17461746174617,44.0198410205493L49.489748974897495,43.368671851597895L49.28492849284929,41.93857247421727L50.6034603460346,40.974182692352514L51.941194119411946,38.74454648727205L51.14111411141114,37.56996918884704L51.03870387038704,36.226417612403ZM43.12751275127513,31.659990782034875L43.30673067306731,32.488376876713566L41.82818281828183,32.888145290563486L41.86018601860186,32.24521876932032ZM38.25022502250225,27.637578700410973L39.44714471447145,27.93843534176194L40.33043304330433,28.948159686022038L40.03600360036004,29.63229944580643L38.46144614461446,30.048553155072838L37.3989398939894,27.847766216971237ZM42.73067306730673,26.355846981778765L44.17081708170817,28.000255199573783L46.02060206020602,27.398541916871846L47.13431343134314,27.629336052702726L48.49124912491249,28.898703799772566L49.803380338033804,29.290229565914235L49.96339633963397,30.324681853299072L49.28492849284929,31.008821613083462L45.45734573457346,31.989696690364703L44.631663166316635,31.622898867347768L44.29242924292429,29.35204942372608L42.49384938493849,29.10889131633283L41.67456745674568,27.377935297601233ZM35.22912291229123,24.043784299615847L37.39253925392539,24.45179536117401L38.54465446544655,24.200394606072514L39.21672167216722,24.75265200252498L41.11131113111311,24.604284343776555L40.496849684968495,25.84068150001341L39.51755175517552,26.170387408343238L37.136513651365135,25.473883676996476L34.40344034403441,25.486247648558845ZM26.549854985498552,17.944224995514027L28.252425242524254,20.18622517215686L28.175617561756177,21.031096562252042L29.084508450845085,21.0228539145438L30.403040304030405,23.038181279209873L28.444444444444446,23.549225437121105L27.561156115611563,22.609563598381094L25.116111611161116,23.071151870042854L23.035903590359037,19.617482480287904L24.78967896789679,19.51857070778896ZM1.9585958595859587,14.214426907532847L2.048204820482048,15.405489501374355L1.0305030503050305,15.87944174459848L0.5184518451845185,16.901530060420946L0.21762176217621762,15.60331304637225ZM10.01060106010601,11.457261249124663L10.996299629962996,12.03012526484774L11.156315631563157,12.986272399004243L10.561056105610561,15.026327706795051L9.40894089408941,15.875320420744359L7.552755275527553,15.566221131685147L5.786178617861786,14.498798253467328L5.472547254725472,13.40252610827065L6.18941894189419,12.372195144739933L7.840784078407841,11.490231839957644Z" fill="#0C4D82"></path>
</svg>