<?xml version="1.0" standalone="no"?>
<!DOCTYPE svg PUBLIC "-//W3C//DTD SVG 1.1//EN" "http://www.w3.org/Graphics/SVG/1.1/DTD/svg11.dtd">
<svg version="1.1" xmlns="http://www.w3.org/2000/svg" width="100" height="100" viewBox="0 0 64 64">
  <path d="M21.60641770193343,0.32003200320032477L21.134806637797773,9.530553055305539L22.989003983972147,12.180418041804188L22.89629411666343,14.612661266126615L24.016874251960118,15.803180318031806L25.28659634770996,16.238423842384243L27.596281302835862,20.200420042004204L29.422262602438014,21.35253525352536L29.44241692141817,21.96059605960596L31.256305629632234,21.922192219221927L30.50253409977439,25.1993199319932L30.135725494335546,27.817181718171824L30.50253409977439,29.090909090909093L29.49884901456261,29.77577757775778L30.047046490822858,31.663966396639665L30.812910612068794,32.624062406240625L33.44909553467323,30.569456945694576L34.25123743008345,31.414341434143417L34.43665716470089,33.20012001200121L35.77893480877929,35.869186918691874L36.42790387994032,36.36843684368437L36.37147178679588,38.10941094109411L37.10105813387754,38.84548454845485L38.43527405036388,38.96709670967097L39.237415945774096,41.8921892189219L39.999249203224004,42.340234023402346L40.66837259336519,41.58495849584959L43.20378592106884,41.924192419241926L43.852754992229876,40.855285528552855L45.08619931381543,41.258525852585265L46.55746459936684,40.88088808880889L48.875211282084805,41.12411241124113L48.97598287698558,39.63916391639164L49.65719885851486,39.14631463146315L50.65685307993061,40.7016701670167L51.837896172167774,41.64896489648965L52.1523035482582,63.916791679167915L45.178909181124155,64L36.774558166399004,63.974397439743974L30.417885960057735,63.852785278527854L19.482152481424965,63.44954495449545L11.988776684602879,63.052705270527056L12.823165490381347,48.472047204720475L13.008585224998784,46.30863086308631L13.975992536046284,43.543554355435546L11.9524989104386,42.35943594359436L12.004900139787004,40.663266326632666L13.31896173729319,38.32063206320632L14.040486356782784,38.01340134013402L14.725733202108096,35.88838883888389L15.543998552702439,34.85788578857886L15.987393570265876,33.26412641264127L17.46268971961331,30.684668466846688L17.003171246865747,29.442944294429445L15.543998552702439,28.67486748674868L14.588683833043033,26.153015301530154L14.850689979785063,25.519351935193527L14.12110363270341,23.899989998999907L14.266214729360534,23.183118311831187L15.116726990323127,9.300130013001308L15.769726925280189,7.105427357601002e-15Z" fill="#0C4D82"></path>
</svg>