<?xml version="1.0" standalone="no"?>
<!DOCTYPE svg PUBLIC "-//W3C//DTD SVG 1.1//EN" "http://www.w3.org/Graphics/SVG/1.1/DTD/svg11.dtd">
<svg version="1.1" xmlns="http://www.w3.org/2000/svg" width="100" height="100" viewBox="0 0 64 64">
  <path d="M42.52556101391799,24.111211121112113L44.45843172891792,25.327332733273323L46.252844656310415,25.500150015001502L46.99497839788632,26.72907290729073L51.81330940662542,28.726072607260726L52.68282431280017,30.595059505950594L51.59177694645351,31.52955295529553L52.666209378287284,32.694469446944694L53.015123003058044,34.307430743074306L52.66067106678298,38.06460646064606L51.32039968274292,38.877487748774875L51.07671397655381,40.855285528552855L49.232456245622636,41.450545054505454L48.49032250404673,43.74837483748375L48.894619243860475,44.644464446444644L50.456423088072455,45.412541254125415L51.940690571224266,44.00440044004401L53.34742169331591,41.50815081508151L55.69566577113818,40.503250325032504L56.99163066314387,41.213721372137215L57.966373487900285,43.255525552555255L58.874656574605126,48.74727472747274L59.67217343122401,51.13471347134713L59.112803969289935,54.46304630463047L57.80576245427565,53.89338933893389L57.10239689322983,54.27102710271027L56.53748911979145,56.812081208120816L55.19721773575138,57.66976697669767L54.355394387098116,60.75487548754875L52.43360029510677,63.430343034303434L42.774785031611394,64L42.763708408602795,63.372737273727374L36.53310796626776,63.44954495449545L28.026261495666322,63.41754175417542L29.70436988146856,61.862186218621865L30.490810115078848,59.96119611961196L31.498782808861048,58.55305530553055L32.24645486194125,56.396039603960396L32.52890874866044,52.66446644664467L32.18553343539398,50.42424242424242L30.28035427791553,45.540554055405536L30.98925815046565,43.05710571057106L30.48527180357455,40.88088808880888L32.17445681238538,38.08380838083808L32.33506784601002,34.74267426742674L33.50365157341686,34.17941794179418L33.54795806545124,32.860886088608865L34.47285608666897,32.169616961696164L35.39775410788671,32.2976297629763L36.6771040653795,30.006200620062003L36.9429430175858,31.177517751775177L36.48880147423338,32.995299529952995L36.848791722012734,34.1026102610261L37.690615070666,31.93279327932793L37.33062482288664,34.28822882288229L38.13367999100983,32.745674567456746L38.26106115560867,29.513351335133514L38.864737109577135,28.674867486748674L41.50097338562289,27.938793879387937L40.26592992016448,27.106710671067106L40.08316564052266,26.17221722172217L41.268364302442386,24.847284728472843L40.95821885820171,24.39283928392839ZM50.6004191871842,22.58145814581458L48.68416340669715,22.235823582358236L50.46196139957675,20.94929492949295L51.22624838716985,21.97339733973397ZM16.556418370265554,9.799379937993798L17.75823196669818,12.110011001100105L17.486854702987586,14.478247824782478L19.059735170208164,12.769276927692765L21.319366263961673,13.038103810381038L22.820248681626378,13.786978697869785L24.880500561225166,17.083308330833084L28.735165368216443,17.384138413841384L29.737599750494343,18.037003700370036L30.928336723918374,16.667266726672665L33.11043145661171,15.508750875087507L37.358316380408134,15.470347034703465L39.025348143201775,14.695869586958693L41.052370153774774,14.523052305230522L40.564998741396565,15.25272527252725L40.631458479448135,17.332933293329333L41.96619155198391,17.684968496849685L43.27877137850249,17.268926892689265L43.66645318380334,17.95379537953795L45.21164209350243,17.05130513051305L45.7820881784451,17.742574257425744L47.13343618549377,21.006900690069003L48.33524978192639,21.954195419541954L47.65957577840206,22.4022402240224L43.17908177142513,21.486948694869483L41.9994214210097,23.259925992599257L40.78653120156848,21.947794779477945L38.60997478037944,21.166916691669165L37.34170144589524,21.14131413141314L36.37803524414742,22.4022402240224L32.567676929190526,22.45344534453445L29.743138061998643,25.378537853785375L29.13946210803018,25.14811481148115L30.43542700003587,23.47754775477548L28.707473810694953,23.41354135413541L28.120412791239385,24.86008600860086L27.42812385320216,25.244124412441245L27.300742688603307,23.624762476247625L26.010316108101918,25.327332733273323L24.91926874175525,27.605960596059603L22.604254532958766,30.67186718671867L22.022731825007494,29.775777577757772L22.703944140036125,28.3996399639964L21.059065623259674,28.23322332233223L21.740277938288305,26.805880588058805L21.85658247987856,25.122512251225125L21.27505977192729,24.360836083608362L19.464031910021905,23.624762476247625L19.768639042758288,22.728672867286726L16.816719010967553,21.595759575957594L15.138610625165315,21.595759575957594L13.067282122557934,20.315631563156316L6.188699234220053,18.062606260626062L5.535178476712912,16.33443344334433L4.3112116342630955,15.726372637263722L6.88098817225728,14.849484948494847L8.597864738589601,13.492549254925493L11.106719850036509,13.364536453645364L13.211278221669676,11.956395639563958L14.324478834033537,11.82838283828383L14.778620377385957,10.98989898989899ZM21.790122741826988,7.539953995399536L22.703944140036125,8.237623762376238L21.064603934763973,8.372037203720367L18.372984543675237,11.329132913291325L16.61733979681283,10.785078507850784L16.578571616282744,9.812181218121808L17.952072869348605,8.47444744474447L19.35326567993595,7.725572557255724ZM16.705952780881596,0.9664966496649612L18.223450133059195,0.45444544454445435L16.59518655079564,2.1122112211221094L13.200201598661081,3.8403840384038403L12.906671088933297,2.989098909890984Z" fill="#0C4D82"></path>
</svg>