<?xml version="1.0" standalone="no"?>
<!DOCTYPE svg PUBLIC "-//W3C//DTD SVG 1.1//EN" "http://www.w3.org/Graphics/SVG/1.1/DTD/svg11.dtd">
<svg version="1.1" xmlns="http://www.w3.org/2000/svg" width="100" height="100" viewBox="0 0 64 64">
  <path d="M19.166574750695347,0.051205120512051394L20.538298674800906,0.20482048204820558L21.419324609795535,1.0369036903690372L22.333807225865907,5.5045504550455036L22.255741636689166,6.650265026502652L22.980636393330318,7.322332233223321L25.300299614581995,7.55915591559156L25.579105290213207,8.103210321032101L28.305824797886455,8.346434643464342L28.690576630257524,9.588158815881584L31.010239851509205,9.274527452745275L31.87453744596596,8.404040404040401L34.4841585698741,8.436043604360435L36.329852142552724,9.351335133513352L36.44695052631782,10.177017701770176L37.92462060716325,10.33063306330633L38.9506254934861,12.775677567756773L39.664368023102,12.481248124812481L39.70340081769038,11.322732273227324L41.197799239073674,11.252325232523248L41.56582273090687,12.270027002700267L43.68474586570407,12.948494849484945L43.73493088731769,13.838183818381836L44.84457747632992,13.914991499149913L44.78881634120367,14.612661266126608L47.09175122191748,14.126212621262127L49.67906789177512,12.30843084308431L50.777562253762085,13.914991499149913L55.11020245307111,13.56935693569357L57.106451090590596,14.862286228622864L57.90383532289586,14.427042704270427L59.37035317671602,14.689468946894685L56.45962192312618,16.57125712571257L53.11952992906427,17.77457745774577L49.8128946160781,19.957195719571956L45.63080948160993,24.565656565656568L43.456125211686484,26.562656265626565L39.68109636363988,29.615761576157617L39.731281385253496,36.03560356035604L39.30749675829405,36.68206820682068L36.59192947764606,38.03900390039004L35.404217299457095,39.93359335933593L35.29827114271724,41.47614761476147L36.12353594258562,41.54655465546554L37.11608414783274,42.91629162916291L36.24621043986335,44.580458045804576L36.23505821283811,49.496149614961496L35.90606751559328,50.398639863986396L37.958077288239,52.4020402040204L39.630911342026266,52.555655565556556L40.48405670945776,53.75257525752575L42.54164259561611,54.610261026102606L43.21077621713101,56.3064306430643L45.53601555189532,58.156215621562154L46.65681436793278,58.41224122412241L48.25158283254332,60.83808380838084L48.05084274608885,61.91979197919792L48.530388508174525,63.80798079807981L34.885638742783044,64L25.696203673978317,63.94879487948795L16.423126902484228,63.75037503750375L7.155626244502759,63.41754175417542L7.997619384909017,43.88918891889189L6.2969047635586275,42.62186218621862L5.103616471857044,40.42004200420042L7.261572401242619,38.24382438243825L7.5794108714622,35.59395939593959L7.378670785007728,32.694469446944694L6.436307601374233,30.97269726972697L6.0627079960284105,29.404540454045403L6.3526658986848705,26.505050505050505L5.979066293339047,25.288928892889288L6.179806379793519,21.69176917691769L5.917729044700181,18.427442744274423L4.311808353064404,12.878087808780876L4.6463751638218564,9.895389538953893L4.384297828728518,8.384838483848384L4.947485293503565,7.3095309530953045L4.211438309837167,3.571557155715567L19.010443572341867,4.1796179617961755Z" fill="#0C4D82"></path>
</svg>