<?xml version="1.0" standalone="no"?>
<!DOCTYPE svg PUBLIC "-//W3C//DTD SVG 1.1//EN" "http://www.w3.org/Graphics/SVG/1.1/DTD/svg11.dtd">
<svg version="1.1" xmlns="http://www.w3.org/2000/svg" width="100" height="100" viewBox="0 0 64 64">
  <path d="M38.397439743974395,3.813811765756917L39.40874087408741,4.703871101293416L40.304830483048306,6.34345408780802L41.29052905290529,6.747494180913407L40.43924392439244,8.504190237893347L40.52245224522452,10.981131678235052L41.22012201220122,12.310365028016541L41.07290729072908,13.399516583344102L41.693769376937695,14.81658473597458L44.80448044804481,18.294842928794857L47.43514351435144,20.227208591472788L48.28002800280028,22.81540744875656L48.04320432043205,23.459529336315867L48.900890089008904,25.491441108889333L50.321832183218326,24.4315678211781L52.42124212421243,24.91758706360922L53.72057205720572,25.743234210389787L52.82448244824483,27.499930267369727L53.08690869086909,28.811596656581408L51.301130113011304,32.19030873950615L51.39073907390739,33.51368643576437L52.555655565556556,34.96588850953445L54.98149814981498,36.81041936936339L55.800780078007804,37.97569442049341L56.4984498449845,37.51895344567863L59.7947794779478,40.22426537342773L59.762776277627765,42.06294057973339L60.658865886588664,44.34664545380731L59.78837883788379,45.22499348229728L62.21422142214222,48.85549866672248L62.393439343934396,47.912738449476585L63.14231423142314,49.03116827242048L64,49.15999264993234L63.795179517951794,51.759902814262645L62.56625662566257,54.13144249118556L61.35013501350135,53.43461972191685L60.831683168316836,55.08005836195473L60.12761276127613,55.249872314129455L60.23002300230023,54.0728859559529L59.35953595359536,54.23684425460436L59.98679867986799,56.508837821631744L58.95629562956296,57.32277366136578L59.74997499749975,58.007885123587954L58.130613061306136,58.04887469825082L59.173917391739174,59.5889115748699L58.04100410041004,61.16408237262858L51.26912691269127,61.27533978957064L52.850085008500855,58.92722272674079L54.411841184118416,57.46330934592417L54.424642464246425,56.44442563287581L53.4965496549655,55.02735748024533L40.88728872887289,55.003934866152264L24.46964696469647,54.69944088294241L8.704870487048705,54.13144249118556L9.38973897389739,38.33874493893593L10.273027302730274,21.029433124160292L8.096809680968097,20.151085095670325L7.200720072007201,18.066472441387468L5.7157715771577156,16.186807660418935L6.5094509450945095,14.558935980950857L7.757575757575758,13.446361811530231L7.463146314631463,11.70137706159683L5.594159415941594,11.853624053201756L3.001900190019002,9.441094801615975L3.28992899289929,8.867240756335868L2.509050905090509,7.07541077821633L1.260926092609261,5.9042800735630365L0.09600960096009602,2.724660210429356L11.341934193419343,3.503462129023788L24.463246324632465,3.872368300989578Z" fill="#0C4D82"></path>
</svg>