<?xml version="1.0" standalone="no"?>
<!DOCTYPE svg PUBLIC "-//W3C//DTD SVG 1.1//EN" "http://www.w3.org/Graphics/SVG/1.1/DTD/svg11.dtd">
<svg version="1.1" xmlns="http://www.w3.org/2000/svg" width="100" height="100" viewBox="0 0 64 64">
  <path d="M48.99344595287458,0.1088108810881252L50.96218658815264,0.0960096009601088L52.087181236882955,1.4593459345934718L50.480046024411074,17.115311531153125L48.121575100108586,41.23932393239325L49.13005244593469,61.689368936893686L48.11353942404622,62.12461246124612L47.38229290237152,61.22212221222122L45.56221227424711,61.7981798179818L43.750167322185064,60.98529852985298L41.41982126410083,61.388538853885386L38.79617302974048,62.32303230323032L39.234117375139064,61.77897789778978L38.11314056443993,61.42054205420542L38.35421084631071,62.32303230323032L36.96805672555371,63.65436543654366L35.59395611889025,63.92959295929593L35.03145879452509,63.315131513151314L34.28815875875684,60.32603260326033L33.33191330733607,59.50675067506751L32.43191758835182,57.40734073407341L33.83414306123353,53.02290229022903L18.843589366902044,52.862886288628864L12.037371742083616,52.7028702870287L12.848975024381916,51.781178117811784L12.24629931970496,51.23712371237124L12.555672848105798,50.00180018001801L12.11371066467603,49.14411441144115L13.475757757245951,49.073707370737075L12.836921510288377,47.332733273327335L14.05432643373583,47.53755375537554L13.64048911652432,45.66856685668567L14.785572955410537,45.25252525252526L14.986464856969523,43.33873387338734L15.621283265895917,41.58495849584959L17.50966714055038,40.63766376637665L17.433328217957964,40.061606160616066L18.71903638793547,39.35753575357536L17.89537959154363,38.92229222922293L19.004302888149233,37.93659365936594L17.73466607029644,37.776577657765785L17.75475526045234,36.97649764976498L19.112784514991084,36.387638763876396L20.647598642901734,35.11391139113912L19.615014268888547,34.7938793879388L20.065012128380673,34.00020002000201L18.75921476824727,33.60336033603361L18.060110950822,31.004700470047013L19.120820191053443,30.019001900190027L18.269038528443346,29.846184618461855L18.240913662225086,28.463646364636475L19.100731000897547,27.369136913691378L18.32127042284868,26.56905690569058L18.514126648345307,25.570557055705578L17.742701746358804,24.450445044504463L18.90385693736974,24.450445044504463L18.357430965129296,21.704570457045712L17.385114161583807,20.21962196219623L17.94761148594897,19.675567556755688L17.413239027802067,18.856285628562865L18.534215838501204,18.395439543954403L17.594041739205153,17.50575057505752L18.5944834089689,15.911991199119925L19.791799142260455,16.206420642064217L19.12483802908462,13.569356935693584L21.262327861672226,12.769276927692779L21.9413424889416,11.284328432843296L20.95697217130257,9.856985698569872L21.824825186037387,10.349834983498361L23.05830146160956,9.063306330633075L22.945801996736527,8.237623762376252L24.894453441858687,7.661566156615677L25.300255083007833,5.946194619461963L24.81811451926627,4.256425642564274L25.605610773377492,4.7940794079408064L26.3167681048963,3.3539353935393663L26.05560863286962,1.4593459345934718L26.75471245029489,2.157015701570174L28.5346146981075,1.2737273727372909L27.939974669492905,1.4210854715202004e-14L38.38233571252897,0.1280128012801427Z" fill="#0C4D82"></path>
</svg>