<?xml version="1.0" standalone="no"?>
<!DOCTYPE svg PUBLIC "-//W3C//DTD SVG 1.1//EN" "http://www.w3.org/Graphics/SVG/1.1/DTD/svg11.dtd">
<svg width="100" height="100" viewBox="0 0 64 64" fill="none" xmlns="http://www.w3.org/2000/svg">
<path d="M100 50C100 77.6142 77.6142 100 50 100C22.3858 100 0 77.6142 0 50C0 22.3858 22.3858 0 50 0C77.6142 0 100 22.3858 100 50Z" fill="white"/>
<path d="M56.506 87.6521C64.1621 86.4775 71.3022 83.1226 77.0462 78.001L71.9294 72.4352C67.288 76.5735 61.5188 79.2843 55.3324 80.2334C49.1461 81.1825 42.8129 80.3285 37.1133 77.7767C31.4137 75.2248 26.5967 71.0866 23.2557 65.8719C19.9148 60.6572 18.1959 54.5938 18.3109 48.4289C18.4259 42.264 20.3697 36.2669 23.9029 31.1765C27.4361 26.0861 32.4042 22.1249 38.1951 19.781C43.986 17.437 50.3468 16.8127 56.4936 17.9849C62.3867 19.1088 67.8364 21.837 72.2275 25.8526L62.6975 36.2023L46.8638 52.8411L40.0976 48.9611H28.3312L46.8638 63.494L82.0154 25.8336L82.5179 25.3237L77.9882 20.8853C72.4583 15.6229 65.4949 12.0539 57.943 10.6137C50.3358 9.16292 42.4637 9.93559 35.2969 12.8365C28.1301 15.7374 21.9816 20.6397 17.609 26.9395C13.2363 33.2393 10.8307 40.6613 10.6883 48.291C10.546 55.9206 12.6733 63.4246 16.808 69.8783C20.9427 76.332 26.9043 81.4535 33.9581 84.6117C41.0119 87.7698 48.8498 88.8267 56.506 87.6521Z" fill="#FDB124"/>
</svg>
