<?xml version="1.0" standalone="no"?>
<!DOCTYPE svg PUBLIC "-//W3C//DTD SVG 1.1//EN" "http://www.w3.org/Graphics/SVG/1.1/DTD/svg11.dtd">
<svg version="1.1" xmlns="http://www.w3.org/2000/svg" width="100" height="100" viewBox="0 0 64 64">
  <path d="M27,-46.1C31.3,-44.3,28.6,-29.6,31,-19.8C33.3,-10,40.8,-5,42.2,0.8C43.6,6.6,38.9,13.2,37.5,24.6C36,36.1,37.9,52.5,32.2,62.6C26.5,72.8,13.3,76.6,-1.2,78.6C-15.6,80.6,-31.2,80.8,-35.1,69.7C-39.1,58.5,-31.5,36.2,-32.9,22.7C-34.4,9.2,-44.9,4.6,-51,-3.5C-57,-11.6,-58.6,-23.2,-55.2,-33.4C-51.9,-43.5,-43.6,-52.3,-33.6,-50.8C-23.5,-49.4,-11.8,-37.6,-0.2,-37.3C11.4,-36.9,22.7,-48,27,-46.1Z" fill="#0C4D82"></path>
</svg>
