<?xml version="1.0" standalone="no"?>
<!DOCTYPE svg PUBLIC "-//W3C//DTD SVG 1.1//EN" "http://www.w3.org/Graphics/SVG/1.1/DTD/svg11.dtd">
<svg version="1.1" xmlns="http://www.w3.org/2000/svg" width="100" height="100" viewBox="0 0 64 64">
  <path d="M60.6268626862686,20.039408754566576L62.00940094009399,23.892468751820353L63.11031103110309,25.978831194918502L61.868586858685845,24.485434919858776ZM60.294029402940275,22.55280444625207L60.428442844284405,23.44591398329759L58.975497549754955,22.37467057684135L59.54515451545152,23.59232538281325L56.332033203320314,24.953951398308885L55.04550455045503,24.453712449963714L55.27592759275925,25.634764406056703L57.112911291129095,25.149166597663097L57.33053305330531,25.59816155617779L59.577157715771556,25.01251595811515L59.48754875487547,26.967108141649206L59.94199419941992,27.977346798307256L60.486048604860464,25.544477376355378L61.83658365836582,25.881223595241398L62.022202220222,28.101796487895566L60.25562556255623,29.221843694190362L59.37873787378736,30.610311799597202L58.245824582458226,30.773804529056356L57.2153215321532,30.014905441566853L56.72887288728871,30.534665909847444L53.09970997099708,29.63179561283421L56.49204920492047,31.16179473777285L55.506350635063484,32.36968878377704L55.87118711871185,33.23595623091136L54.463046304630446,34.17298918781159L53.02930293029301,33.216434710975946L53.78457845784577,34.30963982735953L54.78307830783076,34.60734300637471L57.125712571257104,33.36528630048353L57.3241324132413,34.866003145519045L56.645664566456624,36.24471049095817L55.807180718071784,35.488251593460596L55.29512951295128,36.342318090635274L52.26122612261224,36.49360987013479L50.60346034603459,38.128537164726325L48.08160816081606,40.01724421847833L46.25102510251023,41.81566424252902L45.62376237623761,43.69949091629717L41.66176617661765,43.89470611565139L33.63536353635362,35.744471542613L25.49374937493748,35.51021330338794L25.621762176217608,34.50485502671375L23.84238423842383,32.577104933090894L14.823882388238813,31.891411545359226L13.537353735373527,32.03782294487488L8.78807880788078,33.41897048030594L5.075707570757068,33.3799274404351L-7.105427357601002e-15,33.11150654132305L0.33923392339233205,31.03978523817647L2.2978297829782903,30.488302300000818L2.3490349034903413,29.50490573325397L4.224422442244216,28.272609787330502L6.189418941894181,28.35069586707219L8.103210321032094,26.993950231560408L10.125812581258117,26.51079261315873L10.516251625162507,25.349262177001165L11.175517551755165,25.39806597683972L12.551655165516541,24.180411170867817L12.698869886988689,25.05399918797792L15.534353435343524,23.480076643184578L16.92329232923291,23.755818112272404L17.806580658065794,22.281943357148098L19.029102910291016,21.33026926029631L19.52195219521951,19.800270135357668L29.33413341334132,20.385915733420305L42.02020202020201,20.46400181316199L53.34933493349333,20.293188513727053L59.60916091609159,20.073571414453564L61.42694269426941,24.2316551606983Z" fill="#0C4D82"></path>
</svg>