<?xml version="1.0" standalone="no"?>
<!DOCTYPE svg PUBLIC "-//W3C//DTD SVG 1.1//EN" "http://www.w3.org/Graphics/SVG/1.1/DTD/svg11.dtd">
<svg version="1.1" xmlns="http://www.w3.org/2000/svg" width="100" height="100" viewBox="0 0 64 64">
  <path d="M16.417641764176427,17.870321566527416L31.465546554655475,18.005858050301732L39.984798479847996,17.9115718007196L40.21522152215223,18.397735275127474L43.86998699869988,20.033012416317607L44.45244524452446,19.15497171708399L48.40164016401641,18.960506327320836L49.67536753675368,19.83854702655446L51.44194419441945,20.168548900091928L53.34293429342935,22.183917484910037L54.96869686968698,22.38722221057151L54.90469046904691,23.739640603015243L55.595959595959606,24.80036091081425L56.27442744274428,26.97189109650277L57.5929592959296,28.804580072755495L57.26652665266528,29.977265301933283L57.637763776377646,31.479952404648543L58.64266426642665,31.992633886751396L59.00110011001101,34.67979199984221L59.88438843884389,37.496593706108456L59.385138513851395,38.963923465230415L60.14681468146816,39.66517744649754L61.47174717471748,42.750105675012975L62.566256625662575,43.48966344517284L64,45.79083722403679L49.905790579057914,46.40075140102122L39.55595559555957,46.64235991557543L26.197819781978207,46.721913938660364L14.292629262926301,46.53334143949609L14.516651665166524,36.95739421631063L7.105427357601002e-15,36.444712734207776L0.9152915291529224,17.26924672544131L9.780178017801788,17.66996328616538Z" fill="#0C4D82"></path>
</svg>