<?xml version="1.0" standalone="no"?>
<!DOCTYPE svg PUBLIC "-//W3C//DTD SVG 1.1//EN" "http://www.w3.org/Graphics/SVG/1.1/DTD/svg11.dtd">
<svg version="1.1" xmlns="http://www.w3.org/2000/svg" width="100" height="100" viewBox="0 0 64 64">
  <path d="M38.72962677200436,51.544354435443545L39.2288622158822,50.66746674667467L40.38145948228474,50.526652665266525L38.850247416162766,52.24202420242024ZM39.49355751834093,50.48184818481848L39.64433332353893,49.36813681368137L40.73662026786227,49.16331633163317L40.7165168271692,50.033803380338036ZM44.64338890921506,42.10981098109811L45.11246919205331,42.0970097009701L42.33819437640999,47.211121112111215L43.41037788004026,44.644464446444644L44.19441206706989,43.729172917291734ZM19.15222611040541,52.97809780978098L17.202192363177858,50.71227122712271L15.681032017402414,49.89298929892989L15.754744633276996,47.7935793579358L16.3712501478644,46.980698069806984L15.258859762847996,45.42534253425343L16.920744193474913,43.22352235223522L17.306060140092043,41.94339433943395L20.1808521592007,39.92079207920793L23.916741554662423,38.85188518851885L24.02731047847429,37.0917091709171L24.60695968512441,36.88688868886889L28.2054755691835,33.872187218721876L29.482044053193288,33.56495649564957L30.457060926807063,32.37443744374438L32.28647402987621,31.900790079007905L31.37176747834164,30.121412141214122L29.924319748440773,29.148514851485153L28.92249828723624,27.47794779477948L27.947481413622462,26.805880588058812L27.45494711664231,25.288928892889295L25.50491336941476,24.591259125912593L25.39099387215404,21.43574357435744L24.77113778411779,20.76367636763677L22.844558051032152,20.3924392439244L22.680379952038766,17.46734673467347L23.327040627665774,15.188718871887197L24.11442538814425,15.259125912591266L25.772959245322326,12.737273727372745L24.097672520900026,10.029802980298037L24.265201193342257,9.492149214921497L26.30234985023977,8.27602760276028L27.297470164546613,6.394239423942402L28.356251374381504,5.702970297029708L29.612716417698227,3.6163616361636244L30.24262422608101,1.7409740974097474L31.69342252943072,0.33283328332834117L33.3151000786715,0.18561856185619519L39.4835057979944,4.051605160516061L48.73443909025431,9.332133213321335L48.26870938086492,11.533953395339537L47.263537346211535,14.260626062606264L46.385687102614256,15.77117711771178L45.460928830733145,18.267426742674274L43.98667651324152,18.734673467346738L44.9616933868553,16.238423842384243L42.94464817065086,18.805080508050807L42.448763300221856,20.968496849684975L41.75854516975987,21.18611861186119L41.379930370040434,22.831083108310835L42.723510323027114,23.95759575957596L44.227917801558334,23.70797079707971L46.89497426683863,24.840884088408842L45.584900048340394,26.031403140314033L47.33724996208612,25.660166016601664L46.43259513089808,27.292329232923294L47.374106270023404,26.799479947994804L47.431066018653766,27.637963796379644L45.69546897215227,36.31083108310831L45.07226231066717,41.84098409840985L45.40061850865394,37.6933693369337L45.28334843794438,36.656465646564655L46.037227463934414,33.942594259425945L45.26324499725131,35.382738273827385L43.98667651324152,35.856385638563864L44.79416471441307,36.37483748374838L44.8712279037365,37.539753975397545L43.035113653769656,42.461846184618466L43.79234325320854,43.53715371537154L41.9260738422021,45.098909890989106L40.11006303292833,47.20472047204721L40.9946144234233,47.9023902390239L38.50178777748293,47.563156315631566L38.689419890618225,50.96829682968297L37.965696025667796,50.05300530053005L37.074443488275136,51.64676467646765L38.116471830865805,51.723572357235724L38.74302906579974,52.51085108510851L36.193242671229,54.11101110111011L37.26542617485927,52.72847284728473L36.55510460370422,51.97319731973197L36.25690356675705,53.72697269726973L35.43601307179013,54.13021302130213L33.847841257037786,53.95099509950995L34.20970318951301,55.48074807480748L35.811277298060716,54.52065206520652L33.831088389793564,56.60726072607261L32.564571626130316,58.91789178917892L32.69524399063525,59.289128912891286L31.009905545866424,62.118211821182115L29.40498086386986,63.71197119711971L27.190251814183586,63.71197119711971L27.7699010208337,61.433343334333436L28.66115355822636,59.717971797179715L28.69465929271481,57.51615161516152L26.037654547781045,56.97209720972097L26.081212002616027,56.402440244024405L24.402574704744886,56.51125112511251L23.779368043259794,57.362536253625365L23.132707367632786,55.90319031903191L20.72029448446468,54.44384438443844L19.942961444332735,53.15091509150915Z" fill="#0C4D82"></path>
</svg>