<?xml version="1.0" standalone="no"?>
<!DOCTYPE svg PUBLIC "-//W3C//DTD SVG 1.1//EN" "http://www.w3.org/Graphics/SVG/1.1/DTD/svg11.dtd">
<svg version="1.1" xmlns="http://www.w3.org/2000/svg" width="100" height="100" viewBox="0 0 64 64">
  <path d="M45.847784778477845,54.76679189383546L45.598159815981596,55.8219634524812L44.44604460446044,56.4228250344878L44.84928492849284,55.00615951593565ZM60.9020902090209,49.036624123967634L60.23002300230022,49.26133658553108L57.94499449944994,51.75759893029021L58.85388538853885,51.95788612429241L59.852385238523844,50.81966865593844L62.05420542054205,50.844093923499685L59.34673467346734,52.35357545878456L56.2040204020402,53.467367659577285L52.79247924792479,53.98518333187565L50.61626162616261,55.0012744624234L46.4110411041104,55.58259583038101L46.19341934193419,54.85472285705594L47.22392239223922,53.23288509098934L48.33123312331232,53.17426444884236L48.83048304830483,52.373115672833556L50.6994699469947,51.52800141521452L52.86288628862886,51.92857580321892L53.36853685368536,51.26420852555308L57.64416441644164,51.044381117501885L59.91639163916391,49.285761853092325ZM49.272127212721266,51.22512809745509L48.139213921392134,52.95443704079116L47.3071307130713,53.066793271572884L46.391839183918385,54.21478084695135L47.26872687268727,50.99064552886715L40.97049704970497,47.22426927092334L40.47764776477647,46.3596147992553L38.48064806480647,45.783178484809945L37.738173817381735,44.38605318030679L37.859785978597856,42.69093961155646L37.437343734373435,41.865365567986416L36.27882788278828,41.63088299939848L35.465946594659464,40.1311715711381L25.288928892889285,39.93576943064815L16.25122512251225,39.66220643396221L8.749674967496748,39.3202526881048L0,38.80243701580643L0.1856185618561856,35.88117501548166L5.248524852485248,33.12600483457334L6.1638163816381635,31.680028994947698L7.674367436743673,30.8691101119144L7.194319431943193,28.58290506818197L7.373537353735372,27.664515007879196L6.247024702470246,27.386066957681017L6.483848384838483,25.568827051124465L10.657065706570656,24.528310653015474L14.06220622062206,24.645551937309445L17.08970897089709,25.358769750097768L18.165016501650165,26.272274756888294L19.592359235923592,25.94986122507987L23.14471447144714,26.101297883959585L24.303230323032302,25.75445908458992L27.41394139413941,23.517104575979978L28.796479647964794,23.482909201394236L29.148514851485146,22.320266465479023L28.91169116911691,20.493256451897977L28.38043804380438,20.131762491991566L29.72457245724572,19.53578596349722L29.28292829282928,18.41710870919224L28.546854685468546,18.27055710382478L27.66356635663566,17.15187984951981L29.55175517551755,15.3786054245735L31.5039503950395,14.474870524807471L32.66246624662466,12.901883293863364L36.25962596259625,9.482345835289216L38.84548454845484,7.919128711369602L41.06650665066506,7.757921945465391L45.18211821182118,7.850737962198117L51.34593459345934,7.59671517956118L51.083508350835075,9.443265407191227L51.435543554355434,9.824299581146626L51.03870387038703,11.856481842242125L51.69796979697969,13.116825648402312L51.6019601960196,15.881765936335121L50.73787378737873,18.060499802798084L51.44834483448344,20.981761803122858L50.85948594859485,22.476588177870987L52.280428042804274,23.346127703051266L52.14601460146014,31.02543182430636L52.26122612261226,32.06594822241535L50.39223922392239,39.20789645732307L50.56505650565056,39.608470845327474L50.123412341234115,47.7616251572707L50.69306930693069,48.65070489649998L48.7024702470247,49.87196827456218Z" fill="#0C4D82"></path>
</svg>