<?xml version="1.0" standalone="no"?>
<!DOCTYPE svg PUBLIC "-//W3C//DTD SVG 1.1//EN" "http://www.w3.org/Graphics/SVG/1.1/DTD/svg11.dtd">
<svg version="1.1" xmlns="http://www.w3.org/2000/svg" width="100" height="100" viewBox="0 0 64 64">
  <path d="M61.01212224248272,0.0896089608961077L61.55600716276971,23.855185518551863L59.5578212599762,24.89848984898491L60.556914211372955,26.6906690669067L60.58647317443203,29.538953895389547L59.238584458938185,32.48324832483249L58.62375802730941,36.893289328932894L57.16945704480289,39.38313831383139L57.66604762419536,40.40084008400841L57.08078015562566,41.975397539753985L56.353629664372406,42.167416741674174L54.06576592359995,44.41404140414042L53.598734307266554,45.25892589258926L50.14624742196652,47.18551855185519L49.312684663700594,45.98219821982198L47.76379499940503,47.16631663166317L47.633735561945095,48.414441444144416L46.04937514197864,48.459245924592466L44.9793406792401,50.10421042104211L45.16260625020637,51.58275827582759L44.228543017539586,51.88358835883589L44.87884020483925,52.93969396939694L44.95569350879284,54.674267426742674L44.09257178746784,54.296629662966296L43.11712600651834,55.58955895589559L42.49047598966594,53.50295029502951L41.10120472588938,52.914091409140916L39.61143298771197,55.250325032503255L39.635080158159234,56.24242424242424L38.69510513288063,56.933693369336936L39.26263722361488,59.941994199419945L38.99069476347138,60.62046204620462L37.625070670142094,60.82528252825283L37.17577443164414,63.17431743174318L34.284907844466545,63.95519551955196L33.504551219706954,63.89118911891189L33.055254981209,62.75827582758276L31.50636531691344,61.24132413241324L29.84515159299339,60.64606460646065L29.24806053920006,57.733773377337734L27.178933125064766,58.32903290329033L25.482248645473828,60.127612761276126L23.60229859491662,60.51805180518052L22.50861696173082,59.404340434043405L20.356724451030114,58.60426042604261L18.81374657934637,59.161116111611165L18.328979585177528,59.92919291929193L17.046120588413643,59.48114811481148L15.64502573941346,57.554555455545554L14.444931839214991,57.055305530553056L13.108866708944774,57.26652665266527L10.886032686902286,56.65846584658466L10.501766167134305,55.02630263026303L8.994259051121446,52.42764276427643L7.847371284429313,52.03720372037204L7.303486364142322,50.89148914891489L5.405800935749667,51.70437043704371L3.5199390925806426,50.334633463346336L2.44399283723029,51.05790579057906L2.8519065274455335,38.68546854685469L3.2420848398253317,29.615761576157624L3.490380129521567,20.974897489748983L3.86282306406592,4.902890289028917L10.064293513859985,4.858085808580874L21.716436751747594,4.589258925892601L21.592289106899475,5.133313331333149L23.51362170573939,5.0885088508851055L24.902892969515946,6.221422142214237L27.04296189499302,7.0407040704070525L28.420409573545943,8.37843784378439L29.63823885157986,8.269626962696286L30.211682734925926,7.245524552455258L31.11618700453364,8.756075607560767L28.538645425782246,8.992899289929007L28.03614305377796,9.511351135113522L28.976118079056565,10.221822182218233L30.50136057290487,9.248924892489264L31.985220518470463,9.447344734473461L34.47999700065645,10.89388938893891L36.495918281285405,10.087408740874103L37.95613105640374,9.972197219721984L41.20170520029024,8.512851285128527L43.02844911734111,9.076107610761092L44.79016331566202,8.992899289929007L46.35087656518122,7.962396239623978L48.83382946214356,5.600560056005612L50.891133291055226,4.006800680068018L51.7424314271566,3.859585958595872L54.62147442911057,2.3362336233623537Z" fill="#0C4D82"></path>
</svg>