<?xml version="1.0" standalone="no"?>
<!DOCTYPE svg PUBLIC "-//W3C//DTD SVG 1.1//EN" "http://www.w3.org/Graphics/SVG/1.1/DTD/svg11.dtd">
<svg version="1.1" xmlns="http://www.w3.org/2000/svg" width="100" height="100" viewBox="0 0 64 64">
  <path d="M21.53815381538153,17.002079236188127L34.75547554755475,17.21009915221452L47.88318831883188,17.12184827874878L61.91339133913391,16.76884478488581L62.07340734073407,21.357890205104386L63.82718271827182,31.424793414017937L63.99999999999999,47.546336906063274L61.06850685068506,46.663828171405854L60.22362236223622,45.617424957454915L58.284228422842276,44.75067530734495L57.84258425842584,45.53232590089866L55.762376237623755,45.49450409798477L55.41674167416741,45.01227611083269L53.63736373637363,46.0334647895077L52.83088308830882,45.573299520722045L50.117011701170114,46.73316814341465L49.61776177617761,47.45493421568804L49.1057105710571,46.66067635449637L47.518351835183516,46.03661660641719L46.43024302430243,46.17214473352529L45.42534253425342,45.19508149158315L43.36433643364336,47.073564369639655L43.31313131313131,45.68361311255422L41.834583458345826,46.351798297366265L39.41514151415141,44.82316709626324L38.3078307830783,46.008250254231776L37.149314931493144,45.63633585891186L37.443744374437436,44.801104377896806L36.4004400440044,44.68763896915514L36.2084208420842,43.30714316279818L34.25622562256225,43.2630177260653L33.34733473347334,44.129767376175266L32.43844384438443,43.222044106241924L30.409440944094403,43.30714316279818L29.78857885788578,42.73351248527085L27.970797079707964,42.692538865447474L27.804380438043797,41.53267024275487L26.581858185818575,40.4263825075236L26.39623962396239,41.1796667488919L25.020102010201015,40.788841452115044L24.13681368136813,41.12608586143055L22.44704470447044,39.332702039930304L21.858185818581852,39.41464927957706L22.21662166216621,21.62894645932059L13.25572557255725,21.392560191108785L-7.105427357601002e-15,20.818929513581462L0.23682368236822973,16.24249136100085L7.52715271527152,16.64592392541567Z" fill="#0C4D82"></path>
</svg>