<?xml version="1.0" standalone="no"?>
<!DOCTYPE svg PUBLIC "-//W3C//DTD SVG 1.1//EN" "http://www.w3.org/Graphics/SVG/1.1/DTD/svg11.dtd">
<svg version="1.1" xmlns="http://www.w3.org/2000/svg" width="100" height="100" viewBox="0 0 64 64">
  <path d="M28.41318975004194,58.31623162316232L29.171652874368572,59.1995199519952L28.523357578156425,60.88928892889289L28.637762630429158,61.9005900590059L29.637747531776,62.655865586558654L29.56571472108576,63.494349434943494L26.59965781031123,63.974397439743974L25.93865084162433,63.078307830783075L27.057278019402155,60.21722172217222L27.66743829819006,61.382138213821385L28.328445266876955,60.86368636863686L27.98099288590051,58.00900090009001ZM39.696917683459915,38.78787878787879L40.12911454760135,39.54315431543155L39.06557128388077,39.965596559655964L37.701185104924484,41.85378537853786L37.98931634768544,40.63126312631263L37.71389677739923,38.621462146214625L38.84099840349356,37.62296229622963L38.196940331439656,36.97009700970097L38.53591826409961,33.987398739873996L39.26895804347674,32.68806880688069L39.730815476725915,33.02090209020902L39.99776059869562,37.64216421642165ZM47.78154137739965,27.90679067906791L46.641728078830575,28.649264926492656L46.38325740517737,31.823982398239828L46.790030924369304,32.44484448444845L46.739184234470315,35.49154915491549L47.17138109861175,36.003600360036L46.2052939905309,38.46784678467847L46.5146113540831,39.843984398439844L45.2010718650258,38.87748774877488L44.616334931187396,39.55595559555956L43.40025159776984,39.18471847184719L43.404488821928084,40.298429842984305L42.57399288691121,41.62976297629763L41.96806983228156,40.970497049704974L40.171486789183845,41.7961796179618L39.7901366149414,40.82328232823282L41.21808115627143,39.42794279427943L41.20113225963843,40.26642664266427L42.26891274751726,39.63916391639164L41.96806983228156,36.944494449444946L42.56551843859472,36.44524452445245L42.62907680096846,34.64666466646665L44.688367741877634,30.159815981598165L44.730739983460126,29.04610461046105L45.951060541035936,27.874787478747876L46.65020252714707,27.91319131913192L47.55273127285418,26.70347034703471ZM41.0867272073657,26.88268826882689L40.802833188762996,27.78517851785179L42.27738719583377,28.43804380438044L43.00618975105265,30.294229422942294L42.230777730093024,31.996799679968L41.25621617369568,31.785578557855786L41.79858086595159,29.05250525052506L40.38334799709631,28.201220122012202L40.30284073808957,27.1963196319632ZM52.72638197007662,33.6033603360336L53.12044381679381,38.07740774077408L50.417094803830736,40.33683368336834L50.48489039036272,40.88088808880889L49.069657521507445,41.207320732073214L49.217960367046174,39.08870887088709L48.4128877769788,38.026202620262026L48.68407012310676,37.085308530853084L47.95103034372962,34.665866586658666L48.48068336351079,30.876687668766877L47.85781141224814,28.834883488348837L48.94677802091822,25.20572057205721L52.42130183068267,26.27462746274628L52.001816639015985,30.31983198319832L52.48909741721466,31.222322232223227ZM38.68422110963833,7.105427357601002e-15L38.679983885480084,9.22332233223323L41.040117741624954,8.832883288328837L41.1121505523152,11.661966196619666L40.60792087748352,14.311831183118315L40.92994991351048,16.155215521552158L41.99349317723106,17.678567856785683L45.332425813931536,19.56675667566757L47.21799056435249,22.415041504150416L46.38749462933562,23.471147114711478L46.28156402537938,22.25502550255026L45.213783537500554,21.646964696469652L46.73494701031206,25.000900090009004L45.8536043853962,26.018601860186024L45.37479805551403,27.580358035803584L44.07820746308973,24.66166616661667L43.133306475800126,27.061906190619062L42.87059857798867,25.500150015001502L43.58245223657456,24.264826482648267L44.03159799734899,22.07580758075808L43.76465287537928,19.310731073107313L43.59092668489106,22.184618461846192L41.0697783107327,21.53815381538154L39.413023664857214,18.581058105810584L39.53590316544644,17.736173617361743L38.13761919322417,15.06710671067107L39.328279181692224,13.287728772877294L38.78591448943631,11.796379637963803L38.701170006271326,13.818981898189826L37.544407811069256,14.81108110811082L38.65032331637234,16.609660966096612L38.311345383712386,18.798679867986806L38.921505662500294,20.17481748174818L38.281684814604645,20.718871887188726L39.540140389604694,22.485448544854492L39.68420601098517,24.06640664066407L38.75625392032857,25.820182018201827L38.268973142129894,24.040804080408044L37.64610119086724,24.501650165016507L34.93427772958766,24.36723672367237L35.45969352521058,25.92259225922593L36.30713835686045,25.57695769576958L37.16305763682682,26.21702170217022L37.56135670770226,29.506950695069513L36.79441913505913,30.339033903390344L37.480849448695515,31.471947194719476L35.09105502344289,32.323232323232325L36.17154718379648,33.92339233923393L36.841028600799866,35.94599459945995L36.52323678893117,38.10941094109411L36.58679515130491,40.29202920292029L35.917313734301516,42.103410341034106L34.599537021085965,43.02510251025103L34.77750043573244,44.73407340734074L33.05295020332496,47.524752475247524L33.33260699776942,48.31843184318432L31.497888937247456,47.281528152815284L32.290249854840084,44.18361836183618L31.836866869907404,44.260426042604266L31.006370934890533,47.140714071407146L29.468258565446025,47.275127512751276L25.514928425799397,48.20962096209621L21.900576218812716,49.53455345534554L20.197212107196485,50.520252025202524L18.281986787667783,50.96829682968297L17.527760887499404,50.62906290629063L13.616802989435268,51.608360836083605L12.341398517802217,52.376437643764376L10.896505079839194,52.024402440244025L12.307500724536222,51.845184518451845L14.015102060310705,49.5921592159216L13.481211816371289,48.36963696369637L13.964255370411713,46.91029102910291L13.248164487667575,44.983698369836986L14.447298924452136,44.01080108010801L15.748126741034682,44.1900190019002L16.379473140613833,26.607460746074608L15.930327379839405,9.306530653065309L15.807447879250173,0.7616761676167698L17.59555647403139,0.6464646464646506L30.620783536489846,0.2816281628162898L32.24364038909934,0.12161216121612739Z" fill="#0C4D82"></path>
</svg>