<?xml version="1.0" standalone="no"?>
<!DOCTYPE svg PUBLIC "-//W3C//DTD SVG 1.1//EN" "http://www.w3.org/Graphics/SVG/1.1/DTD/svg11.dtd">
<svg version="1.1" xmlns="http://www.w3.org/2000/svg" width="100" height="100" viewBox="0 0 64 64">
  <path d="M34.953895389538935,53.81558387972683L35.7091709170917,54.700172186580865L33.78257825782577,56.39776361938745L34.160216021602146,54.597907642435885ZM35.92679267926791,50.15451319933672L37.2133213321332,50.28234387951794L38.58945894589457,51.59133004457362L37.15571557155714,52.450352215391405L37.43094309430941,52.82361780152057L36.029202920292015,53.9076219694573ZM34.68506850685067,49.535812707259616L35.5171517151715,49.801700522036555L35.76677667766775,53.33494052224545L34.39063906390638,52.15378503737098L33.78257825782577,50.55334492150212ZM48.03040304030401,44.45326486325435L48.056005600560034,45.0873050369532L45.62376237623761,46.73887742489455L44.90689068906889,48.185920724545944L42.84588458845883,48.73303603572156L40.34323432343233,50.43062746852815L39.20392039203919,49.35684975500591L39.08230823082307,50.20053224420195L37.55895589558954,49.663643387440835L37.18771877187717,50.077814791227986L34.531453145314515,49.3977555726639L33.53935393539352,50.323249697175925L34.409840984098395,53.974093923151536L34.07060706070605,55.150136180818755L32.35523552355234,56.8221614775891L30.68466846684667,56.78636888713836L29.60296029602959,56.28015939362073L29.06530653065305,54.26554787396472L29.449344934493435,52.76737230224083L28.418841884188407,51.38168772907642L28.655665566556642,50.70674173771958L26.037803780378024,48.70235667247807L25.500150015001488,44.83164367659076L24.418441844184404,43.159618379820415L24.559255925592545,41.993802576567695L20.904490449044893,39.5190006082593L20.846884688468833,38.60373293816177L18.478647864786467,36.2056293779621L18.92029202920291,35.004020984258645L17.14091409140913,32.97406978298089L15.156715671567145,31.920744978287644L14.164616461646155,29.630019189440198L13.172517251725163,28.5920340663687L10.401040104010391,26.730819362930152L9.908190819081899,25.442286106703463L8.295229522952287,23.468580404705442L7.834383438343825,21.448855657842188L6.752675267526744,20.160322401615495L5.901390139013893,18.033219883400015L4.563656365636556,18.207069608446474L0.21122112211220406,14.806773515626048L0.42884288428842166,13.052936583539726L3.0851085108510774,10.71619174982704L3.3603360336033523,9.724225671620779L8.416841684168407,8.318088189627375L10.823482348234814,7.239197248897888L14.305430543054294,6.702308392136764L30.767876787678752,7.622689289441539L30.665466546654653,9.299827813419135L32.067206720672054,8.292522053591128L34.08980898089808,11.069004427127204L33.88498849884987,12.90976622173676L48.74727472747273,13.042710129125226L63.667166716671645,27.61029444257694L63.967996799679945,28.121617163301813L61.72777277727771,29.0010922429486L59.993199319931975,30.37143713449127L56.95929592959294,34.11943267740461L56.30643064306429,35.35172043435156L55.736773677367715,37.87765467473245L55.4167416741674,37.04931186715815L54.4246424642464,37.565747815090276L55.29512951295128,37.96457953725567L55.60876087608759,39.161074703751886L54.891889188918874,39.902492648802955L52.56845684568455,40.87911904538747L52.5236523652365,41.69212217134002L51.13471347134711,41.354649175661606Z" fill="#0C4D82"></path>
</svg>