<?xml version="1.0" standalone="no"?>
<!DOCTYPE svg PUBLIC "-//W3C//DTD SVG 1.1//EN" "http://www.w3.org/Graphics/SVG/1.1/DTD/svg11.dtd">
<svg version="1.1" xmlns="http://www.w3.org/2000/svg" width="100" height="100" viewBox="0 0 64 64">
  <path d="M15.879987998799878,12.69012558371574L25.666566656665665,12.90867545363973L33.174517451745174,12.976227231616235L45.96299629962996,12.9245699896342L51.39713971397139,12.817281871671511L61.343734373437336,12.471575713791744L61.28612861286128,13.67161318137439L59.180318031803175,16.290237986463666L60.62686268626862,18.48368395370081L62.29742974297429,19.095623589487985L62.540654065406535,19.663853251290362L63.443144314431436,40.21548829214275L62.23342334233423,40.267145534124786L62.911891189118904,41.459235733710194L62.611061106110604,43.295054641071715L63.39833983398339,43.42618456302611L63.76317631763175,44.55469661863363L63.19351935193519,45.37326522234894L63.001500150015,47.65810477155431L62.31663166316631,48.70714414718946L63.16791679167916,49.84757710479283L63.750375037503744,51.866183176090786L62.483048304830476,51.544318822202726L61.8045804580458,50.00254883073894L59.372337233723364,48.83827406914386L58.105010501050096,48.754827755172876L57.144914491449136,47.84883920348797L55.67276727672767,47.75744562151976L53.44534453445344,48.238255335352534L51.88358835883588,47.9442064194548L51.192319231923186,48.997219429088574L46.82708270827082,47.054112403764364L46.55185518551855,46.47396183996614L37.917391739173915,46.58919722592606L28.182018201820178,46.56932905593297L19.605160516051605,46.45409366997305L4.595659565956595,45.93354761615409L0,45.67526140624391L1.1009100910091008,22.942101300150227L1.248124812481248,22.942101300150227L1.7409740974097407,12.133816823909214Z" fill="#0C4D82"></path>
</svg>