<?xml version="1.0" standalone="no"?>
<!DOCTYPE svg PUBLIC "-//W3C//DTD SVG 1.1//EN" "http://www.w3.org/Graphics/SVG/1.1/DTD/svg11.dtd">
<svg version="1.1" xmlns="http://www.w3.org/2000/svg" width="100" height="100" viewBox="0 0 64 64">
  <path d="M22.627051206695146,2.0802080208020755L23.24773676830209,2.7074707470747086L21.952652471487603,4.518851885188518L22.23912273069081,5.402140214021401L21.290189997080194,6.6822682268226785L21.707959125084866,6.931893189318927L23.659537765906695,5.805380538053804L26.65553922674021,7.6743674367436725L28.356456390759234,8.10961096109611L29.275548472369515,10.413841384138415L39.25426250128113,13.134113411341133L41.951857442111304,14.747074707470745L43.90343608293314,15.175917591759173L44.69719742614201,14.689468946894685L45.85501472375496,15.31033103310331L47.49625058377332,15.438343834383438L48.99425131419008,16.1040104010401L48.62422722938594,17.435343534353436L51.18455517101458,18.286628662866285L52.145424165425325,19.374737473747373L51.68587812462019,20.872487248724873L52.09767912222479,21.81338133813381L51.21439582301491,23.83598359835983L53.58971172224149,23.983198319831985L52.71836468383174,25.999399939994L54.29395110944937,27.4971497149715L53.91795889424516,28.93729372937294L52.10364725262485,29.42374237423742L51.99025277502359,30.294229422942294L50.50418830540697,32.73287328732873L50.34304878460517,35.24832483248325L51.10100134541365,35.29312931293129L51.81120886302159,34.0962096209621L52.70046029263153,33.75697569756976L54.168620371047965,30.97909790979098L56.11423088146972,29.96779677967797L57.70175356788748,26.812281228122814L58.85957086550043,25.864986498649863L59.30121251510536,24.456845684568457L59.68914099110971,25.28252825282528L59.61155529590884,27.221922192219218L58.907315908700966,27.599559955995595L58.17323586949276,30.33263326332633L57.55255030788581,30.761476147614758L55.98293201266826,34.185818581858186L55.045935539857766,38.07740774077408L55.43983214626218,39.415141514151415L55.15336188705898,40.43284328432843L54.10893906704729,41.23932393239323L53.303241463038276,44.35643564356435L53.709074330242814,47.1023102310231L52.93918550863421,48.651265126512655L52.76610972703227,50.20662066206621L51.763463819821055,53.157315731573156L52.3125318166272,55.72397239723972L52.04396594862419,56.594459445944594L52.56916142383007,58.329032903290326L53.50018976624048,59.74997499749975L52.93918550863421,62.105410541054106L53.14210194223648,63.77597759775978L43.09773847892413,64L23.81470915630843,63.83998399839984L23.194023594701488,62.12461246124612L20.63966378347292,61.324532453245325L19.583304702661103,60.57565756575657L19.12972679225603,58.54665466546655L18.688085142651087,58.22662266226622L18.419519274648085,55.026302630263025L19.64298600666177,53.37493749374937L18.16885779784528,52.018001800180016L17.93013258184261,48.74727472747274L17.566076627438537,48.28002800280028L17.85851501704181,46.1038103810381L15.924840767420179,42.87788778877888L14.504425732204291,42.49384938493849L13.155628261789204,41.047304730473044L11.603914357771847,39.98479847984798L11.126463925766506,38.11581158115811L9.81347523775182,37.12371237123712L8.23192068173413,36.57325732573257L7.092007775321379,34.93469346934693L5.009130265698081,34.69146914691469L2.550260540870577,31.81118111811181L2.9799659296753838,30.889488948894886L3.367894405679723,27.02350235023502L3.236595536878254,24.597659765976594L4.448126008091806,22.479047904790477L3.260468058478521,20.667666766676668L2.1921727168665717,20.53965396539654L2.3950891504688414,18.56185618561856L4.740564397695077,15.617561756175618L7.593330728926986,14.548654865486547L8.160303116933328,13.75497549754975L8.416932724136199,5.491749174917487L9.276343501745812,5.683768376837683L10.302861930557293,4.416441644164415L11.210017751367442,5.357335733573358L12.964648088987069,5.286928692869282L17.339287672236,3.9235923592359185L18.932778489053824,2.8802880288028803L19.189408096256695,3.2579257925792575L21.176795519478926,1.8881888188818863Z" fill="#0C4D82"></path>
</svg>