<?xml version="1.0" standalone="no"?>
<!DOCTYPE svg PUBLIC "-//W3C//DTD SVG 1.1//EN" "http://www.w3.org/Graphics/SVG/1.1/DTD/svg11.dtd">
<svg version="1.1" xmlns="http://www.w3.org/2000/svg" width="100" height="100" viewBox="0 0 64 64">
  <path d="M28.233223322332226,3.7651165354063423L28.05400540054005,18.86677152920847L41.39293929392939,18.946075043804576L41.25852585258525,27.47686739964329L44.19001900190018,24.967477616352085L46.07180718071807,23.732608603355516L46.155015501550146,23.02454150874739L47.94079407940794,23.602324257947622L50.110611061106106,20.770055879515112L51.92839283928392,21.987931282241092L54.379837983798375,22.20318367900196L54.74467446744674,20.594455240052298L55.749574957495746,20.163950446530556L56.850485048504844,20.509487188699325L57.932193219321924,19.234966418404696L58.89868986898689,19.438889741651835L60.23002300230022,20.77572041627198L62.46384638463846,20.753062269244516L62.04140414041404,22.11255109089212L63.18711871187118,22.996218824963066L63.76957695769576,25.533931292038588L62.649464946494646,28.49648401587899L55.883988398839875,23.07552233955917L55.999199919991995,24.93915493256776L55.00070007000699,26.54788337151743L55.218321832183214,28.031992001816057L51.21792179217921,32.42767252514331L50.32823282328232,32.72222843650029L49.26572657265726,34.784119815999155L47.64636463646364,33.35099201651231L44.91329132913291,38.76628915607526L43.51795179517951,40.62992174908385L41.39293929392939,39.8765383604208L40.618461846184616,38.341448899310386L39.17191719171917,37.65603995172972L38.62146214621462,40.30137861718568L37.05330533053305,42.34061184965708L37.34773477347734,42.884407378316126L35.593959395939585,44.41949683942654L34.5058505850585,47.54632112921603L32.39363936393639,49.483592700063866L30.61426142614261,52.50279079147292L31.593559355935586,53.57338823852041L30.16621662166216,54.609998465026706L30.53745374537453,55.544647029909434L28.201220122012195,56.93245853534136L27.740374037403733,55.95815821316058L24.29682968296829,57.72549368130246L23.131913191319125,56.76252243263541L23.240724072407236,58.12767579103988L21.883788378837878,58.9660272310559L19.85478547854785,59.16995055430304L18.241824182418235,59.900675795938625L16.462446244624456,58.16166301158107L15.72637263726372,59.20393777484423L13.780578057805775,60.27453522189172L12.302030203020296,60.31985151594664L10.785078507850779,58.915046400244115L9.940194019401934,58.835742885648L8.890489048904884,57.300653424537586L8.928892889288923,56.3433467126274L8.135213521352128,55.65793776504673L8.871287128712865,55.0971486261171L6.47744774477447,54.37775245799524L6.330233023302323,53.66968536338711L4.390839083908384,52.38383551957875L4.141214121412134,50.79776522765655L1.7153715371537084,47.84087704057301L2.1122112211221054,47.484011224890516L1.1777177717771707,45.631707705395655L0.0704070407040633,44.38550961888535L0.9472947294729402,42.38592814371201L0.768076807680761,39.768912162040365L1.6513651365136444,40.057803536640485L4.410041004100403,39.33840736851863L4.851685168516845,37.2538578419923L6.125412541254119,37.10657988631381L6.400640064006394,36.48348084305866L5.933393339333927,33.71352236895167L6.855085508550848,33.067765178669056L6.867886788678861,32.14444568730006L8.32723272327232,30.02024440347568L9.543354335433536,30.57536900564845L10.113011301130106,32.56928594406494L10.932293229322925,31.459036739719394L11.559555955595552,31.77058626134697L11.86678667866786,30.38277475591504L11.258725872587252,29.164899353189064L12.193219321932187,28.6890782656124L12.007600760076,27.53351276721194L12.980498049804973,26.094720430968223L14.4078407840784,26.179688482321197L14.625462546254619,25.03545205743447L15.783978397839777,23.981848220657575L16.897689768976893,24.98447122662268L19.029102910291023,24.276404132014555L22.67746774677467,20.60011977680916L23.503150315031498,20.367873769777695L24.072807280728068,18.8781006027222L23.669566956695665,17.960445648110067L25.096909690969092,15.694630945364061L25.8073807380738,11.621829017178115L27.151515151515145,8.931174057667235L27.241124112411235,6.455771494917222L26.33863386338633,4.586474365151766Z" fill="#0C4D82"></path>
</svg>