<?xml version="1.0" standalone="no"?>
<!DOCTYPE svg PUBLIC "-//W3C//DTD SVG 1.1//EN" "http://www.w3.org/Graphics/SVG/1.1/DTD/svg11.dtd">
<svg version="1.1" xmlns="http://www.w3.org/2000/svg" width="100" height="100" viewBox="0 0 64 64">
  <path d="M14.297698330469302,0.07040704070406179L18.264616699744895,0.14081408140813068L26.095416597535674,0.05120512051203718L26.553358112026363,20.456445644564447L41.20176230679728,32.707270727072704L57.34420069259406,46.12941294129413L57.41289191976767,46.99349934993499L58.431811789509446,48.02400240024002L59.33624628062856,49.73937393739374L60.55551556296002,50.648264826482645L59.02141148941621,52.24842484248425L58.523400092407584,53.41974197419742L58.80388927003313,55.96719671967197L57.73917524884228,57.09370937093709L58.24863518371317,59.53875387538754L59.08437844765868,59.525952595259525L59.542319962149364,60.78047804780478L58.16277114974616,61.76617661766176L44.292867529609424,64L42.798833338583556,59.87158715871587L41.77991346884177,58.61706170617062L38.122105621847396,55.877587758775874L37.14897990355468,56.28082808280828L35.64349717466654,54.079007900790074L33.39385948473103,54.130213021302126L31.768167108289084,53.45814581458146L31.418986703489935,52.683668366836685L29.52425368728471,51.665966596659665L27.234546114831264,51.44834483448345L24.601382406509803,51.58275827582758L23.593911074630288,50.6994699469947L23.75991487363316,48.785678567856785L23.513771309594418,46.82068206820682L22.099876883604416,46.09740974097409L22.4891271709215,45.52775277527752L20.58866988578514,43.53075307530753L19.907481882980242,43.319531953195316L17.49756466297299,39.71597159715971L16.478644793231208,38.97349734973497L16.05504889232732,37.091709170917085L16.89079215627283,36.55405540554055L17.085417299931372,35.51075107510751L16.301192456366067,34.36503650365036L15.345239544866754,34.51865186518651L13.725271437355941,32.88648864886488L13.118498930655779,30.659065906590655L13.13567173744918,28.88608860886088L13.805411202391811,29.9037903790379L15.574210302112098,31.17751775177517L13.942793656739019,27.305130513051296L15.202132821588412,27.100310031003097L13.244432847140718,26.620262026202617L13.336021150038855,28.578857885788572L10.857412702858003,27.09390939093909L11.469909478489297,26.754675467546747L9.872838446703021,24.284028402840278L8.790951618718768,23.48394839483948L6.672972114199332,20.821282128212815L6.947737022893746,20.277227722772267L6.2608247511577115,18.113811381138106L6.604280887025729,16.635263526352624L6.180684986121841,14.78547854785478L4.881275938754511,12.922892289228912L3.593315429249449,11.821982198219814L3.387241747728639,10.567456745674555L4.394713079608154,8.954495449544943L5.001485586308317,6.842284228422834L4.789687635856374,6.311031103110302L5.344941722176334,3.8211821182118086L4.680926526164836,-1.4210854715202004e-14Z" fill="#0C4D82"></path>
</svg>