<?xml version="1.0" standalone="no"?>
<!DOCTYPE svg PUBLIC "-//W3C//DTD SVG 1.1//EN" "http://www.w3.org/Graphics/SVG/1.1/DTD/svg11.dtd">
<svg version="1.1" xmlns="http://www.w3.org/2000/svg" width="100" height="100" viewBox="0 0 64 64">
  <path d="M21.598046720378882,39.06310631063218L23.378030088605545,40.91289128913003L22.513306307195744,41.29692969297041L21.508205288544097,39.57515751575269L20.07074237918755,39.13351335133625L18.82980760196959,36.509250925093625L19.475542893282103,36.394039403941505ZM20.17181399000168,35.779577957796896L19.402546729916338,35.721972197220836L18.34129481636795,33.83378337833895L18.28514392147121,32.899289928994015L19.61030504103428,33.16811681168228ZM54.31717317670939,29.44294429443056L60.07263990362526,35.241924192420356L42.72762847002221,52.59405940594171L31.514294759143198,63.87198719872098L29.88591880713773,64.00000000000111L29.049270473176303,63.366336633664474L28.381074823905095,61.887788778879L28.852742341037715,57.0873087308742L29.374945663577396,55.52555255525664L30.380046682229047,50.88508850885199L31.761358696688855,47.4863486348646L33.311123395838884,46.37903790379149L35.34940088059055,43.26832683268438L37.57859140799114,43.601160116012714L39.90885354620586,41.99459945994711L43.2273714346032,40.43924392439355L45.681165541590744,37.00210021002212L45.97876528454347,34.467446744675584L45.31618472476194,36.080408040805196L42.66024739614612,40.04880488048916L40.53774356904934,40.79767976797791L37.85373079298516,42.60266026602771L35.47293284936338,42.07140714071518L34.39483566734597,42.583458345835695L32.81699552074757,45.11811181118223L31.02578197354156,46.03340334033514L30.700106783140466,41.72577257725884L28.212622139214876,39.13351335133625L27.432124700150187,38.99909990999211L29.487247453370877,41.77697769777089L29.95329988101382,43.3899389939005L30.031911133869258,45.55335533553466L29.706235943468165,46.5838583858397L26.90430628812083,41.4889488948906L25.000790951121335,39.51755175517663L24.411206554705565,39.331933193320445L21.951797358228344,36.918891889190036L20.783858744376147,34.56985698569969L20.441338285506035,32.65606560656177L18.36937026381632,31.60636063606472L16.21879098927117,31.12631263126424L13.866068493097758,31.06230623062418L10.289256488175408,29.487748774878604L10.182569787871602,30.217421742175333L8.301514808830806,28.278027802781395L6.897742436412301,25.397739773978515L5.454664437566078,23.816781678168937L3.927360096374745,21.006900690070125L24.944640056224596,1.1226575225009583e-12L32.30040728769756,7.226322632264349L35.983905992923724,11.002700270028122Z" fill="#0C4D82"></path>
</svg>