<?xml version="1.0" standalone="no"?>
<!DOCTYPE svg PUBLIC "-//W3C//DTD SVG 1.1//EN" "http://www.w3.org/Graphics/SVG/1.1/DTD/svg11.dtd">
<svg version="1.1" xmlns="http://www.w3.org/2000/svg" width="100" height="100" viewBox="0 0 64 64">
  <path d="M41.6462803081894,1.4657465746574658L42.53966967052472,15.66876687668767L42.93156537593576,23.573557355735574L43.46294938327276,37.12371237123712L43.79838553790423,42.538653865386536L44.16371204294842,43.082708270827084L43.76517403744567,44.83008300830083L44.02754489106831,45.68136813681368L43.59247423506115,47.19191919191919L44.13714284258157,48.33763376337634L46.79406287926655,50.97469746974697L46.43869982435993,53.573357335733576L44.92757655349534,55.154315431543154L45.960454217756634,54.776677667766776L46.08001561940746,53.573357335733576L46.78409942912897,53.650165016501646L48.49449170274493,55.64716471647165L46.59147272646932,58.5978597859786L46.17632897073729,59.91639163916392L44.70838065046884,59.346734673467346L42.88839042533962,59.993199319931996L42.28726226703965,61.29252925292529L41.06840020021042,60.93409340934093L40.10526668691211,61.689368936893686L40.18829543805852,62.995099509951L39.035856372146405,62.873487348734876L38.162393910086216,64L25.239799081659648,63.58395839583958L17.112944919449465,63.21272127212721L15.654960049318582,61.202920292029205L15.395910345741797,60.07000700070007L16.109957605600886,57.426542654265425L17.438417623943376,56.24882488248825L17.05648536866991,55.19271927192719L17.62772317655718,54.533453345334536L17.30225047206327,53.054905490549054L17.677540427245024,50.20662066206621L18.39158768710411,48.79207920792079L18.05947268251849,47.58875887588759L18.69049119123117,44.42684268426842L18.71706039159802,42.51305130513052L19.66026700462119,41.73857385738574L20.09865881067421,39.47274727472747L21.85886833497801,37.68056805680568L22.519777194103398,34.82588258825882L23.931265963592296,32.867286728672866L23.46962610721828,32.17601760176018L24.98407052812872,30.108610861086106L24.376300069737027,27.375537553755372L24.35637316946189,25.3977397739774L24.980749378082862,24.18801880188019L28.853210331551217,23.336733673367334L28.82664113118437,22.69026902690269L30.580208355396458,22.011801180118013L31.792428122133977,20.456445644564454L32.6326790837356,20.11721172117212L32.63600023378146,18.427442744274423L33.69876824845545,17.72337233723372L33.466287745245516,16.590459045904588L32.05147782571076,13.697369736973698L34.429421258543826,9.690569056905687L33.62238179740076,7.923992399239921L34.30653870684714,7.200720072007201L34.38292515790184,5.824582458245821L35.53536422381394,4.525252525252526L36.28262298413159,1.7793779377937753L38.03286905829782,0.13441344134412958L38.95946992109171,1.3377337733773373L40.699752545120376,1.4529452945294494L41.503470856217575,0Z" fill="#0C4D82"></path>
</svg>