<?xml version="1.0" standalone="no"?>
<!DOCTYPE svg PUBLIC "-//W3C//DTD SVG 1.1//EN" "http://www.w3.org/Graphics/SVG/1.1/DTD/svg11.dtd">
<svg version="1.1" xmlns="http://www.w3.org/2000/svg" width="100" height="100" viewBox="0 0 64 64">
  <path d="M18.645064506450648,24.398607481213993L18.613061306130614,24.67504999185735L29.154915491549154,24.63622379654227L33.43694369436943,24.90334802031001L37.28372837283729,24.852097442494106L42.82668266826683,25.05865280157032L49.06730673067307,25.060205849382925L61.90699069906991,24.539934832160878L64,24.288341086519168L63.38553855385538,26.124043601016066L62.2014201420142,27.190987448274413L61.35653565356536,28.863619942447983L60.04440444044404,28.56854085805339L57.15771577157716,30.412008611613302L56.94009400940094,29.525218310616914L55.62156215621562,30.874816859769034L54.93029302930293,30.82822542539094L54.3990399039904,32.26013550861102L52.574857485748566,32.740027282705384L50.7058705870587,34.27599156936988L48.676867686768674,34.33966652968661L46.88468846884689,35.74051565665463L46.31503150315031,37.23920679581665L44.8940894089409,37.47061091989451L44.695669566956695,39.61847604472464L36.09320932093209,39.76446253910933L25.92899289928993,39.66817357472794L15.719971997199721,39.365329251270325L15.73917391739174,39.47559564596515L7.13671367136714,39.248850665325094L0.006400640064009953,38.95221853311789L1.7345734573457379,37.87129725554612L1.273727372737277,36.64283643577705L2.0418041804180453,35.332064081940004L2.2210221022102243,34.036822206229L3.5715571557155745,33.350375073058416L2.893089308930896,32.763322999894434L4.819681968196822,31.556604849501802L4.723672367236727,30.279999547542033L5.7221722172217255,28.900893089950458L5.011701170117015,27.742319421748526L6.419841984198423,26.684693861365794L6.637463746374641,25.577370770979766L17.115311531153118,25.880215094437375L17.032103210321033,24.23553746089066Z" fill="#0C4D82"></path>
</svg>