<svg width="370" height="130" viewBox="0 0 370 130" fill="none" xmlns="http://www.w3.org/2000/svg">
<path d="M32.5078 117V105.578H38.9688V107.156H34.375V110.266H38.6797V111.828H34.375V115.414H38.9688V117H32.5078ZM41.25 117V104.844H43.0859V117H41.25ZM45.2031 112.742C45.2031 111.331 45.5547 110.221 46.2578 109.414C46.9609 108.607 47.9271 108.203 49.1562 108.203C50.2969 108.203 51.1979 108.549 51.8594 109.242C52.5208 109.935 52.8516 110.888 52.8516 112.102V113.094H47.0938C47.1198 113.932 47.3464 114.578 47.7734 115.031C48.2005 115.479 48.8021 115.703 49.5781 115.703C50.0885 115.703 50.5625 115.656 51 115.562C51.4427 115.464 51.9167 115.302 52.4219 115.078V116.57C51.974 116.784 51.5208 116.935 51.0625 117.023C50.6042 117.112 50.0807 117.156 49.4922 117.156C48.1484 117.156 47.0964 116.766 46.3359 115.984C45.5807 115.198 45.2031 114.117 45.2031 112.742ZM47.125 111.766H51.0469C51.0365 111.052 50.8646 110.513 50.5312 110.148C50.1979 109.779 49.7396 109.594 49.1562 109.594C48.5729 109.594 48.1042 109.779 47.75 110.148C47.401 110.518 47.1927 111.057 47.125 111.766ZM54.4219 112.727C54.4219 111.273 54.776 110.156 55.4844 109.375C56.1979 108.594 57.2266 108.203 58.5703 108.203C59.4818 108.203 60.3021 108.372 61.0312 108.711L60.4766 110.188C59.7005 109.885 59.0599 109.734 58.5547 109.734C57.0599 109.734 56.3125 110.727 56.3125 112.711C56.3125 113.68 56.4974 114.409 56.8672 114.898C57.2422 115.383 57.7891 115.625 58.5078 115.625C59.3255 115.625 60.099 115.422 60.8281 115.016V116.617C60.5 116.81 60.1484 116.948 59.7734 117.031C59.4036 117.115 58.9531 117.156 58.4219 117.156C57.1146 117.156 56.1198 116.776 55.4375 116.016C54.7604 115.25 54.4219 114.154 54.4219 112.727ZM61.8516 109.75V108.938L63.1172 108.266L63.7422 106.438H64.875V108.359H67.3359V109.75H64.875V114.375C64.875 114.818 64.9844 115.146 65.2031 115.359C65.4271 115.568 65.7188 115.672 66.0781 115.672C66.526 115.672 66.974 115.602 67.4219 115.461V116.844C67.2188 116.932 66.9557 117.005 66.6328 117.062C66.3151 117.125 65.9844 117.156 65.6406 117.156C63.901 117.156 63.0312 116.24 63.0312 114.406V109.75H61.8516ZM69.1562 117V108.359H70.5938L70.8359 109.883H70.9297C71.2161 109.367 71.5885 108.958 72.0469 108.656C72.5104 108.354 73.0078 108.203 73.5391 108.203C73.9089 108.203 74.2135 108.229 74.4531 108.281L74.2734 109.992C74.013 109.93 73.7422 109.898 73.4609 109.898C72.7266 109.898 72.1302 110.138 71.6719 110.617C71.2188 111.096 70.9922 111.719 70.9922 112.484V117H69.1562ZM75.5469 112.664C75.5469 111.263 75.9062 110.169 76.625 109.383C77.3438 108.596 78.3568 108.203 79.6641 108.203C80.9141 108.203 81.9036 108.607 82.6328 109.414C83.362 110.216 83.7266 111.299 83.7266 112.664C83.7266 114.076 83.3646 115.177 82.6406 115.969C81.9167 116.76 80.9089 117.156 79.6172 117.156C78.8099 117.156 78.0964 116.974 77.4766 116.609C76.8568 116.245 76.3802 115.721 76.0469 115.039C75.7135 114.357 75.5469 113.565 75.5469 112.664ZM77.4375 112.664C77.4375 114.659 78.1745 115.656 79.6484 115.656C81.1068 115.656 81.8359 114.659 81.8359 112.664C81.8359 110.69 81.1016 109.703 79.6328 109.703C78.862 109.703 78.3021 109.958 77.9531 110.469C77.6094 110.979 77.4375 111.711 77.4375 112.664ZM85.8438 117V108.359H87.2812L87.5391 109.492H87.6328C87.8932 109.081 88.263 108.763 88.7422 108.539C89.2214 108.315 89.7526 108.203 90.3359 108.203C92.4089 108.203 93.4453 109.258 93.4453 111.367V117H91.6016V111.688C91.6016 111.021 91.4661 110.523 91.1953 110.195C90.9297 109.867 90.5052 109.703 89.9219 109.703C89.1458 109.703 88.5781 109.932 88.2188 110.391C87.8594 110.849 87.6797 111.617 87.6797 112.695V117H85.8438ZM95.8906 106.07C95.8906 105.742 95.9792 105.49 96.1562 105.312C96.3385 105.135 96.5964 105.047 96.9297 105.047C97.2526 105.047 97.5026 105.135 97.6797 105.312C97.862 105.49 97.9531 105.742 97.9531 106.07C97.9531 106.383 97.862 106.63 97.6797 106.812C97.5026 106.99 97.2526 107.078 96.9297 107.078C96.5964 107.078 96.3385 106.99 96.1562 106.812C95.9792 106.63 95.8906 106.383 95.8906 106.07ZM96 117V108.359H97.8359V117H96ZM99.9531 112.727C99.9531 111.273 100.307 110.156 101.016 109.375C101.729 108.594 102.758 108.203 104.102 108.203C105.013 108.203 105.833 108.372 106.562 108.711L106.008 110.188C105.232 109.885 104.591 109.734 104.086 109.734C102.591 109.734 101.844 110.727 101.844 112.711C101.844 113.68 102.029 114.409 102.398 114.898C102.773 115.383 103.32 115.625 104.039 115.625C104.857 115.625 105.63 115.422 106.359 115.016V116.617C106.031 116.81 105.68 116.948 105.305 117.031C104.935 117.115 104.484 117.156 103.953 117.156C102.646 117.156 101.651 116.776 100.969 116.016C100.292 115.25 99.9531 114.154 99.9531 112.727ZM111.234 117L115.508 105.531H117.539L121.812 117H119.828L118.688 113.828H114.32L113.203 117H111.234ZM114.867 112.219H118.195L117.125 109.109C117.047 108.901 116.938 108.573 116.797 108.125C116.661 107.677 116.568 107.349 116.516 107.141C116.375 107.781 116.169 108.482 115.898 109.242L114.867 112.219ZM122.609 112.695C122.609 111.279 122.914 110.177 123.523 109.391C124.138 108.599 124.987 108.203 126.07 108.203C127.206 108.203 128.07 108.622 128.664 109.461H128.758C128.669 108.841 128.625 108.352 128.625 107.992V104.844H130.469V117H129.031L128.711 115.867H128.625C128.036 116.727 127.174 117.156 126.039 117.156C124.961 117.156 124.12 116.766 123.516 115.984C122.911 115.203 122.609 114.107 122.609 112.695ZM124.5 112.727C124.5 113.685 124.669 114.417 125.008 114.922C125.346 115.422 125.854 115.672 126.531 115.672C127.286 115.672 127.836 115.461 128.18 115.039C128.523 114.612 128.701 113.922 128.711 112.969V112.711C128.711 111.622 128.534 110.849 128.18 110.391C127.826 109.932 127.271 109.703 126.516 109.703C125.87 109.703 125.372 109.966 125.023 110.492C124.674 111.013 124.5 111.758 124.5 112.727ZM131.781 108.359H133.719L135.477 113.383C135.779 114.227 135.961 114.909 136.023 115.43H136.086C136.133 115.055 136.315 114.372 136.633 113.383L138.391 108.359H140.344L137.047 117H135.062L131.781 108.359ZM141.047 114.523C141.047 113.633 141.378 112.961 142.039 112.508C142.701 112.055 143.708 111.807 145.062 111.766L146.555 111.719V111.258C146.555 110.706 146.424 110.294 146.164 110.023C145.909 109.747 145.51 109.609 144.969 109.609C144.526 109.609 144.102 109.674 143.695 109.805C143.289 109.935 142.898 110.089 142.523 110.266L141.93 108.953C142.398 108.708 142.911 108.523 143.469 108.398C144.026 108.268 144.552 108.203 145.047 108.203C146.146 108.203 146.974 108.443 147.531 108.922C148.094 109.401 148.375 110.154 148.375 111.18V117H147.062L146.695 115.797H146.633C146.216 116.323 145.797 116.682 145.375 116.875C144.953 117.062 144.411 117.156 143.75 117.156C142.901 117.156 142.237 116.927 141.758 116.469C141.284 116.01 141.047 115.362 141.047 114.523ZM142.953 114.539C142.953 114.924 143.068 115.224 143.297 115.438C143.526 115.646 143.87 115.75 144.328 115.75C144.995 115.75 145.529 115.565 145.93 115.195C146.336 114.82 146.539 114.297 146.539 113.625V112.875L145.43 112.922C144.565 112.953 143.935 113.099 143.539 113.359C143.148 113.615 142.953 114.008 142.953 114.539ZM150.938 117V108.359H152.375L152.633 109.492H152.727C152.987 109.081 153.357 108.763 153.836 108.539C154.315 108.315 154.846 108.203 155.43 108.203C157.503 108.203 158.539 109.258 158.539 111.367V117H156.695V111.688C156.695 111.021 156.56 110.523 156.289 110.195C156.023 109.867 155.599 109.703 155.016 109.703C154.24 109.703 153.672 109.932 153.312 110.391C152.953 110.849 152.773 111.617 152.773 112.695V117H150.938ZM160.578 112.727C160.578 111.273 160.932 110.156 161.641 109.375C162.354 108.594 163.383 108.203 164.727 108.203C165.638 108.203 166.458 108.372 167.188 108.711L166.633 110.188C165.857 109.885 165.216 109.734 164.711 109.734C163.216 109.734 162.469 110.727 162.469 112.711C162.469 113.68 162.654 114.409 163.023 114.898C163.398 115.383 163.945 115.625 164.664 115.625C165.482 115.625 166.255 115.422 166.984 115.016V116.617C166.656 116.81 166.305 116.948 165.93 117.031C165.56 117.115 165.109 117.156 164.578 117.156C163.271 117.156 162.276 116.776 161.594 116.016C160.917 115.25 160.578 114.154 160.578 112.727ZM168.5 112.742C168.5 111.331 168.852 110.221 169.555 109.414C170.258 108.607 171.224 108.203 172.453 108.203C173.594 108.203 174.495 108.549 175.156 109.242C175.818 109.935 176.148 110.888 176.148 112.102V113.094H170.391C170.417 113.932 170.643 114.578 171.07 115.031C171.497 115.479 172.099 115.703 172.875 115.703C173.385 115.703 173.859 115.656 174.297 115.562C174.74 115.464 175.214 115.302 175.719 115.078V116.57C175.271 116.784 174.818 116.935 174.359 117.023C173.901 117.112 173.378 117.156 172.789 117.156C171.445 117.156 170.393 116.766 169.633 115.984C168.878 115.198 168.5 114.117 168.5 112.742ZM170.422 111.766H174.344C174.333 111.052 174.161 110.513 173.828 110.148C173.495 109.779 173.036 109.594 172.453 109.594C171.87 109.594 171.401 109.779 171.047 110.148C170.698 110.518 170.49 111.057 170.422 111.766ZM182.586 117V105.578H185.875C187.302 105.578 188.37 105.87 189.078 106.453C189.792 107.036 190.148 107.896 190.148 109.031C190.148 110.224 189.758 111.138 188.977 111.773C188.195 112.409 187.083 112.727 185.641 112.727H184.453V117H182.586ZM184.453 111.156H185.445C186.404 111.156 187.107 110.99 187.555 110.656C188.003 110.323 188.227 109.802 188.227 109.094C188.227 108.438 188.026 107.948 187.625 107.625C187.224 107.302 186.599 107.141 185.75 107.141H184.453V111.156ZM192.234 117V104.844H194.07V117H192.234ZM196.094 114.523C196.094 113.633 196.424 112.961 197.086 112.508C197.747 112.055 198.755 111.807 200.109 111.766L201.602 111.719V111.258C201.602 110.706 201.471 110.294 201.211 110.023C200.956 109.747 200.557 109.609 200.016 109.609C199.573 109.609 199.148 109.674 198.742 109.805C198.336 109.935 197.945 110.089 197.57 110.266L196.977 108.953C197.445 108.708 197.958 108.523 198.516 108.398C199.073 108.268 199.599 108.203 200.094 108.203C201.193 108.203 202.021 108.443 202.578 108.922C203.141 109.401 203.422 110.154 203.422 111.18V117H202.109L201.742 115.797H201.68C201.263 116.323 200.844 116.682 200.422 116.875C200 117.062 199.458 117.156 198.797 117.156C197.948 117.156 197.284 116.927 196.805 116.469C196.331 116.01 196.094 115.362 196.094 114.523ZM198 114.539C198 114.924 198.115 115.224 198.344 115.438C198.573 115.646 198.917 115.75 199.375 115.75C200.042 115.75 200.576 115.565 200.977 115.195C201.383 114.82 201.586 114.297 201.586 113.625V112.875L200.477 112.922C199.612 112.953 198.982 113.099 198.586 113.359C198.195 113.615 198 114.008 198 114.539ZM205.984 117V108.359H207.422L207.68 109.492H207.773C208.034 109.081 208.404 108.763 208.883 108.539C209.362 108.315 209.893 108.203 210.477 108.203C212.549 108.203 213.586 109.258 213.586 111.367V117H211.742V111.688C211.742 111.021 211.607 110.523 211.336 110.195C211.07 109.867 210.646 109.703 210.062 109.703C209.286 109.703 208.719 109.932 208.359 110.391C208 110.849 207.82 111.617 207.82 112.695V117H205.984ZM216.141 117V108.359H217.578L217.836 109.492H217.93C218.19 109.081 218.56 108.763 219.039 108.539C219.518 108.315 220.049 108.203 220.633 108.203C222.706 108.203 223.742 109.258 223.742 111.367V117H221.898V111.688C221.898 111.021 221.763 110.523 221.492 110.195C221.227 109.867 220.802 109.703 220.219 109.703C219.443 109.703 218.875 109.932 218.516 110.391C218.156 110.849 217.977 111.617 217.977 112.695V117H216.141ZM226.188 106.07C226.188 105.742 226.276 105.49 226.453 105.312C226.635 105.135 226.893 105.047 227.227 105.047C227.549 105.047 227.799 105.135 227.977 105.312C228.159 105.49 228.25 105.742 228.25 106.07C228.25 106.383 228.159 106.63 227.977 106.812C227.799 106.99 227.549 107.078 227.227 107.078C226.893 107.078 226.635 106.99 226.453 106.812C226.276 106.63 226.188 106.383 226.188 106.07ZM226.297 117V108.359H228.133V117H226.297ZM230.766 117V108.359H232.203L232.461 109.492H232.555C232.815 109.081 233.185 108.763 233.664 108.539C234.143 108.315 234.674 108.203 235.258 108.203C237.331 108.203 238.367 109.258 238.367 111.367V117H236.523V111.688C236.523 111.021 236.388 110.523 236.117 110.195C235.852 109.867 235.427 109.703 234.844 109.703C234.068 109.703 233.5 109.932 233.141 110.391C232.781 110.849 232.602 111.617 232.602 112.695V117H230.766ZM239.789 118.438C239.789 117.906 239.956 117.458 240.289 117.094C240.628 116.734 241.099 116.484 241.703 116.344C241.458 116.24 241.255 116.073 241.094 115.844C240.938 115.609 240.859 115.365 240.859 115.109C240.859 114.786 240.951 114.513 241.133 114.289C241.315 114.065 241.586 113.844 241.945 113.625C241.497 113.432 241.133 113.12 240.852 112.688C240.576 112.25 240.438 111.74 240.438 111.156C240.438 110.219 240.732 109.492 241.32 108.977C241.914 108.461 242.758 108.203 243.852 108.203C244.096 108.203 244.352 108.221 244.617 108.258C244.888 108.289 245.091 108.323 245.227 108.359H248.219V109.367L246.742 109.641C246.878 109.823 246.99 110.047 247.078 110.312C247.167 110.578 247.211 110.859 247.211 111.156C247.211 112.047 246.904 112.747 246.289 113.258C245.674 113.768 244.828 114.023 243.75 114.023C243.474 114.023 243.224 114.003 243 113.961C242.604 114.206 242.406 114.492 242.406 114.82C242.406 115.018 242.497 115.167 242.68 115.266C242.867 115.365 243.208 115.414 243.703 115.414H245.211C246.164 115.414 246.888 115.617 247.383 116.023C247.878 116.43 248.125 117.016 248.125 117.781C248.125 118.76 247.721 119.516 246.914 120.047C246.107 120.578 244.94 120.844 243.414 120.844C242.237 120.844 241.339 120.635 240.719 120.219C240.099 119.802 239.789 119.208 239.789 118.438ZM241.43 118.344C241.43 118.74 241.607 119.044 241.961 119.258C242.32 119.471 242.823 119.578 243.469 119.578C244.469 119.578 245.214 119.435 245.703 119.148C246.193 118.862 246.438 118.482 246.438 118.008C246.438 117.633 246.302 117.365 246.031 117.203C245.766 117.047 245.268 116.969 244.539 116.969H243.148C242.622 116.969 242.203 117.091 241.891 117.336C241.583 117.586 241.43 117.922 241.43 118.344ZM242.219 111.156C242.219 111.698 242.357 112.115 242.633 112.406C242.914 112.698 243.315 112.844 243.836 112.844C244.898 112.844 245.43 112.276 245.43 111.141C245.43 110.578 245.297 110.146 245.031 109.844C244.771 109.536 244.372 109.383 243.836 109.383C243.305 109.383 242.901 109.534 242.625 109.836C242.354 110.138 242.219 110.578 242.219 111.156ZM254.18 117V105.578H257.711C259.529 105.578 260.943 106.068 261.953 107.047C262.964 108.026 263.469 109.404 263.469 111.18C263.469 113.065 262.945 114.508 261.898 115.508C260.852 116.503 259.344 117 257.375 117H254.18ZM256.047 115.43H257.375C260.125 115.43 261.5 114.034 261.5 111.242C261.5 108.508 260.221 107.141 257.664 107.141H256.047V115.43ZM265.219 112.664C265.219 111.263 265.578 110.169 266.297 109.383C267.016 108.596 268.029 108.203 269.336 108.203C270.586 108.203 271.576 108.607 272.305 109.414C273.034 110.216 273.398 111.299 273.398 112.664C273.398 114.076 273.036 115.177 272.312 115.969C271.589 116.76 270.581 117.156 269.289 117.156C268.482 117.156 267.768 116.974 267.148 116.609C266.529 116.245 266.052 115.721 265.719 115.039C265.385 114.357 265.219 113.565 265.219 112.664ZM267.109 112.664C267.109 114.659 267.846 115.656 269.32 115.656C270.779 115.656 271.508 114.659 271.508 112.664C271.508 110.69 270.773 109.703 269.305 109.703C268.534 109.703 267.974 109.958 267.625 110.469C267.281 110.979 267.109 111.711 267.109 112.664ZM275 112.727C275 111.273 275.354 110.156 276.062 109.375C276.776 108.594 277.805 108.203 279.148 108.203C280.06 108.203 280.88 108.372 281.609 108.711L281.055 110.188C280.279 109.885 279.638 109.734 279.133 109.734C277.638 109.734 276.891 110.727 276.891 112.711C276.891 113.68 277.076 114.409 277.445 114.898C277.82 115.383 278.367 115.625 279.086 115.625C279.904 115.625 280.677 115.422 281.406 115.016V116.617C281.078 116.81 280.727 116.948 280.352 117.031C279.982 117.115 279.531 117.156 279 117.156C277.693 117.156 276.698 116.776 276.016 116.016C275.339 115.25 275 114.154 275 112.727ZM283.359 114.008V108.359H285.211V113.688C285.211 114.349 285.346 114.846 285.617 115.18C285.888 115.508 286.312 115.672 286.891 115.672C287.661 115.672 288.227 115.443 288.586 114.984C288.951 114.521 289.133 113.747 289.133 112.664V108.359H290.977V117H289.531L289.273 115.867H289.18C288.924 116.268 288.56 116.583 288.086 116.812C287.617 117.042 287.081 117.156 286.477 117.156C285.43 117.156 284.648 116.896 284.133 116.375C283.617 115.854 283.359 115.065 283.359 114.008ZM293.594 117V108.359H295.031L295.289 109.492H295.383C295.622 109.081 295.969 108.763 296.422 108.539C296.88 108.315 297.383 108.203 297.93 108.203C299.258 108.203 300.138 108.656 300.57 109.562H300.695C300.951 109.135 301.31 108.802 301.773 108.562C302.237 108.323 302.768 108.203 303.367 108.203C304.398 108.203 305.148 108.464 305.617 108.984C306.091 109.505 306.328 110.299 306.328 111.367V117H304.492V111.672C304.492 111.01 304.365 110.518 304.109 110.195C303.859 109.867 303.469 109.703 302.938 109.703C302.224 109.703 301.701 109.927 301.367 110.375C301.039 110.818 300.875 111.5 300.875 112.422V117H299.031V111.672C299.031 111.01 298.906 110.518 298.656 110.195C298.406 109.867 298.016 109.703 297.484 109.703C296.776 109.703 296.255 109.935 295.922 110.398C295.594 110.857 295.43 111.622 295.43 112.695V117H293.594ZM308.375 112.742C308.375 111.331 308.727 110.221 309.43 109.414C310.133 108.607 311.099 108.203 312.328 108.203C313.469 108.203 314.37 108.549 315.031 109.242C315.693 109.935 316.023 110.888 316.023 112.102V113.094H310.266C310.292 113.932 310.518 114.578 310.945 115.031C311.372 115.479 311.974 115.703 312.75 115.703C313.26 115.703 313.734 115.656 314.172 115.562C314.615 115.464 315.089 115.302 315.594 115.078V116.57C315.146 116.784 314.693 116.935 314.234 117.023C313.776 117.112 313.253 117.156 312.664 117.156C311.32 117.156 310.268 116.766 309.508 115.984C308.753 115.198 308.375 114.117 308.375 112.742ZM310.297 111.766H314.219C314.208 111.052 314.036 110.513 313.703 110.148C313.37 109.779 312.911 109.594 312.328 109.594C311.745 109.594 311.276 109.779 310.922 110.148C310.573 110.518 310.365 111.057 310.297 111.766ZM318.109 117V108.359H319.547L319.805 109.492H319.898C320.159 109.081 320.529 108.763 321.008 108.539C321.487 108.315 322.018 108.203 322.602 108.203C324.674 108.203 325.711 109.258 325.711 111.367V117H323.867V111.688C323.867 111.021 323.732 110.523 323.461 110.195C323.195 109.867 322.771 109.703 322.188 109.703C321.411 109.703 320.844 109.932 320.484 110.391C320.125 110.849 319.945 111.617 319.945 112.695V117H318.109ZM327.258 109.75V108.938L328.523 108.266L329.148 106.438H330.281V108.359H332.742V109.75H330.281V114.375C330.281 114.818 330.391 115.146 330.609 115.359C330.833 115.568 331.125 115.672 331.484 115.672C331.932 115.672 332.38 115.602 332.828 115.461V116.844C332.625 116.932 332.362 117.005 332.039 117.062C331.721 117.125 331.391 117.156 331.047 117.156C329.307 117.156 328.438 116.24 328.438 114.406V109.75H327.258Z" fill="#515152"/>
<path d="M163.778 93.9998L159.904 79.3654H134.342L130.36 93.9998H107.005L132.674 15.5933H161.034L187.026 93.9998H163.778ZM155.491 62.0604L152.101 49.2419C151.312 46.3933 150.343 42.708 149.195 38.1859C148.083 33.6638 147.347 30.4236 146.989 28.4652C146.666 30.2811 146.02 33.2721 145.051 37.4381C144.118 41.6042 142.02 49.8116 138.755 62.0604H155.491Z" fill="#535354"/>
<path d="M252.679 40.7496C252.679 49.4733 250.078 56.2208 244.876 60.9922C239.71 65.7279 232.355 68.0957 222.812 68.0957H216.839V93.9998H195.582V15.9137H222.812C232.75 15.9137 240.212 18.0679 245.199 22.3764C250.185 26.6848 252.679 32.8092 252.679 40.7496ZM216.839 50.8976H220.713C223.906 50.8976 226.436 50.0074 228.301 48.2271C230.203 46.4467 231.153 43.9898 231.153 40.8564C231.153 35.5866 228.212 32.9517 222.328 32.9517H216.839V50.8976Z" fill="#535354"/>
<path d="M332 53.301C332 66.3332 328.377 76.3744 321.13 83.4245C313.919 90.4747 303.766 93.9998 290.671 93.9998H265.217V15.9137H292.447C305.076 15.9137 314.816 19.1184 321.668 25.5276C328.556 31.9369 332 41.1947 332 53.301ZM309.937 54.0488C309.937 46.8918 308.502 41.5864 305.632 38.1325C302.797 34.6786 298.474 32.9517 292.663 32.9517H286.474V76.6948H291.21C297.667 76.6948 302.403 74.8433 305.416 71.1401C308.43 67.4014 309.937 61.7043 309.937 54.0488Z" fill="#535354"/>
<path d="M79.1991 93.5292C87.085 92.3428 94.4392 88.9545 100.356 83.7816L95.0852 78.1601C90.3046 82.3399 84.3623 85.0778 77.9903 86.0364C71.6184 86.995 65.0952 86.1324 59.2246 83.5551C53.354 80.9777 48.3925 76.7981 44.9513 71.5312C41.5101 66.2643 39.7397 60.1403 39.8581 53.9138C39.9766 47.6872 41.9787 41.6301 45.6179 36.4889C49.2571 31.3476 54.3742 27.3468 60.3389 24.9794C66.3036 22.612 72.8551 21.9814 79.1863 23.1654C85.2563 24.3005 90.8695 27.0559 95.3923 31.1118L85.5764 41.5649L69.2677 58.3701L62.2985 54.4513H50.1791L69.2677 69.1296L105.991 30.5789L101.326 26.0948C95.63 20.7797 88.4577 17.175 80.6792 15.7204C72.8438 14.2552 64.7356 15.0356 57.3538 17.9655C49.9719 20.8954 43.6389 25.8467 39.1351 32.2095C34.6313 38.5723 32.1535 46.0685 32.0069 53.7745C31.8603 61.4805 34.0514 69.0595 38.3102 75.5777C42.5689 82.096 48.7093 87.2686 55.9748 90.4584C63.2402 93.6481 71.3132 94.7156 79.1991 93.5292Z" fill="#535354"/>
</svg>
