<svg width="345" height="133" viewBox="0 0 345 133" fill="none" xmlns="http://www.w3.org/2000/svg">
<path d="M18.5078 116V104.578H24.9688V106.156H20.375V109.266H24.6797V110.828H20.375V114.414H24.9688V116H18.5078ZM27.25 116V103.844H29.0859V116H27.25ZM31.2031 111.742C31.2031 110.331 31.5547 109.221 32.2578 108.414C32.9609 107.607 33.9271 107.203 35.1562 107.203C36.2969 107.203 37.1979 107.549 37.8594 108.242C38.5208 108.935 38.8516 109.888 38.8516 111.102V112.094H33.0938C33.1198 112.932 33.3464 113.578 33.7734 114.031C34.2005 114.479 34.8021 114.703 35.5781 114.703C36.0885 114.703 36.5625 114.656 37 114.562C37.4427 114.464 37.9167 114.302 38.4219 114.078V115.57C37.974 115.784 37.5208 115.935 37.0625 116.023C36.6042 116.112 36.0807 116.156 35.4922 116.156C34.1484 116.156 33.0964 115.766 32.3359 114.984C31.5807 114.198 31.2031 113.117 31.2031 111.742ZM33.125 110.766H37.0469C37.0365 110.052 36.8646 109.513 36.5312 109.148C36.1979 108.779 35.7396 108.594 35.1562 108.594C34.5729 108.594 34.1042 108.779 33.75 109.148C33.401 109.518 33.1927 110.057 33.125 110.766ZM40.4219 111.727C40.4219 110.273 40.776 109.156 41.4844 108.375C42.1979 107.594 43.2266 107.203 44.5703 107.203C45.4818 107.203 46.3021 107.372 47.0312 107.711L46.4766 109.188C45.7005 108.885 45.0599 108.734 44.5547 108.734C43.0599 108.734 42.3125 109.727 42.3125 111.711C42.3125 112.68 42.4974 113.409 42.8672 113.898C43.2422 114.383 43.7891 114.625 44.5078 114.625C45.3255 114.625 46.099 114.422 46.8281 114.016V115.617C46.5 115.81 46.1484 115.948 45.7734 116.031C45.4036 116.115 44.9531 116.156 44.4219 116.156C43.1146 116.156 42.1198 115.776 41.4375 115.016C40.7604 114.25 40.4219 113.154 40.4219 111.727ZM47.8516 108.75V107.938L49.1172 107.266L49.7422 105.438H50.875V107.359H53.3359V108.75H50.875V113.375C50.875 113.818 50.9844 114.146 51.2031 114.359C51.4271 114.568 51.7188 114.672 52.0781 114.672C52.526 114.672 52.974 114.602 53.4219 114.461V115.844C53.2188 115.932 52.9557 116.005 52.6328 116.062C52.3151 116.125 51.9844 116.156 51.6406 116.156C49.901 116.156 49.0312 115.24 49.0312 113.406V108.75H47.8516ZM55.1562 116V107.359H56.5938L56.8359 108.883H56.9297C57.2161 108.367 57.5885 107.958 58.0469 107.656C58.5104 107.354 59.0078 107.203 59.5391 107.203C59.9089 107.203 60.2135 107.229 60.4531 107.281L60.2734 108.992C60.013 108.93 59.7422 108.898 59.4609 108.898C58.7266 108.898 58.1302 109.138 57.6719 109.617C57.2188 110.096 56.9922 110.719 56.9922 111.484V116H55.1562ZM61.5469 111.664C61.5469 110.263 61.9062 109.169 62.625 108.383C63.3438 107.596 64.3568 107.203 65.6641 107.203C66.9141 107.203 67.9036 107.607 68.6328 108.414C69.362 109.216 69.7266 110.299 69.7266 111.664C69.7266 113.076 69.3646 114.177 68.6406 114.969C67.9167 115.76 66.9089 116.156 65.6172 116.156C64.8099 116.156 64.0964 115.974 63.4766 115.609C62.8568 115.245 62.3802 114.721 62.0469 114.039C61.7135 113.357 61.5469 112.565 61.5469 111.664ZM63.4375 111.664C63.4375 113.659 64.1745 114.656 65.6484 114.656C67.1068 114.656 67.8359 113.659 67.8359 111.664C67.8359 109.69 67.1016 108.703 65.6328 108.703C64.862 108.703 64.3021 108.958 63.9531 109.469C63.6094 109.979 63.4375 110.711 63.4375 111.664ZM71.8438 116V107.359H73.2812L73.5391 108.492H73.6328C73.8932 108.081 74.263 107.763 74.7422 107.539C75.2214 107.315 75.7526 107.203 76.3359 107.203C78.4089 107.203 79.4453 108.258 79.4453 110.367V116H77.6016V110.688C77.6016 110.021 77.4661 109.523 77.1953 109.195C76.9297 108.867 76.5052 108.703 75.9219 108.703C75.1458 108.703 74.5781 108.932 74.2188 109.391C73.8594 109.849 73.6797 110.617 73.6797 111.695V116H71.8438ZM81.8906 105.07C81.8906 104.742 81.9792 104.49 82.1562 104.312C82.3385 104.135 82.5964 104.047 82.9297 104.047C83.2526 104.047 83.5026 104.135 83.6797 104.312C83.862 104.49 83.9531 104.742 83.9531 105.07C83.9531 105.383 83.862 105.63 83.6797 105.812C83.5026 105.99 83.2526 106.078 82.9297 106.078C82.5964 106.078 82.3385 105.99 82.1562 105.812C81.9792 105.63 81.8906 105.383 81.8906 105.07ZM82 116V107.359H83.8359V116H82ZM85.9531 111.727C85.9531 110.273 86.3073 109.156 87.0156 108.375C87.7292 107.594 88.7578 107.203 90.1016 107.203C91.013 107.203 91.8333 107.372 92.5625 107.711L92.0078 109.188C91.2318 108.885 90.5911 108.734 90.0859 108.734C88.5911 108.734 87.8438 109.727 87.8438 111.711C87.8438 112.68 88.0286 113.409 88.3984 113.898C88.7734 114.383 89.3203 114.625 90.0391 114.625C90.8568 114.625 91.6302 114.422 92.3594 114.016V115.617C92.0312 115.81 91.6797 115.948 91.3047 116.031C90.9349 116.115 90.4844 116.156 89.9531 116.156C88.6458 116.156 87.651 115.776 86.9688 115.016C86.2917 114.25 85.9531 113.154 85.9531 111.727ZM97.2344 116L101.508 104.531H103.539L107.812 116H105.828L104.688 112.828H100.32L99.2031 116H97.2344ZM100.867 111.219H104.195L103.125 108.109C103.047 107.901 102.938 107.573 102.797 107.125C102.661 106.677 102.568 106.349 102.516 106.141C102.375 106.781 102.169 107.482 101.898 108.242L100.867 111.219ZM108.609 111.695C108.609 110.279 108.914 109.177 109.523 108.391C110.138 107.599 110.987 107.203 112.07 107.203C113.206 107.203 114.07 107.622 114.664 108.461H114.758C114.669 107.841 114.625 107.352 114.625 106.992V103.844H116.469V116H115.031L114.711 114.867H114.625C114.036 115.727 113.174 116.156 112.039 116.156C110.961 116.156 110.12 115.766 109.516 114.984C108.911 114.203 108.609 113.107 108.609 111.695ZM110.5 111.727C110.5 112.685 110.669 113.417 111.008 113.922C111.346 114.422 111.854 114.672 112.531 114.672C113.286 114.672 113.836 114.461 114.18 114.039C114.523 113.612 114.701 112.922 114.711 111.969V111.711C114.711 110.622 114.534 109.849 114.18 109.391C113.826 108.932 113.271 108.703 112.516 108.703C111.87 108.703 111.372 108.966 111.023 109.492C110.674 110.013 110.5 110.758 110.5 111.727ZM117.781 107.359H119.719L121.477 112.383C121.779 113.227 121.961 113.909 122.023 114.43H122.086C122.133 114.055 122.315 113.372 122.633 112.383L124.391 107.359H126.344L123.047 116H121.062L117.781 107.359ZM127.047 113.523C127.047 112.633 127.378 111.961 128.039 111.508C128.701 111.055 129.708 110.807 131.062 110.766L132.555 110.719V110.258C132.555 109.706 132.424 109.294 132.164 109.023C131.909 108.747 131.51 108.609 130.969 108.609C130.526 108.609 130.102 108.674 129.695 108.805C129.289 108.935 128.898 109.089 128.523 109.266L127.93 107.953C128.398 107.708 128.911 107.523 129.469 107.398C130.026 107.268 130.552 107.203 131.047 107.203C132.146 107.203 132.974 107.443 133.531 107.922C134.094 108.401 134.375 109.154 134.375 110.18V116H133.062L132.695 114.797H132.633C132.216 115.323 131.797 115.682 131.375 115.875C130.953 116.062 130.411 116.156 129.75 116.156C128.901 116.156 128.237 115.927 127.758 115.469C127.284 115.01 127.047 114.362 127.047 113.523ZM128.953 113.539C128.953 113.924 129.068 114.224 129.297 114.438C129.526 114.646 129.87 114.75 130.328 114.75C130.995 114.75 131.529 114.565 131.93 114.195C132.336 113.82 132.539 113.297 132.539 112.625V111.875L131.43 111.922C130.565 111.953 129.935 112.099 129.539 112.359C129.148 112.615 128.953 113.008 128.953 113.539ZM136.938 116V107.359H138.375L138.633 108.492H138.727C138.987 108.081 139.357 107.763 139.836 107.539C140.315 107.315 140.846 107.203 141.43 107.203C143.503 107.203 144.539 108.258 144.539 110.367V116H142.695V110.688C142.695 110.021 142.56 109.523 142.289 109.195C142.023 108.867 141.599 108.703 141.016 108.703C140.24 108.703 139.672 108.932 139.312 109.391C138.953 109.849 138.773 110.617 138.773 111.695V116H136.938ZM146.578 111.727C146.578 110.273 146.932 109.156 147.641 108.375C148.354 107.594 149.383 107.203 150.727 107.203C151.638 107.203 152.458 107.372 153.188 107.711L152.633 109.188C151.857 108.885 151.216 108.734 150.711 108.734C149.216 108.734 148.469 109.727 148.469 111.711C148.469 112.68 148.654 113.409 149.023 113.898C149.398 114.383 149.945 114.625 150.664 114.625C151.482 114.625 152.255 114.422 152.984 114.016V115.617C152.656 115.81 152.305 115.948 151.93 116.031C151.56 116.115 151.109 116.156 150.578 116.156C149.271 116.156 148.276 115.776 147.594 115.016C146.917 114.25 146.578 113.154 146.578 111.727ZM154.5 111.742C154.5 110.331 154.852 109.221 155.555 108.414C156.258 107.607 157.224 107.203 158.453 107.203C159.594 107.203 160.495 107.549 161.156 108.242C161.818 108.935 162.148 109.888 162.148 111.102V112.094H156.391C156.417 112.932 156.643 113.578 157.07 114.031C157.497 114.479 158.099 114.703 158.875 114.703C159.385 114.703 159.859 114.656 160.297 114.562C160.74 114.464 161.214 114.302 161.719 114.078V115.57C161.271 115.784 160.818 115.935 160.359 116.023C159.901 116.112 159.378 116.156 158.789 116.156C157.445 116.156 156.393 115.766 155.633 114.984C154.878 114.198 154.5 113.117 154.5 111.742ZM156.422 110.766H160.344C160.333 110.052 160.161 109.513 159.828 109.148C159.495 108.779 159.036 108.594 158.453 108.594C157.87 108.594 157.401 108.779 157.047 109.148C156.698 109.518 156.49 110.057 156.422 110.766ZM168.586 116V104.578H171.875C173.302 104.578 174.37 104.87 175.078 105.453C175.792 106.036 176.148 106.896 176.148 108.031C176.148 109.224 175.758 110.138 174.977 110.773C174.195 111.409 173.083 111.727 171.641 111.727H170.453V116H168.586ZM170.453 110.156H171.445C172.404 110.156 173.107 109.99 173.555 109.656C174.003 109.323 174.227 108.802 174.227 108.094C174.227 107.438 174.026 106.948 173.625 106.625C173.224 106.302 172.599 106.141 171.75 106.141H170.453V110.156ZM178.234 116V103.844H180.07V116H178.234ZM182.094 113.523C182.094 112.633 182.424 111.961 183.086 111.508C183.747 111.055 184.755 110.807 186.109 110.766L187.602 110.719V110.258C187.602 109.706 187.471 109.294 187.211 109.023C186.956 108.747 186.557 108.609 186.016 108.609C185.573 108.609 185.148 108.674 184.742 108.805C184.336 108.935 183.945 109.089 183.57 109.266L182.977 107.953C183.445 107.708 183.958 107.523 184.516 107.398C185.073 107.268 185.599 107.203 186.094 107.203C187.193 107.203 188.021 107.443 188.578 107.922C189.141 108.401 189.422 109.154 189.422 110.18V116H188.109L187.742 114.797H187.68C187.263 115.323 186.844 115.682 186.422 115.875C186 116.062 185.458 116.156 184.797 116.156C183.948 116.156 183.284 115.927 182.805 115.469C182.331 115.01 182.094 114.362 182.094 113.523ZM184 113.539C184 113.924 184.115 114.224 184.344 114.438C184.573 114.646 184.917 114.75 185.375 114.75C186.042 114.75 186.576 114.565 186.977 114.195C187.383 113.82 187.586 113.297 187.586 112.625V111.875L186.477 111.922C185.612 111.953 184.982 112.099 184.586 112.359C184.195 112.615 184 113.008 184 113.539ZM191.984 116V107.359H193.422L193.68 108.492H193.773C194.034 108.081 194.404 107.763 194.883 107.539C195.362 107.315 195.893 107.203 196.477 107.203C198.549 107.203 199.586 108.258 199.586 110.367V116H197.742V110.688C197.742 110.021 197.607 109.523 197.336 109.195C197.07 108.867 196.646 108.703 196.062 108.703C195.286 108.703 194.719 108.932 194.359 109.391C194 109.849 193.82 110.617 193.82 111.695V116H191.984ZM202.141 116V107.359H203.578L203.836 108.492H203.93C204.19 108.081 204.56 107.763 205.039 107.539C205.518 107.315 206.049 107.203 206.633 107.203C208.706 107.203 209.742 108.258 209.742 110.367V116H207.898V110.688C207.898 110.021 207.763 109.523 207.492 109.195C207.227 108.867 206.802 108.703 206.219 108.703C205.443 108.703 204.875 108.932 204.516 109.391C204.156 109.849 203.977 110.617 203.977 111.695V116H202.141ZM212.188 105.07C212.188 104.742 212.276 104.49 212.453 104.312C212.635 104.135 212.893 104.047 213.227 104.047C213.549 104.047 213.799 104.135 213.977 104.312C214.159 104.49 214.25 104.742 214.25 105.07C214.25 105.383 214.159 105.63 213.977 105.812C213.799 105.99 213.549 106.078 213.227 106.078C212.893 106.078 212.635 105.99 212.453 105.812C212.276 105.63 212.188 105.383 212.188 105.07ZM212.297 116V107.359H214.133V116H212.297ZM216.766 116V107.359H218.203L218.461 108.492H218.555C218.815 108.081 219.185 107.763 219.664 107.539C220.143 107.315 220.674 107.203 221.258 107.203C223.331 107.203 224.367 108.258 224.367 110.367V116H222.523V110.688C222.523 110.021 222.388 109.523 222.117 109.195C221.852 108.867 221.427 108.703 220.844 108.703C220.068 108.703 219.5 108.932 219.141 109.391C218.781 109.849 218.602 110.617 218.602 111.695V116H216.766ZM225.789 117.438C225.789 116.906 225.956 116.458 226.289 116.094C226.628 115.734 227.099 115.484 227.703 115.344C227.458 115.24 227.255 115.073 227.094 114.844C226.938 114.609 226.859 114.365 226.859 114.109C226.859 113.786 226.951 113.513 227.133 113.289C227.315 113.065 227.586 112.844 227.945 112.625C227.497 112.432 227.133 112.12 226.852 111.688C226.576 111.25 226.438 110.74 226.438 110.156C226.438 109.219 226.732 108.492 227.32 107.977C227.914 107.461 228.758 107.203 229.852 107.203C230.096 107.203 230.352 107.221 230.617 107.258C230.888 107.289 231.091 107.323 231.227 107.359H234.219V108.367L232.742 108.641C232.878 108.823 232.99 109.047 233.078 109.312C233.167 109.578 233.211 109.859 233.211 110.156C233.211 111.047 232.904 111.747 232.289 112.258C231.674 112.768 230.828 113.023 229.75 113.023C229.474 113.023 229.224 113.003 229 112.961C228.604 113.206 228.406 113.492 228.406 113.82C228.406 114.018 228.497 114.167 228.68 114.266C228.867 114.365 229.208 114.414 229.703 114.414H231.211C232.164 114.414 232.888 114.617 233.383 115.023C233.878 115.43 234.125 116.016 234.125 116.781C234.125 117.76 233.721 118.516 232.914 119.047C232.107 119.578 230.94 119.844 229.414 119.844C228.237 119.844 227.339 119.635 226.719 119.219C226.099 118.802 225.789 118.208 225.789 117.438ZM227.43 117.344C227.43 117.74 227.607 118.044 227.961 118.258C228.32 118.471 228.823 118.578 229.469 118.578C230.469 118.578 231.214 118.435 231.703 118.148C232.193 117.862 232.438 117.482 232.438 117.008C232.438 116.633 232.302 116.365 232.031 116.203C231.766 116.047 231.268 115.969 230.539 115.969H229.148C228.622 115.969 228.203 116.091 227.891 116.336C227.583 116.586 227.43 116.922 227.43 117.344ZM228.219 110.156C228.219 110.698 228.357 111.115 228.633 111.406C228.914 111.698 229.315 111.844 229.836 111.844C230.898 111.844 231.43 111.276 231.43 110.141C231.43 109.578 231.297 109.146 231.031 108.844C230.771 108.536 230.372 108.383 229.836 108.383C229.305 108.383 228.901 108.534 228.625 108.836C228.354 109.138 228.219 109.578 228.219 110.156ZM240.18 116V104.578H243.711C245.529 104.578 246.943 105.068 247.953 106.047C248.964 107.026 249.469 108.404 249.469 110.18C249.469 112.065 248.945 113.508 247.898 114.508C246.852 115.503 245.344 116 243.375 116H240.18ZM242.047 114.43H243.375C246.125 114.43 247.5 113.034 247.5 110.242C247.5 107.508 246.221 106.141 243.664 106.141H242.047V114.43ZM251.219 111.664C251.219 110.263 251.578 109.169 252.297 108.383C253.016 107.596 254.029 107.203 255.336 107.203C256.586 107.203 257.576 107.607 258.305 108.414C259.034 109.216 259.398 110.299 259.398 111.664C259.398 113.076 259.036 114.177 258.312 114.969C257.589 115.76 256.581 116.156 255.289 116.156C254.482 116.156 253.768 115.974 253.148 115.609C252.529 115.245 252.052 114.721 251.719 114.039C251.385 113.357 251.219 112.565 251.219 111.664ZM253.109 111.664C253.109 113.659 253.846 114.656 255.32 114.656C256.779 114.656 257.508 113.659 257.508 111.664C257.508 109.69 256.773 108.703 255.305 108.703C254.534 108.703 253.974 108.958 253.625 109.469C253.281 109.979 253.109 110.711 253.109 111.664ZM261 111.727C261 110.273 261.354 109.156 262.062 108.375C262.776 107.594 263.805 107.203 265.148 107.203C266.06 107.203 266.88 107.372 267.609 107.711L267.055 109.188C266.279 108.885 265.638 108.734 265.133 108.734C263.638 108.734 262.891 109.727 262.891 111.711C262.891 112.68 263.076 113.409 263.445 113.898C263.82 114.383 264.367 114.625 265.086 114.625C265.904 114.625 266.677 114.422 267.406 114.016V115.617C267.078 115.81 266.727 115.948 266.352 116.031C265.982 116.115 265.531 116.156 265 116.156C263.693 116.156 262.698 115.776 262.016 115.016C261.339 114.25 261 113.154 261 111.727ZM269.359 113.008V107.359H271.211V112.688C271.211 113.349 271.346 113.846 271.617 114.18C271.888 114.508 272.312 114.672 272.891 114.672C273.661 114.672 274.227 114.443 274.586 113.984C274.951 113.521 275.133 112.747 275.133 111.664V107.359H276.977V116H275.531L275.273 114.867H275.18C274.924 115.268 274.56 115.583 274.086 115.812C273.617 116.042 273.081 116.156 272.477 116.156C271.43 116.156 270.648 115.896 270.133 115.375C269.617 114.854 269.359 114.065 269.359 113.008ZM279.594 116V107.359H281.031L281.289 108.492H281.383C281.622 108.081 281.969 107.763 282.422 107.539C282.88 107.315 283.383 107.203 283.93 107.203C285.258 107.203 286.138 107.656 286.57 108.562H286.695C286.951 108.135 287.31 107.802 287.773 107.562C288.237 107.323 288.768 107.203 289.367 107.203C290.398 107.203 291.148 107.464 291.617 107.984C292.091 108.505 292.328 109.299 292.328 110.367V116H290.492V110.672C290.492 110.01 290.365 109.518 290.109 109.195C289.859 108.867 289.469 108.703 288.938 108.703C288.224 108.703 287.701 108.927 287.367 109.375C287.039 109.818 286.875 110.5 286.875 111.422V116H285.031V110.672C285.031 110.01 284.906 109.518 284.656 109.195C284.406 108.867 284.016 108.703 283.484 108.703C282.776 108.703 282.255 108.935 281.922 109.398C281.594 109.857 281.43 110.622 281.43 111.695V116H279.594ZM294.375 111.742C294.375 110.331 294.727 109.221 295.43 108.414C296.133 107.607 297.099 107.203 298.328 107.203C299.469 107.203 300.37 107.549 301.031 108.242C301.693 108.935 302.023 109.888 302.023 111.102V112.094H296.266C296.292 112.932 296.518 113.578 296.945 114.031C297.372 114.479 297.974 114.703 298.75 114.703C299.26 114.703 299.734 114.656 300.172 114.562C300.615 114.464 301.089 114.302 301.594 114.078V115.57C301.146 115.784 300.693 115.935 300.234 116.023C299.776 116.112 299.253 116.156 298.664 116.156C297.32 116.156 296.268 115.766 295.508 114.984C294.753 114.198 294.375 113.117 294.375 111.742ZM296.297 110.766H300.219C300.208 110.052 300.036 109.513 299.703 109.148C299.37 108.779 298.911 108.594 298.328 108.594C297.745 108.594 297.276 108.779 296.922 109.148C296.573 109.518 296.365 110.057 296.297 110.766ZM304.109 116V107.359H305.547L305.805 108.492H305.898C306.159 108.081 306.529 107.763 307.008 107.539C307.487 107.315 308.018 107.203 308.602 107.203C310.674 107.203 311.711 108.258 311.711 110.367V116H309.867V110.688C309.867 110.021 309.732 109.523 309.461 109.195C309.195 108.867 308.771 108.703 308.188 108.703C307.411 108.703 306.844 108.932 306.484 109.391C306.125 109.849 305.945 110.617 305.945 111.695V116H304.109ZM313.258 108.75V107.938L314.523 107.266L315.148 105.438H316.281V107.359H318.742V108.75H316.281V113.375C316.281 113.818 316.391 114.146 316.609 114.359C316.833 114.568 317.125 114.672 317.484 114.672C317.932 114.672 318.38 114.602 318.828 114.461V115.844C318.625 115.932 318.362 116.005 318.039 116.062C317.721 116.125 317.391 116.156 317.047 116.156C315.307 116.156 314.438 115.24 314.438 113.406V108.75H313.258Z" fill="#515152"/>
<path d="M149.778 92.9998L145.904 78.3653H120.342L116.36 92.9998H93.0049L118.674 14.5933H147.034L173.026 92.9998H149.778ZM141.491 61.0604L138.101 48.2418C137.312 45.3933 136.343 41.708 135.195 37.1859C134.083 32.6638 133.347 29.4236 132.989 27.4652C132.666 29.2811 132.02 32.2721 131.051 36.4381C130.118 40.6042 128.02 48.8116 124.755 61.0604H141.491Z" fill="#354DA2"/>
<path d="M238.679 39.7496C238.679 48.4733 236.078 55.2208 230.876 59.9921C225.71 64.7279 218.355 67.0957 208.812 67.0957H202.839V92.9998H181.582V14.9137H208.812C218.75 14.9137 226.212 17.0679 231.199 21.3764C236.185 25.6848 238.679 31.8092 238.679 39.7496ZM202.839 49.8976H206.713C209.906 49.8976 212.436 49.0074 214.301 47.227C216.203 45.4467 217.153 42.9898 217.153 39.8564C217.153 34.5866 214.211 31.9517 208.328 31.9517H202.839V49.8976Z" fill="#354DA2"/>
<path d="M318 52.301C318 65.3332 314.377 75.3744 307.13 82.4245C299.919 89.4747 289.766 92.9998 276.671 92.9998H251.217V14.9137H278.447C291.075 14.9137 300.816 18.1184 307.668 24.5276C314.556 30.9369 318 40.1947 318 52.301ZM295.937 53.0488C295.937 45.8918 294.502 40.5863 291.632 37.1325C288.797 33.6786 284.474 31.9517 278.662 31.9517H272.474V75.6948H277.209C283.667 75.6948 288.403 73.8433 291.416 70.1401C294.43 66.4014 295.937 60.7043 295.937 53.0488Z" fill="#354DA2"/>
<path d="M65.199 92.5292C73.0849 91.3428 80.4391 87.9545 86.3555 82.7816L81.0851 77.1601C76.3046 81.3399 70.3623 84.0777 63.9903 85.0364C57.6184 85.995 51.0952 85.1324 45.2246 82.5551C39.354 79.9777 34.3925 75.7981 30.9513 70.5312C27.5101 65.2643 25.7397 59.1403 25.8581 52.9138C25.9766 46.6872 27.9787 40.6301 31.6179 35.4889C35.2571 30.3476 40.3742 26.3468 46.3389 23.9794C52.3035 21.612 58.8551 20.9814 65.1863 22.1653C71.2563 23.3005 76.8694 26.0559 81.3922 30.1118L71.5763 40.5649L55.2677 57.3701L48.2984 53.4513H36.1791L55.2677 68.1296L91.4737 30.0926L91.9913 29.5775L87.3258 25.0948C81.63 19.7797 74.4577 16.175 66.6792 14.7204C58.8437 13.2552 50.7356 14.0356 43.3537 16.9655C35.9719 19.8954 29.6389 24.8467 25.1351 31.2095C20.6313 37.5723 18.1535 45.0685 18.0069 52.7745C17.8603 60.4804 20.0514 68.0595 24.3102 74.5777C28.5689 81.096 34.7093 86.2686 41.9747 89.4584C49.2402 92.6481 57.3132 93.7156 65.199 92.5292Z" fill="#FDB124"/>
</svg>
