<svg width="57" height="57" viewBox="0 0 57 57" fill="none" xmlns="http://www.w3.org/2000/svg">
<path d="M45.6429 27.1429V27.6429H46.1429H50.2143C51.8814 27.6429 53.4802 28.3051 54.659 29.4839C55.8378 30.6627 56.5 32.2615 56.5 33.9286C56.5 35.5956 55.8378 37.1944 54.659 38.3732C53.4802 39.552 51.8814 40.2143 50.2143 40.2143H46.1429H45.6429V40.7143V51.5714C45.6429 52.8786 45.1236 54.1322 44.1993 55.0564C43.275 55.9807 42.0214 56.5 40.7143 56.5H30.9V52.9286C30.9 48.581 27.419 45.1 23.0714 45.1C18.7239 45.1 15.2429 48.581 15.2429 52.9286V56.5H5.42857C4.12143 56.5 2.86783 55.9807 1.94354 55.0564C1.01926 54.1322 0.5 52.8786 0.5 51.5714V41.7571H4.07143C8.419 41.7571 11.9 38.2761 11.9 33.9286C11.9 29.581 8.419 26.1 4.07143 26.1H0.5V16.2857C0.5 14.9786 1.01926 13.725 1.94354 12.8007C2.86783 11.8764 4.12143 11.3571 5.42857 11.3571H16.2857H16.7857V10.8571V6.78571C16.7857 5.11864 17.448 3.51984 18.6268 2.34104C19.8056 1.16224 21.4044 0.5 23.0714 0.5C24.7385 0.5 26.3373 1.16224 27.5161 2.34104C28.6949 3.51984 29.3571 5.11864 29.3571 6.78571V10.8571V11.3571H29.8571H40.7143C43.4255 11.3571 45.6429 13.5506 45.6429 16.2857V27.1429Z" fill="#FDD430" stroke="#212121"/>
</svg>
