<svg width="57" height="52" viewBox="0 0 57 52" fill="none" xmlns="http://www.w3.org/2000/svg">
<path d="M10.3636 20.8V52H0V20.8H10.3636ZM20.7273 52C19.353 52 18.035 51.4521 17.0632 50.477C16.0914 49.5018 15.5455 48.1791 15.5455 46.8V20.8C15.5455 19.37 16.1155 18.07 17.0741 17.134L34.1223 0L36.8686 2.756C37.5682 3.458 38.0086 4.42 38.0086 5.486L37.9309 6.318L35.4695 18.2H51.8182C54.6941 18.2 57 20.54 57 23.4V28.6C57 29.276 56.8705 29.9 56.6373 30.498L48.8127 48.828C48.0355 50.7 46.1959 52 44.0455 52H20.7273ZM20.7273 46.8H44.1232L51.8182 28.6V23.4H29.0441L31.9718 9.568L20.7273 20.878V46.8Z" fill="#112E51"/>
</svg>
