<?xml version="1.0" standalone="no"?>
<!DOCTYPE svg PUBLIC "-//W3C//DTD SVG 1.1//EN" "http://www.w3.org/Graphics/SVG/1.1/DTD/svg11.dtd">
<svg version="1.1" xmlns="http://www.w3.org/2000/svg" width="100" height="100" viewBox="0 0 64 64">
  <path d="M4.186018601860186,4.149485202905325L16.942494249424943,4.401121216532317L29.07810781078108,4.507367533397051L40.77847784778478,4.501775621983121L57.234523452345236,4.289282988253653L57.3945394539454,5.452400562351777L58.23302330233024,5.82146671567137L58.46344634463446,7.364834265916954L57.68256825682568,8.550319485670812L56.47924792479248,9.28845179231L54.50785078507851,12.319267778661839L63.16151615161516,12.045264119379105L63.88478847884789,13.845859594665619L62.72627262726273,13.577447846796822L63.28312831283129,14.746157332308876L61.75977597759776,15.976377843374195L60.063606360636065,16.33426017386593L60.46684668466847,17.59803215341485L61.35013501350135,17.955914483906575L60.05720572057206,18.6996387019597L60.294029402940296,19.801245250504557L59.00750075007501,19.35948424880383L59.30833083308331,20.662399608250283L58.83468346834684,21.640984105688602L58.16261626162616,20.489050354418353L57.36893689368937,21.383756180647673L58.60426042604261,21.959723056282805L57.63776377637764,24.01195454519631L58.65546554655466,24.47049128113884L58.47624762476248,26.148064705318824L57.4009400940094,26.237535287941753L56.91449144914492,27.68024843273654L55.87758775877588,27.445388153351345L56.51765176517652,29.514395376506656L54.44384438443844,30.772575444641642L53.406940694069405,30.319630620113045L53.68856885688569,32.46133269164949L52.35083508350835,32.561987097100285L53.65016501650165,33.39518189777635L52.1012101210121,34.166865672899135L52.741274127412744,35.18459355023499L52.23562356235624,35.87239865414879L52.312431243124315,37.46609340711977L49.969796979697975,38.23218527082863L50.161816181618164,39.21076976826696L48.97769776977698,39.84824766945535L48.74087408740874,40.79328069841007L47.58875887588759,40.36829543095114L47.96639663966397,41.47549389090993L47.37113711371137,42.22481002037699L48.49124912491249,42.74485778187278L48.062406240624064,43.740218013552905L45.8029802980298,44.377695914741295L46.55825582558256,45.41219952631896L45.86058605860586,46.441111226482676L46.98709870987099,47.5203501293718L45.07970797079708,47.5706773320972L44.9004900490049,48.415055955601126L45.93739373937394,48.62754858933059L45.80938093809381,49.55580588404351L44.71487148714871,48.78971402033466L43.94679467946795,49.51666250414598L45.10531053105311,50.55116611572363L43.914791479147915,51.00411094025223L44.41404140414041,51.94355205779302L43.7995799579958,52.776746858469075L45.32293229322932,52.87740126391988L44.10681068106811,53.570798279247605L45.01570157015702,53.97900781246473L45.02850285028503,55.27633126049725L45.70697069706971,56.50095986014864L45.770977097709775,57.78150757393936L44.25402540254026,58.307147246849084L45.342134213421346,59.140342047525145L44.73407340734074,59.9567611139594L32.64326432643264,59.939985379717605L6.227822782278228,59.481448643775074L6.394239423942395,51.01529476308009L3.853185318531853,50.361041127649905L1.8113811381138114,51.02088667449403L0.5440544054405441,49.51666250414598L1.312131213121312,33.75306422826807L1.9649964996499651,21.635392194274672L0,4.043238886040591Z" fill="#0C4D82"></path>
</svg>