<?xml version="1.0" standalone="no"?>
<!DOCTYPE svg PUBLIC "-//W3C//DTD SVG 1.1//EN" "http://www.w3.org/Graphics/SVG/1.1/DTD/svg11.dtd">
<svg version="1.1" xmlns="http://www.w3.org/2000/svg" width="100" height="100" viewBox="0 0 64 64">
  <path d="M26.584600429962602,0.012801280128030612L30.058228564098165,0.6144614461446309L31.695225730759752,1.497749774977514L29.96506612371905,2.643464346434655L28.131096940255908,6.44544454445446L26.81351385489414,8.333633363336347L25.88721301912466,8.692069206920706L24.854440822921898,10.29862986298631L25.18982560828671,11.514751475147527L26.736322118580016,12.82048204820483L25.775418090669717,17.43534353435345L27.585431218035378,19.509150915091517L28.317421821014136,21.65336533653366L29.395444345401035,22.97189718971898L31.005823671954303,24.143214321432154L31.202795688755863,25.18011801180119L32.4005984936302,26.88268826882689L32.29412713319692,28.418841884188424L32.82648393536329,29.33413341334134L32.24887680501278,30.65266526652666L32.29412713319692,33.07210721072108L32.67742403075671,36.03560356035604L34.697718094978086,37.84698469846985L35.6186953627259,39.4919491949195L35.58409217058509,41.8921892189219L40.20761099740001,47.74877487748775L41.97237379658153,48.68966896689669L42.94658674454598,48.67686768676868L43.70253340362223,47.870387038703875L44.652790295489204,54.30943094309431L44.73264381581416,56.68406840684069L44.06985959711703,55.30153015301531L44.16302203749614,52.798879887988804L42.06287445294981,53.406940694069405L42.64048158330033,55.6983698369837L43.5241938748965,56.095209520952096L39.96272686840348,57.4969496949695L39.94941794834932,58.76427642764276L42.18531651744808,57.426542654265425L43.43901678654988,58.45704570457046L44.777894143998296,57.912991299129914L44.86839480036659,56.824882488248825L45.27032418600219,63.974397439743974L32.76260111910332,63.961596159615965L21.926478411006862,63.57755775577558L18.70039618987866,8.788078807880801L18.719028677954483,5.3829382938293975L19.24606191209919,5.376537653765389L21.008162927269876,2.4322432243224483L23.206796520216983,0.8128812881288283Z" fill="#0C4D82"></path>
</svg>