<svg width="25" height="25" viewBox="0 0 25 25" fill="none" xmlns="http://www.w3.org/2000/svg">
<path d="M25 12.5C25 19.4036 19.4036 25 12.5 25C5.59644 25 0 19.4036 0 12.5C0 5.59644 5.59644 0 12.5 0C19.4036 0 25 5.59644 25 12.5Z" fill="white"/>
<path d="M14.126 21.913C16.04 21.6194 17.8251 20.7807 19.2611 19.5003L17.9818 18.1088C16.8215 19.1434 15.3792 19.8211 13.8326 20.0584C12.286 20.2956 10.7027 20.0821 9.27784 19.4442C7.85294 18.8062 6.64868 17.7717 5.81344 16.468C4.97821 15.1643 4.54849 13.6484 4.57724 12.1072C4.60599 10.566 5.09195 9.06672 5.97524 7.79413C6.85853 6.52154 8.10056 5.53123 9.54829 4.94524C10.996 4.35925 12.5862 4.20316 14.1229 4.49622C15.5962 4.77719 16.9586 5.45924 18.0564 6.46316L15.6739 9.05057L11.7155 13.2103L10.0239 12.2403H7.08232L11.7155 15.8735L20.5034 6.45841L20.629 6.33091L19.4966 5.22133C18.1141 3.90572 16.3732 3.01347 14.4853 2.65342C12.5834 2.29073 10.6154 2.4839 8.82374 3.20912C7.03204 3.93434 5.49491 5.15994 4.40175 6.73489C3.3086 8.30983 2.70718 10.1653 2.6716 12.0727C2.63602 13.9802 3.16783 15.8562 4.20152 17.4696C5.2352 19.083 6.72558 20.3634 8.48903 21.1529C10.2525 21.9425 12.212 22.2067 14.126 21.913Z" fill="#FDB124"/>
</svg>
