<?xml version="1.0" standalone="no"?>
<!DOCTYPE svg PUBLIC "-//W3C//DTD SVG 1.1//EN" "http://www.w3.org/Graphics/SVG/1.1/DTD/svg11.dtd">
<svg version="1.1" xmlns="http://www.w3.org/2000/svg" width="100" height="100" viewBox="0 0 64 64">
  <path d="M51.9827378151065,7.431143114311439L52.96262688484903,12.11641164116412L52.396327357530296,10.945094509450954L51.72185825757765,7.635963596359645ZM63.06693755206416,50.73787378737874L61.47620854274187,53.573357335733576L61.46348271066729,55.851985198519856L60.388149900365434,57.10651065106511L59.147381273094055,57.11931193119312L58.02114513449388,57.996199619962L56.57676319402924,57.74017401740174L54.648799634730636,58.30983098309831L53.92979012251698,57.2985298529853L54.24793592438142,56.13361336133613L55.762309941256234,57.484148414841485L55.60959995636129,56.30643064306431L54.40700882531365,56.01840184018402L52.38996444149301,51.51875187518752L49.37394223981795,50.12341234123413L48.45768233044832,48.86888688868887L47.90410863520417,45.31653165316531L46.6569770918955,45.04130413041304L46.05250006835303,43.22352235223522L46.37700878625478,41.930593059305934L45.957056327793694,40.970497049704974L46.91785664942435,40.41364136413642L45.16169182313256,40.432843284328435L45.49892637310887,42.07780778077808L44.716287700522315,41.94339433943395L42.92830829404407,39.408740874087414L41.91024172807781,36.18921892189219L40.904900994186136,35.46594659465947L43.56459989777298,32.1952195219522L41.39484552905739,30.24942494249425L40.71401351306746,31.043104310431048L41.827523819593054,32.188818881888196L41.38211969698281,33.27692769276928L39.66413236691474,31.945594559455948L40.47222270365047,28.201220122012202L41.452111773393,24.802480248024807L41.44574885735571,23.22792279227923L40.758553925328485,22.13341334133414L41.36939386490823,21.858185818581866L40.103173573487695,19.189118911891192L38.26429083871115,19.12511251125113L36.56539225675495,16.526452645264534L35.17191364458863,15.457545754575463L35.222816972886946,14.190219021902195L34.02022584183929,13.633363336333638L33.28849049755104,12.135613561356138L30.11975831098106,9.908190819081916L28.529029301658777,9.735373537353738L27.237357346089087,10.221822182218226L26.524710749912703,11.181918191819186L23.839560182176694,12.77567756775678L21.790701218169595,13.42214221422143L19.12463939854545,13.569356935693577L19.239171887216653,12.41084108410842L18.39926697029449,11.0923092309231L16.12770594498227,9.280928092809283L17.50209580903672,9.306530653065309L15.77138264689408,8.724072407240733L15.733205150670345,9.255325532553258L13.067143331046202,7.469546954695474L10.53470274820513,6.560656065606565L12.259052994310482,6.611861186118617L11.877278032073134,5.6069606960696134L8.587650440794656,6.215021502150222L5.660709063641658,6.1254125412541285L3.7581971684922095,6.451845184518454L5.8134190485365975,5.56215621562157L4.031802558095642,5.114111411141117L2.975558495905647,6.471047104710479L1.416644066769811,6.663066306630668L2.364718556325891,5.670967096709674L1.5693540516647502,4.621262126212628L2.072024418610591,3.648364836483651L0.18860127157300965,1.2545254525452592L0.5640133177730682,7.105427357601002e-15L14.008854904564991,0.7488748874887534L22.178839096444232,1.0049004900490104L23.228720242596935,3.8339833983398393L45.30167597595292,5.715771577157724L45.39075680047496,7.386338633863389L46.52335585511243,7.776777677767782L47.04511497017013,5.779777977797785L46.91149373338706,3.6227622762276255L47.52869658900411,3.238723872387247L49.43757140019085,4.051605160516061L51.86820532643529,4.486848684868491L51.639140349092884,7.219921992199225L50.13112924825536,7.431143114311439L49.62845888130953,11.15631563156316L50.15658091240452,11.444344434443451L50.703791691611386,13.345334533453354L49.66663637753325,15.137513751375145L49.641184713384106,17.140914091409144L50.258387569001144,18.920292029202926L50.96467124914024,17.992199219922L49.927515935062104,17.08330833083309L49.72390262186886,15.169516951695172L51.05375207366228,13.454145414541458L49.82570927846548,10.67626762676268L50.31565381333675,7.475947594759482L51.43552703589964,7.469546954695474L53.54801516027962,14.260626062606264L55.62232578843587,19.649964996499655L56.97762690437847,22.472647264726476L59.04557461649743,24.860086008600867L59.49097873910766,26.127412741274128L58.981945456124535,26.562656265626565L58.950130875938086,25.02650265026503L58.12931470712779,27.215521552155217L57.84298348544978,26.812281228122814L57.639370172256534,23.75917591759176L56.691295682700456,22.843884388438845L57.613918508107375,26.70987098709871L59.80276162493483,31.93919391939194L60.78901361071465,33.84018401840184L61.38076480218254,36.1956195619562L63.461438346376084,40.68246824682468L63.70322915579307,44.407640764076405Z" fill="#0C4D82"></path>
</svg>