<?xml version="1.0" encoding="UTF-8"?>
<svg width="33px" height="43px" viewBox="0 0 33 43" version="1.1" xmlns="http://www.w3.org/2000/svg" xmlns:xlink="http://www.w3.org/1999/xlink">
    <!-- Generator: Sketch 52.3 (67297) - http://www.bohemiancoding.com/sketch -->
    <title>icon-document</title>
    <desc>Created with Sketch.</desc>
    <g id="Dashboard---State" stroke="none" stroke-width="1" fill="none" fill-rule="evenodd">
        <g id="dashboard-layer1" transform="translate(-521.823843, -872.000000)" fill="#046B99" fill-rule="nonzero">
            <g id="Group-4-Copy-3" transform="translate(486.000000, 842.945851)">
                <path d="M55.0464154,40.6779799 L55.0464154,29.3624331 L38.4059054,29.3624331 C37.2993115,29.3624331 36.4090442,30.2527004 36.4090442,31.3592943 L36.4090442,69.9652774 C36.4090442,71.0718713 37.2993115,71.9621386 38.4059054,71.9621386 L66.3619622,71.9621386 C67.4685561,71.9621386 68.3588234,71.0718713 68.3588234,69.9652774 L68.3588234,42.6748411 L57.0432766,42.6748411 C55.9450029,42.6748411 55.0464154,41.7762535 55.0464154,40.6779799 Z M60.3713786,60.3137816 C60.3713786,60.8629185 59.9220848,61.3122122 59.372948,61.3122122 L45.3949196,61.3122122 C44.8457828,61.3122122 44.396489,60.8629185 44.396489,60.3137816 L44.396489,59.6481612 C44.396489,59.0990244 44.8457828,58.6497306 45.3949196,58.6497306 L59.372948,58.6497306 C59.9220848,58.6497306 60.3713786,59.0990244 60.3713786,59.6481612 L60.3713786,60.3137816 Z M60.3713786,54.9888185 C60.3713786,55.5379553 59.9220848,55.9872491 59.372948,55.9872491 L45.3949196,55.9872491 C44.8457828,55.9872491 44.396489,55.5379553 44.396489,54.9888185 L44.396489,54.3231981 C44.396489,53.7740612 44.8457828,53.3247675 45.3949196,53.3247675 L59.372948,53.3247675 C59.9220848,53.3247675 60.3713786,53.7740612 60.3713786,54.3231981 L60.3713786,54.9888185 Z M60.3713786,48.9982349 L60.3713786,49.6638553 C60.3713786,50.2129921 59.9220848,50.6622859 59.372948,50.6622859 L45.3949196,50.6622859 C44.8457828,50.6622859 44.396489,50.2129921 44.396489,49.6638553 L44.396489,48.9982349 C44.396489,48.449098 44.8457828,47.9998043 45.3949196,47.9998043 L59.372948,47.9998043 C59.9220848,47.9998043 60.3713786,48.449098 60.3713786,48.9982349 Z M68.3588234,39.5048239 L68.3588234,40.0123595 L57.708897,40.0123595 L57.708897,29.3624331 L58.2164325,29.3624331 C58.7489289,29.3624331 59.2564644,29.5704395 59.6308759,29.9448509 L67.7764055,38.0987008 C68.150817,38.4731123 68.3588234,38.9806479 68.3588234,39.5048239 Z" id="icon-document"></path>
            </g>
        </g>
    </g>
</svg>