<?xml version="1.0" standalone="no"?>
<!DOCTYPE svg PUBLIC "-//W3C//DTD SVG 1.1//EN" "http://www.w3.org/Graphics/SVG/1.1/DTD/svg11.dtd">
<svg version="1.1" xmlns="http://www.w3.org/2000/svg" width="100" height="100" viewBox="0 0 64 64">
  <path d="M40.90649064906491,18.444620473698034L42.03300330033003,19.22548842120778L43.383538353835384,18.84861118265273L44.49084908490849,19.925015957518593L45.239723972397236,22.03173260757092L48.17121712171217,22.58213605668369L49.72657265726572,23.907984759226277L50.9042904290429,23.10542603539682L52.690069006900686,24.165562728022895L53.93179317931793,23.943232270745817L54.923892389238915,22.831579984360417L56.191219121912184,22.552311239244084L56.421642164216415,24.011015946744926L58.41864186418641,25.412782366406514L58.770677067706764,27.58457134541799L58.290629062906284,28.89957465980072L59.673167316731664,30.76498142329622L59.43634363436343,31.003579962813085L61.06850685068506,32.79849170326951L61.21572157215721,33.763731249496836L62.662266226622656,34.97570337636091L63.97439743974397,35.078734563879564L60.799679967996795,38.00970071408106L57.76577657765776,39.576859303180484L57.76577657765776,40.35772725069023L56.55605560556055,41.10877038076036L56.472847284728466,42.02791702730829L54.853485348534846,42.41292830698323L54.33503350335033,43.58965292232778L51.019501950195014,44.42474781063681L49.66896689668967,45.3086469456652L42.46824682468247,45.17850228774691L36.27882788278828,44.81518178439168L34.48024802480248,44.915501624870366L25.18651865186519,44.34340739943788L14.523052305230527,44.199706006319765L12.70527052705271,43.654725251286926L12.762876287628767,45.55537952630196L1.2417241724172485,44.97515125974958L1.7153715371537221,43.71979758024607L2.8546854685468612,44.32985066423806L3.8723872387238787,42.448175818502776L4.186018601860192,40.27367549245133L3.5971597159716033,39.218961493905184L5.030903090309037,37.68976176336527L5.862986298629869,37.6111326992063L8.884088408840888,39.37079692814319L9.946594659465951,38.56010416319384L9.274527452745279,37.39151358896919L9.626562656265632,36.09006700978628L13.07650765076508,35.241415386277424L12.38523852385239,33.367874581662036L13.620562056205625,31.911881221201156L14.555055505550559,31.892901791921403L14.33743374337434,30.99544592169319L16.443244324432445,30.949353022013796L17.211321132113213,31.45095222440721L17.275327532753277,30.225423362343307L17.902590259025907,30.976466492413444L18.68986898689869,30.596877906818428L21.00690069006901,32.337562706475566L21.74937493749375,31.212353684890346L23.842384238423843,30.301341079462308L24.245624562456246,31.19066290857063L26.217021702170218,30.973755145373477L26.159415941594162,29.797030530028934L27.772377237723774,28.66639881436378L28.956495649564957,30.19017585082377L31.055905590559057,30.108835439624837L31.22232223222322,28.66368746732382L32.214421442144214,27.345972805901123L33.366536653665364,26.939270749906466L33.64176417641764,25.960474468479322L35.267526752675266,24.875935652493567L35.07550755075508,22.975281377478527L36.75247524752475,22.75295092020145L37.36053605360536,23.232859346275145L38.84548454845484,22.294733270447466L40.28562856285628,22.254063064848L40.42004200420042,21.118008655102923L39.65196519651965,19.377323855445784Z" fill="#0C4D82"></path>
</svg>