<?xml version="1.0" standalone="no"?>
<!DOCTYPE svg PUBLIC "-//W3C//DTD SVG 1.1//EN" "http://www.w3.org/Graphics/SVG/1.1/DTD/svg11.dtd">
<svg version="1.1" xmlns="http://www.w3.org/2000/svg" width="100" height="100" viewBox="0 0 64 64">
  <path d="M34.29462946294629,54.97419989763972L35.24192419241923,55.67587780163572L34.78747874787478,57.067730693168784L33.04010401040103,55.92894196373264ZM53.195719571957184,54.50258032282273L54.29662966296628,55.18700385213031L51.934793479347924,55.4228136395388ZM26.108210821082103,51.29326663077543L28.367636763676362,52.414800985523144L27.023502350235017,53.53058388204138L24.463246324632458,52.24225723863888ZM56.562456245624546,46.467793176245515L56.83128312831282,46.98542441689831L57.816981698169805,47.40528086765001L56.65206520652064,48.060947105810214L57.54175417541753,48.55557251354511L56.376837683768365,49.13071833649265L53.80378037803779,49.19973583524636L53.98299829982997,50.60884310146785L53.918991899189905,50.976936428154275L52.79247924792478,51.241503506710146L54.26462646264625,53.08197014014229L55.36553655365535,53.49032367443505L55.03910391039103,54.22651032780791L57.100110011001085,54.21500741134896L58.90509050905089,55.38255343193248L59.56435643564355,54.78440177606703L60.62046204620461,56.03821967009268L61.09410941094108,57.987964009884855L59.7179717971797,59.26478773682841L58.93709370937092,58.8449312860767L56.99769976997698,60.75441541826255L58.789878987898774,57.8154202630006L58.14341434143413,56.647874242417075L57.73377337733772,57.82692317945955L57.42654265426541,56.63637132595812L56.511251125112494,57.15400256661091L55.781578157815765,56.199260500517994L55.86478647864785,55.17550093567136L54.48864886488648,54.312782201250045L52.31883188318831,54.456568656986924L51.928392839283916,53.97344616571099L51.205120512051195,53.55358971495928L49.771377137713756,53.37529450984554L48.024002400240015,52.18474265634412L47.966396639663955,50.447802271042534L47.39673967396739,50.252252691240365L47.56315631563155,51.87416391195245L46.78227822782277,52.639107856472684L47.34553455345534,53.28902263640341L49.035303530353026,53.85841700112148L49.009700970097,55.3537961407851L48.63206320632062,55.71613800924205L48.856085608560846,57.412818186937315L46.90389038903889,58.77016232909352L46.417441744174404,58.028224217491186L45.52135213521351,55.641369052258874L44.606060606060595,57.01596756910351L44.292429242924285,55.12373781160608L43.72917291729172,56.09573425238743L42.35943594359435,55.6586234269473L42.47464746474647,56.659377158876026L42.1098109810981,57.107990900775114L41.75137513751374,56.93544715389085L40.880888088808874,58.252531088440726L39.29992999299929,58.20076796437545L37.96219621962195,57.82692317945955L39.59435943594359,56.75140049054764L38.09660966096609,56.45232466261491L37.750975097509745,55.37105051547353L36.611661166116605,57.458829852773114L35.702770277027696,57.148251108381444L35.63876387638763,55.45157093068618L34.73627362736273,54.89367948242706L33.8081808180818,52.943935142634885L33.29612961296129,53.30627701109184L32.09920992099209,52.39754661083471L30.383838383838377,52.88066910211065L30.33903390339033,51.28751517254595L29.43654365436543,51.36228412952913L29.327732773277322,49.734621450587575L27.53555355535553,49.74037290881705L26.537053705370532,50.30401581530565L26.91469146914691,48.52681522239773L25.250525052505246,48.590081262921956L23.400740074007395,49.774881658193905L23.439143914391433,51.5578337093313L21.147714771477144,52.748385562832716L17.192119211921188,52.09847078290199L13.134113411341131,50.332773106453025L9.49214921492149,49.23424458462321L3.315531553155315,49.763378741734954L2.0482048204820478,50.3845362305183L0.9728972897289727,48.71086188574095L1.8241824182418238,48.00918398174494L3.3347334733473337,45.685594857036854L3.891589158915891,43.90264280589946L3.763576357635763,41.901135342042004L3.078707870787078,41.15919723043967L3.891589158915891,39.566043300874966L3.4179417941794172,38.41575165497987L4.768476847684767,36.454504398728744L6.080608060806079,32.91160612937186L5.530153015301529,32.32495738996536L6.3110311031103095,31.502498863150375L5.798979897989797,30.795069500924892L6.029402940294028,29.288187444802322L5.350935093509349,29.552754523358196L5.050105010501049,28.189658922972512L4.173217321732173,27.539744143041787L4.134813481348134,25.699277509609637L2.4002400240023998,23.27791359500047L2.9442944294429436,21.93782382753269L1.3441344134413438,18.929811173517024L0,17.675993279491372L0.20482048204820477,3.245584581737454L22.498249824982494,3.5159031185228002L34.53145314531452,3.492897285604897L34.41624162416241,4.965270592350613L35.363536353635354,3.734458531242865L35.76677667766776,4.671946222647364L34.83228322832282,5.925764116673015L34.8066806680668,7.208339301846038L35.881988198819876,7.478657838631385L34.78747874787478,8.577186360461198L35.15871587158715,9.422650720194092L36.54765476547654,8.847504897246544L35.47874787478747,9.923027586158454L35.49794979497949,11.222857146019912L36.86128612861285,11.33788631060942L36.58605860586058,12.568698371717169L37.69976997699769,12.862022741420418L36.63086308630862,14.529945627968296L34.7106710671067,14.903790412884206L34.685068506850676,15.80676935491185L36.04840484048404,15.93330143596031L35.44674467446744,17.842785568146162L34.55065506550654,18.86654513299279L32.57285728572857,19.947819280134183L31.651165116511642,23.24915630385309L31.772777277727766,23.93357983316067L30.601460146014595,24.370690658600807L31.151915191519144,26.561996244030958L29.801380138013794,26.18240000088558L30.550255025502544,28.017115176088247L29.09730973097309,28.13789579890723L29.602960296029597,29.035123282705403L29.25732573257325,30.271686802042627L30.019001900190013,30.973364706038634L29.142114211421134,31.933858230361036L44.88768876887688,31.703799901182016L52.414841484148404,31.502498863150375L51.089908990899076,36.25895481892658L52.107610761076096,38.438757487897774L53.16371637163715,39.27847038940119L54.64226422642263,43.085935737313946L52.830883088308816,44.75385862386183L51.17951795179517,45.812126938085314L53.10611061106109,47.4800498246332L54.37343734373436,47.445541075256344L54.65506550655064,45.70860068995476L55.717571757175705,45.02992861887665Z" fill="#0C4D82"></path>
</svg>