<?xml version="1.0" standalone="no"?>
<!DOCTYPE svg PUBLIC "-//W3C//DTD SVG 1.1//EN" "http://www.w3.org/Graphics/SVG/1.1/DTD/svg11.dtd">
<svg version="1.1" xmlns="http://www.w3.org/2000/svg" width="100" height="100" viewBox="0 0 64 64">
  <path d="M62.69426942694269,48.903619489286676L63.52635263526352,51.26427368077297L61.030103010301026,51.60207111915537L59.013901390139004,50.84791869858071L59.65396539653965,50.349078295388104L61.26052605260526,50.71437087410395L62.87988798879887,49.5045846994321ZM52.043604360436035,46.649017981943686L52.56205620562056,47.418881911280316L54.74467446744674,48.34193305104617L54.48224822482248,49.1157248575733L50.01460146014601,49.312118717097945L48.85608560856085,50.30194376910219L47.73597359735973,49.20999391014513L48.99049904990498,49.28855145395499L50.18741874187418,47.13214687637432L51.94119411941194,45.93807221046445ZM55.61516151615161,42.520819054735526L54.97509750975097,42.59937659854539L54.15581558155815,44.123392948456676L50.67386738673867,44.806843579602464L51.2115211521152,43.7738118785028L51.019501950195014,41.65275819563657L51.69156915691568,41.28746561692073L51.54435443544354,39.618117810961195L51.000300030003,40.4036932490598L49.32333233323332,39.790944407342884L49.137713771377136,41.864863563923194L48.35683568356835,42.426550002163694L46.53265326532653,42.56402570383095L45.898989898989896,43.703110089073924L46.08460846084608,44.626161228839784L44.119611961196114,45.659192929939444L42.62826282628262,45.59241901770106L42.39783978397839,41.74309937101791L41.26492649264926,41.393518301064034L41.56575657565756,40.5686640910605L38.999099909990996,38.9425229341964L38.54465446544654,37.842717320858355L38.68546854685468,36.059461076374525L37.917391739173915,36.1851531464703L37.917391739173915,33.17639921855265L30.78067806780678,33.40028821841075L30.435043504350432,33.062490780028355L13.390139013901388,32.59507339435969L12.289228922892288,33.50634090255407L12.359635963596359,32.57543400840723L0.1792179217921792,32.02160332454771L0,31.1260473251153L4.659665966596659,15.445961580667202L21.928592859285928,16.290455176623198L30.77427742774277,16.663603509720033L39.440744074407434,16.938554913054546L40.29202920292029,15.842677176906996L41.41854185418541,15.960513492621786L41.33533353335333,14.687881282902048L42.28262826282628,13.94944037108936L43.46674667466746,14.306877195424228L44.062006200620054,13.038172862894982L45.83498349834983,12.413640389606591L47.27512751275127,12.9713989506566L47.889588958895885,13.89445009042246L48.68326832683268,16.71073803600595L49.41934193419341,17.68877945643871L50.92349234923492,17.048535474388345L51.86438643864386,18.31723980691759L50.75067506750675,19.61736715697078L46.641464146414634,20.725028524689808L46.52625262526252,22.57113080422152L45.64296429642964,22.66147197960286L44.84288428842884,23.78484485608386L45.19491949194919,24.723607504611692L43.88918891889188,25.729144065377902L43.869986998699865,26.46758497719059L45.45734573457345,27.673443274671946L47.13431343134313,26.966425380383203L48.76007600760075,27.79913534476772L51.14751475147514,31.44813325473573L50.44344434443444,33.40814397279174L50.718671867186714,34.5000938317488L52.97169716971697,35.309236532990354L53.12531253125312,38.20408202238371L54.21982198219821,39.2174743375309L57.368936893689366,39.81451167048584L56.96569656965696,40.442972020964724L62.27822782278227,38.46332191695625L62.719871987198715,36.04374956761255L61.4077407740774,35.0617802699893L60.921292129212915,32.72469334164596L59.897189718971894,31.950901535118835L58.98189818981898,32.881808429265675L58.18181818181817,31.954829412309326L59.16111611161116,31.47955627225967L61.08770877087708,32.11194449992905L62.77107710771077,34.401896901986476L63.71837183718371,37.516703514047435L63.95519551955195,39.41779607424605L63.4111411141114,39.07214288148266L62.8094809480948,40.25836179301155L63.679967996799675,40.470467161298174L63.4047404740474,41.68810909035101L62.68786878687868,41.29532137130171L59.231523152315226,41.87664719549468L58.3098309830983,42.36370396711581Z" fill="#0C4D82"></path>
</svg>