<?xml version="1.0" standalone="no"?>
<!DOCTYPE svg PUBLIC "-//W3C//DTD SVG 1.1//EN" "http://www.w3.org/Graphics/SVG/1.1/DTD/svg11.dtd">
<svg version="1.1" xmlns="http://www.w3.org/2000/svg" width="100" height="100" viewBox="0 0 64 64">
  <path d="M35.486850560546344,45.83498349834983L36.024905861028486,46.199819981998196L35.31450472211066,47.575957595759576L34.78065297866354,46.558255825582556ZM39.19859142246608,43.42834283428343L40.52271188849634,44.99009900990099L39.26584833502635,45.559755975597554L38.837085517454646,46.519851985198514L37.88287807050585,45.22052205220522L38.52181873982839,43.67156715671567ZM24.002732740880752,52.984498449844985L23.885033143900284,52.97809780978098L23.06533952207203,53.835783578357834L22.460027309029627,52.04360436043604L21.13590684299937,53.291729172917286L22.16157475954344,51.601960196019604L20.770197380952915,51.800380038003794L18.87018960112537,54.18141814181418L19.450280471957676,55.77517751775177L17.747839872775916,56.223222322232225L17.90757504010655,57.50975097509751L16.86509289542241,58.73227322732273L15.852035649983389,58.96269626962696L14.305126661097248,62.75187518751875L12.64051807523064,61.631763176317634L12.926359953611774,60.492449244924494L11.274362038850215,58.68106810681068L11.362636736585566,55.48714871487149L11.211308683324965,38.339833983398336L10.984316603434063,30.543854385438536L11.732549755667034,30.019001900190013L12.657332303370705,30.5054505450545L12.863306598086524,31.52315231523152L13.804903373930262,30.409440944094406L13.649371763634644,29.295729572957292L14.389197801797582,28.9052905290529L15.545175986427171,29.570957095709566L14.763314377914067,27.63156315631563L16.490976319305926,25.512951295129504L18.214434703662768,24.591259125912586L17.9201857112116,23.73357335733573L19.509130270447912,22.389438943894383L19.73612235033881,21.621362136213612L19.00049986921089,20.514051405140506L19.82439704807416,18.721872187218715L19.29054530462704,18.043404340434037L20.18169939605058,16.078407840784074L21.707590599761637,14.868686868686858L22.375956168329292,10.868286828682862L30.114704669795017,-1.4210854715202004e-14L31.867587953396978,0.48004800480046583L31.783516812696643,2.9314931493149246L33.250558217917465,4.077207720772066L36.11738411579885,3.09150915091508L36.38641176603991,2.515451545154505L38.37049068656779,2.502650265026489L38.336862230287664,1.7601760176017507L39.76186806515832,1.5297529752975194L42.481569466814115,3.7507750775077398L43.22139550497705,5.114111411141103L44.13356738157567,5.638963896389626L44.368966575536604,21.774977497749767L44.17560295192584,25.59615961596159L45.474502075746,26.25542554255425L47.98402562565096,26.946694669466943L47.24840314452304,28.258825882588255L48.00924696786106,29.67336733673367L47.416545425923715,31.24792479247924L48.971861528879884,33.44974497449745L49.45106703087178,32.57285728572857L50.72894836951686,32.96329632963295L52.065679506652174,35.888388838883884L51.12828628784345,36.95089508950895L52.280060915438014,36.854885488548845L52.662584605624545,37.9045904590459L50.947533335337724,39.99119911991198L49.60239508413238,40.64406440644064L49.49310260122195,39.47274727472747L48.828940589689324,39.55595559555955L48.36234575880246,41.09210921092109L46.97096838021194,40.6056605660566L46.739772743286025,42.03300330033003L45.94109690663285,41.47614761476147L45.26852778103019,42.602660266026604L44.36055946146658,41.11771177117711L43.84352194615953,41.61056105610561L43.34329865899254,44.01720172017201L42.00236396482221,42.724272427242724L41.85103591156161,44.842884288428834L41.18687390002898,43.978797879787976L41.258334369624265,42.87788778877888L40.11496685609972,42.295429542954295L37.85345317126074,43.94679467946794L37.96274565417117,42.58345834583458L36.87402438210185,43.98519851985198L36.504111363020385,45.27812781278128L36.91605995245202,46.43024302430243L34.59569646912281,44.72767276727673L33.80963130357469,45.23332333233323L34.52843955656254,42.372237223722365L33.97777358497535,42.98029802980298L32.07356224811279,43.639563956395634L32.485510837544425,45.04130413041304L31.59435674612089,46.34063406340634L30.92178762051822,48.55525552555255L31.539710504665674,48.369636963696365L29.328639504246894,50.83388338833883L28.47111386910349,49.03530353035303L27.403410382209252,50.08500850085008L26.739248370676613,51.97959795979598L25.95738676216351,50.55225522552255L25.255392737315724,51.845184518451845L25.343667435051074,49.5025502550255L23.935475828320484,51.121912191219124L24.616452067993187,52.12681268126813Z" fill="#0C4D82"></path>
</svg>