<?xml version="1.0" standalone="no"?>
<!DOCTYPE svg PUBLIC "-//W3C//DTD SVG 1.1//EN" "http://www.w3.org/Graphics/SVG/1.1/DTD/svg11.dtd">
<svg version="1.1" xmlns="http://www.w3.org/2000/svg" width="100" height="100" viewBox="0 0 64 64">
  <path d="M9.248924892489248,14.150829200216997L12.705270527052704,14.383765038722714L23.285528552855283,14.82375495590017L36.08040804080407,14.942071572284021L44.61886188618861,14.805267984590195L50.93629362936293,14.583424328870464L61.75337533753375,13.958564698593236L62.41264126412641,22.688112551164476L63.39833983398339,36.98593616230086L63.99999999999999,44.865083334613146L53.63736373637363,45.50842993620035L47.26872687268727,45.73397098618207L39.51755175517551,45.88186675666189L27.375537553755372,45.92253809354384L25.45534553455345,45.81901105420797L25.4041404140414,49.90463171371293L23.605560556055604,47.689892550777664L22.779877987798777,48.83238737773426L23.119111911191116,49.32783820884165L20.885288528852882,49.09120497607394L19.54115411541154,49.383299122771575L18.555455545554555,48.98398054247607L17.966596659665964,49.886144742402955L15.796779677967795,49.52010271046541L15.399939993999398,50.48512261284622L14.548654865486547,49.730854183399146L13.953395339533952,47.19813911393227L12.206020602060205,46.39950195334126L12.308430843084308,44.9020572772331L11.649164916491648,44.303079406789834L10.695469546954694,42.11791939795053L10.599459945994598,40.594592962008406L9.927392739273927,39.82923234977535L7.597559755975597,41.515244133245275L6.56065606560656,39.02320040066034L7.443944394439443,38.46859126136103L7.162316231623161,37.36307037702439L8.276027602760275,32.26066629547068L6.752675267526752,31.79109722419726L5.216521652165216,30.744734648052546L3.3411341134113406,27.27657883030082L1.3569356935693568,25.80871330828863L1.5105510551055104,23.723382944523202L0,21.397721953728066L0.6784678467846784,13.514877387153781Z" fill="#0C4D82"></path>
</svg>