<?xml version="1.0" standalone="no"?>
<!DOCTYPE svg PUBLIC "-//W3C//DTD SVG 1.1//EN" "http://www.w3.org/Graphics/SVG/1.1/DTD/svg11.dtd">
<svg version="1.1" xmlns="http://www.w3.org/2000/svg" width="100" height="100" viewBox="0 0 64 64">
  <path d="M6.272627262726271,8.780962011591917L7.200720072007199,9.58862228123089L9.31293129312931,9.340111429034287L9.728972897289726,8.823973505241327L10.855485548554853,9.894481791626717L12.071607160716068,10.023516272574959L12.88448844884488,9.493041184232197L14.491049104910488,10.654351512766347L15.163116311631159,12.083288912896847L15.540754075407538,15.485975966050404L18.82428242824282,16.68551873338403L21.320532053205316,15.939986176794207L22.811881188118807,15.003291426206992L25.013701370137007,14.831245451609341L26.703470347034695,15.156221181404902L27.95799579957995,16.121590261091725L31.862386238623856,14.659199477011683L33.02090209020901,15.208790784754186L35.08190819081907,14.879036000108684L36.98929892989298,13.770295274923818L39.255125512551245,13.392749941778973L40.36883688368836,12.814484304936862L43.4155415541554,12.503845739691101L44.47164716471646,11.748755073401412L60.31963196319631,11.294744862657609L61.58695869586957,13.211145857481448L62.9118911891189,13.564795916376625L63.98079807980797,15.27569755265327L62.52785278527851,18.678384605806826L62.201420142014186,20.570890326380997L61.33093309330932,21.961595287712015L61.50375037503749,22.94608058679858L60.77407740774076,24.594854510026074L59.980398039803966,25.02974850137014L58.649064906490636,27.987983453479764L58.540254025402525,28.953352533166587L59.15471547154714,30.4396385914963L60.710071007100694,30.554335907894735L61.39493949394938,31.457577274532408L60.77407740774076,32.279574708721185L61.15171517151714,33.350082995106575L60.55005500550054,34.77902039523707L60.56925692569256,36.82445587100916L61.362936293629346,55.20947987870822L47.7103710371037,55.739954967050984L31.638363836383633,55.892884722248894L24.15601560156015,55.77818740585046L16.532853285328528,55.52011844395398L6.989498949894988,55.367188688756066L2.4450445044504443,55.133015001109264L1.3377337733773373,53.928693178925705L0.8064806480648062,51.49137520545897L1.2545254525452543,48.92024369619406L1.1265126512651262,47.78282864190959L0.12801280128012799,45.73261411128757L0.9600960096009599,44.03604963956073L1.715371537153715,41.09215185200091L2.9442944294429436,38.34419531328841L3.833983398339833,34.559183872140075L4.877287728772876,26.477802120900375L4.909290929092908,24.743005210374054L5.946194619461945,20.09298484138752L6.029402940294028,17.18254043777725L6.663066306630662,17.067843121378807L6.215021502150214,15.963881451043882L6.509450945094508,14.7165481352109L6.119011901190118,11.86823144464978L6.6566656665666555,11.194384710808976Z" fill="#0C4D82"></path>
</svg>