<?xml version="1.0" standalone="no"?>
<!DOCTYPE svg PUBLIC "-//W3C//DTD SVG 1.1//EN" "http://www.w3.org/Graphics/SVG/1.1/DTD/svg11.dtd">
<svg version="1.1" xmlns="http://www.w3.org/2000/svg" width="100" height="100" viewBox="0 0 64 64">
  <path d="M57.83618361836183,41.69500036812853L56.61366136613661,42.3704840640728L56.31283128312831,43.54654942754718L52.37643764376437,46.115799913906585L51.614761476147606,45.55490720209573L49.82898289828982,45.9288356766363L50.648264826482645,47.020465578117644L48.69606960696069,48.35937076115002L48.478447844784476,48.58252162498874L46.83988398839883,48.98660562166968L47.58235823582358,49.50528060248402L46.12301230123012,51.38095407961496L46.513451345134506,51.48348285489221L45.66216621662166,54.84280802132928L45.14371437143714,55.675100432403454L45.918191819181914,58.27450644090324L45.93739373937393,58.6966837508684L45.83498349834983,58.877616883710616L47.14711471147114,60.813601405122284L46.35343534353435,62.13441327487043L44.81728172817281,61.10309441766982L41.75137513751375,60.93422349368375L38.83908390839083,59.36010523795651L37.24532453245324,59.0645811209809L36.38123812381237,56.69435708074792L35.45314531453145,55.70525595454383L35.049904990499044,52.58717496522971L33.16171617161716,51.29048751319385L32.87368736873687,50.25916865599324L31.011101110111007,48.56442831170452L30.467046704670462,46.83953244527543L29.270127012701263,45.03623222128138L29.06530653065306,43.93254011094389L27.113111311131107,41.887995709826896L26.108210821082103,41.44169398214944L25.154515451545148,40.024384441552115L22.082208220822075,40.012322232695965L20.949294929492943,39.48761614745355L19.08670867086708,40.229441992106615L17.89618961896189,42.98565671573631L16.820882088208815,44.52961944932319L15.252725272527247,44.137597661498404L13.511751175117505,42.85900352274677L12.289228922892283,42.53935498805886L9.959395939593952,40.645588197643704L9.152915291529146,39.00512779320765L9.082508250825075,37.219920882497824L8.314431443144308,35.61564710463021L6.688668866886681,33.87868902934497L5.811781178117805,33.595227121225506L3.2131213121312063,30.555550489476342L2.003400340033996,29.9222845245286L1.216121612161209,28.3602284776575L0.0384038403840313,27.552060484295623L0.16001600160015292,26.792141326358333L8.007200720072001,27.135914278758534L17.352135213521347,27.377158455881485L17.633763376337626,15.845686789404496L17.857785778577853,1.847493411845356L26.82508250825082,1.9078044561260938L31.791979197919787,1.8535245162734313L31.958395839583954,12.854258993079924L33.4049404940494,13.86145343256824L35.68996899689969,14.048417669838528L35.81158115811581,14.74802578349508L39.70957095709571,14.959114438477663L41.712971297129705,15.839655684976428L42.1034103410341,16.62369926062601L43.04430443044304,15.785375745123766L44.458845884588456,16.702103618190968L45.35493549354935,16.255801890513517L45.489348934893485,17.18459197243687L46.64786478647864,15.912028938113309L49.35533553355335,17.226809703433382L50.296229622962294,16.388486187931136L54.32863286328632,15.857748998260647L54.59105910591059,15.357167330730526L58.68106810681068,17.449960567272115L60.3068306830683,17.29918295657027L60.97249724972497,26.06840879498948L62.303830383038296,27.654589259572873L62.131013101310124,28.2456374935241L63.99999999999999,31.3697495872663L63.091109110911084,34.24658639945747L63.43034303430343,36.918365661094136L62.5022502250225,38.3959862459722L62.98229822982298,39.16193650833756L61.84938493849384,39.30668301461134L58.43144314431443,41.27885416259144L59.51315131513151,40.024384441552115L58.43144314431443,40.368157393952316L58.54665466546654,38.86641239136195L57.311331133113306,39.572051609446575Z" fill="#0C4D82"></path>
</svg>