<?xml version="1.0" standalone="no"?>
<!DOCTYPE svg PUBLIC "-//W3C//DTD SVG 1.1//EN" "http://www.w3.org/Graphics/SVG/1.1/DTD/svg11.dtd">
<svg version="1.1" xmlns="http://www.w3.org/2000/svg" width="100" height="100" viewBox="0 0 64 64">
  <path d="M62.387038703870395,32.617388960919534L62.71347134713472,32.74502892587369L61.375737573757384,34.52366408969132L61.26692669266927,35.76954113891772L60.48604860486049,35.97764977742992L59.135513551355146,38.29181783768562L58.77067706770678,40.14537211136765L58.34183418341835,38.40558389340563L59.12911291129114,35.29505344310989L59.935593559355944,33.924311210776175L60.710071007100716,33.36103049586981L61.15171517151716,31.75165702470877L62.982298229822995,31.49082753110681ZM55.775177517751786,35.436567317298184L54.56545654565458,35.178512605543055L53.0933093309331,33.58301304361616L54.41184118411842,35.55588293671185L56.562456245624574,37.151382498638746L56.255225522552266,38.25297089183001L55.33353335333534,37.464932847330466L55.557555755575564,38.83290029781735L54.693469346934705,39.01048633601443L52.25482548254826,36.18853319778895L53.82298229822983,38.47217865772953L55.80718071807182,39.78465047127983L56.261626162616274,41.05827533897452L55.32713271327134,41.63820474496186L53.7909790979098,40.167570366142286L53.61176117611762,39.28796452069737L50.808280828082815,38.46385431218904L51.633963396339645,39.484974031822254L53.458145814581464,39.65423572447885L53.560556055605566,40.977806665416466L54.93029302930294,42.32912542482237L56.10161016101611,41.67150212712381L58.62986298629864,41.99615160320285L59.097109710971104,43.91907542305561L58.84108410841085,45.517349766829334L51.6851685168517,45.742107096422515L39.47914791479149,45.872521843223495L25.877787778777886,45.71158449610739L13.300530053005309,44.876375160211744L3.1555155515551627,44.42408571917856L7.105427357601002e-15,44.188229262198064L1.1265126512651336,43.638822456525844L4.1860186018601935,43.06444261423216L4.723672367236731,42.0294489853648L6.2086208620862156,41.7741690554565L6.330233023302338,40.94728406510134L7.46314631463147,40.35903031357351L7.514351435143522,39.632037469704215L10.394639463946403,38.363962165703185L13.377337733773384,35.9193793586465L13.140514051405148,36.49375920094018L14.15181518151816,38.325115219847575L15.495949594959503,39.188072374211515L16.34083408340835,39.171423683130534L17.889788978897897,37.975492707147076L18.90109010901091,38.98273851754614L20.994099409941,38.47217865772953L24.36083608360837,36.782336513010435L24.62326232623263,37.345617227916804L25.967396739673976,36.563128747110916L26.58185818581859,35.44211688099185L26.025002500250032,34.82334052914889L28.28442844284429,32.0097117364639L28.930893089308938,30.22275222710578L30.6910691069107,27.88361113022861L31.023902390239034,26.374129805553427L32.27842784278429,27.65885380063543L33.494549454945506,28.10281889612813L34.30103010301031,27.045627012486136L35.90119011901191,23.962844380658694L36.82288228822883,24.79250415286068L40.27282728272828,20.9605304223893L40.6888688868887,18.1274781567765L44.52925292529254,21.276855552927852L45.105310531053114,19.75072553717169L46.44944494449446,19.61476122667705L47.23672367236725,20.34175407054635L46.74387438743875,21.121467769505404L49.57295729572958,22.80853513237767L50.44984498449846,23.85185310678552L50.39863986398641,25.072757119390445L48.86888688868888,25.980110783303655L48.33123312331234,27.74487203788714L48.97129712971298,28.8270369581506L50.673867386738685,28.38862142635156L51.06430643064307,29.925850569495033L53.0933093309331,30.383689574221883L56.33203320332034,32.66178547046881Z" fill="#0C4D82"></path>
</svg>