<?xml version="1.0" standalone="no"?>
<!DOCTYPE svg PUBLIC "-//W3C//DTD SVG 1.1//EN" "http://www.w3.org/Graphics/SVG/1.1/DTD/svg11.dtd">
<svg version="1.1" xmlns="http://www.w3.org/2000/svg" width="100" height="100" viewBox="0 0 64 64">
  <path d="M52.510851085108506,11.34829569589747L52.86288628862886,13.1004601392343L54.42464246424642,14.526445998847336L53.3109310931093,16.27024688875536L53.73337333733373,19.226763025841613L54.66146614661466,21.409650470762447L55.691969196919686,22.08291652178209L58.156215621562154,22.743637242658508L58.700270027002695,24.746708288859807L60.550055005500546,26.013786633325346L61.38213821382138,27.9917670192402L63.71837183718371,29.375935111709154L63.99999999999999,30.856284068609487L63.628762876287624,33.54516649597365L62.43824382438243,34.40243072242724L62.19501950195019,36.464046642630244L61.049304930493044,37.358946859513495L60.1084108410841,37.379855743085535L59.13551355135513,38.24130174625353L55.31433143314331,38.93965845755962L54.64866486648664,41.33163473820083L56.37683768376837,43.18834359939786L56.22322232223222,45.55104744303822L55.039103910391034,46.843216447790205L54.75747574757475,48.917377698136434L52.453245324532446,49.81227791501969L51.98599859985998,50.44790797560966L52.4084408440844,52.54715988624234L51.262726272627255,52.84824780967969L50.75067506750675,51.815348961220984L48.65126512651265,49.80391436159087L45.079707970797074,50.02554852745448L33.059305930593055,50.426999092037626L21.14771477147714,50.50645284961137L7.7703770377037635,50.06318451788415L6.650265026502644,47.84266108253365L7.411941194119405,46.077951309053596L6.778277827782771,43.803064776415795L7.008700870087002,42.02580967279251L6.3622362236223555,41.86272038093061L6.791079107910784,40.273645229455674L6.381438143814375,38.324937280541675L4.979697969796972,37.50949082123218L4.6084608460846015,35.38096647359865L5.229322932293222,33.9507988372712L4.339633963396333,32.353360132367456L4.634063406340627,31.50864123605709L3.2131213121312063,30.24574466830596L2.5922592259225854,28.90757611969549L2.8482848284828415,27.9917670192402L2.0098009800980026,26.511418062339867L2.3938393839383867,25.139795300014132L1.484948494849478,24.55852833671146L0.960096009600953,22.287823580788068L0.11521152115210812,20.765656856743654L1.1713171317131643,19.193308812126354L1.3953395339533883,17.1066022316369L2.1378137813781306,16.207520238039244L1.8177817781778107,14.860988135999953L0.9984998499849914,14.785716155140612L1.4273427342734202,12.540102059503667L0.7552755275527482,11.093207316318598L10.151415141514144,11.390113463041544L23.509550955095502,11.61592940561956L32.13761376137613,11.653565396049231L43.799579957995796,11.536475648045815Z" fill="#0C4D82"></path>
</svg>