<?xml version="1.0" standalone="no"?>
<!DOCTYPE svg PUBLIC "-//W3C//DTD SVG 1.1//EN" "http://www.w3.org/Graphics/SVG/1.1/DTD/svg11.dtd">
<svg version="1.1" xmlns="http://www.w3.org/2000/svg" width="100" height="100" viewBox="0 0 64 64">
  <path d="M25.864057254850362,0.0640064006400678L34.89780175171703,0.40324032403241006L51.67082125961886,7.105427357601002e-15L50.44323925481817,0.33283328332834117L51.18293610386475,2.86108610861087L50.11667096507952,4.224422442244233L49.69567329035621,5.818181818181827L48.51924053575554,7.443944394439448L49.40845057769451,9.850585058505857L49.9907651184333,10.337033703370345L50.43930469711047,12.001200120012008L49.23926459626364,12.820482048204823L49.679935059525434,14.267026702670272L48.298905304124645,15.150315031503155L46.93754833726233,16.929692969296937L45.19060471504595,17.3969396939694L44.986007714245844,18.459445944594464L43.74662203632206,19.048304830483055L43.124961918506315,18.670667066706677L40.66586335119723,19.413141314131416L39.89075548278141,20.853285328532856L40.29601492667395,21.762176217621764L39.93797017527374,23.10631063106311L40.48093913893559,24.034403440344036L40.217323772520054,25.602560256025605L40.66192879348954,26.210621062106213L38.9582653060578,28.585258525852588L39.46975780805809,29.340534053405342L38.966134421473186,30.575857585758577L37.90773839810336,31.619161916191622L37.1562378759337,34.902690269026905L35.27158473394802,36.72047204720472L34.73255032799386,39.51755175517552L33.66235063150094,40.40724072407241L33.29250220697766,41.98819881988199L33.65448151608555,42.58985898589859L32.9738030326544,46.1998199819982L33.379062476546935,47.61436143614362L32.56854358876186,49.182518251825186L32.202629721946266,52.48524852485249L32.560674473346474,54.11101110111011L31.915407009284568,54.87268726872687L32.34033924171558,56.31283128312831L30.86094554362243,57.42014201420142L30.08190311749891,60.44124412441244L30.471424330560673,61.874987498749874L32.06885475988466,64L15.24468600178279,63.39193919391939L15.217144097828928,60.94689468946895L15.775851292321555,49.16971697169717L16.02372842790631,41.68096809680968L15.77191673461386,40.484048404840486L15.02828532785959,40.10641064106411L14.933855942874922,38.81988198819882L13.627582783920333,38.871087108710874L13.01772633922768,40.420042004200425L12.33311329808883,39.882388238823886L12.392131663704248,38.525452545254524L14.001365766151316,34.710671067106716L13.171174089827767,33.296129612961295L13.564629860597222,31.836783678367837L12.88001681945837,30.172617261726174L12.876082261750676,27.60596059605961L12.329178740381135,27.07470747074708L13.324621840427854,23.010301030103015L14.685978807290166,21.54455445544555L14.9495941737057,20.70607060706071L14.52466194127469,17.960196019601966L15.291900694275125,16.404840484048407L15.228947770952013,15.05430543054306L14.457774460243883,13.031703170317037L13.619713668504945,11.87318731873188L13.985627535320537,7.642364236423646L14.60335309542858,5.882188218821888L13.757423188274254,4.96049604960497L14.528596498982385,2.8098809880988185L14.512858268151605,0.1280128012801356Z" fill="#0C4D82"></path>
</svg>