<?xml version="1.0" standalone="no"?>
<!DOCTYPE svg PUBLIC "-//W3C//DTD SVG 1.1//EN" "http://www.w3.org/Graphics/SVG/1.1/DTD/svg11.dtd">
<svg version="1.1" xmlns="http://www.w3.org/2000/svg" width="100" height="100" viewBox="0 0 64 64">
  <path d="M17.371337133713364,18.828907574322244L17.953795379537947,19.75128234231496L16.910491049104905,20.20408450114774L17.672167216721665,23.382084838140816L18.08820882088208,22.434554394657393L18.99709970997099,23.189224659378702L18.96509650965096,24.715335639148464L17.14731473147314,23.18503204679692L17.03850385038503,21.621187553791092L15.899189918991892,20.845554226160857L16.801680168016794,18.74924793526833ZM13.018901890189012,15.986316243871975L14.043004300430036,16.761949571502214L13.85738573857385,17.986192445383452L13.025302530253018,17.403419296515324ZM15.022302230223016,14.959126161334638L16.244824482448237,15.634136787002035L14.599859985998593,16.351073538487277L14.119811981198113,15.655099849910961ZM16.897689768976893,18.640240008141916L16.52005200520051,17.667553889167785L17.230523052305223,17.315374432297837L18.248224822482243,18.13712649832771L18.261026102610256,14.71176201900932L17.04490449044904,14.179300221122617L15.918391839183911,12.841856807533183L16.22562256225622,11.554724744925174L24.079207920792072,11.755970148850857L37.63576357635763,11.743392311105502L51.4035403540354,11.43733159263519L61.26052605260526,11.039033397365614L61.830183018301824,24.245763029988538L62.71347134713471,41.640912631814736L62.598259825982595,42.71422145275171L63.83998399839984,44.78956468073531L63.436743674367435,45.888029177163L63.987198719871984,46.86071529613713L46.75667566756675,47.456066282750605L45.61736173617361,48.28620357394405L42.6026602660266,48.663538706304706L41.89858985898589,48.44552285205188L41.09210921092109,49.27985275582711L38.62146214621462,49.699114014005616L36.554055405540545,50.914971662723275L34.31383138313831,51.27972895733858L33.05290529052905,50.69276319588867L31.209520952095204,51.564826612899964L28.322832283228315,52.22306678824022L28.188418841884182,51.61933057646317L25.59615961596159,50.90658643755971L23.202320232023197,51.1036392289036L21.582958295829577,52.12663669885916L18.92669266926692,52.960966602634386L15.284728472847279,51.65706408969923L14.862286228622855,47.95498717998303L14.139013901390133,46.40791313730434L12.385238523852378,45.13755152502347L11.04750475047504,45.51069404480234L9.498549854985491,44.00554612794151L7.853585358535847,44.01812396568686L7.571957195719565,43.47727694263659L6.125412541254119,44.26968072059397L4.96689668966896,43.317957664528755L4.448444844484442,43.85880468757903L4.717271727172711,39.41463535088687L5.075707570757069,40.12737948979033L5.0885088508850815,42.62617658853422L5.94619461946194,41.87989154897648L6.119011901190112,40.596952098950254L5.626162616261619,39.80874093357467L6.65666566656665,38.56772760936629L4.595659565956589,38.25328166573241L4.3076307630763,36.232442401312014L5.0117011701170044,36.44626564298305L6.899889988998893,35.712558441170664L4.250025002500243,34.869843312231865L3.712371237123705,31.69603558782058L3.0467046704670397,30.79043127015501L2.381038103810374,26.052779052737897L0.8256825682568186,24.249955642570324L0.45444544454444735,20.707198010961953L1.0817081708170746,18.342564514835182L5.664566456645658,21.067762692995466L8.391239123912385,21.289971159830074L10.625062506250618,21.964981785497468L13.134113411341128,21.667306292190727L15.323132313231316,23.398855288467956L15.598359835983592,22.463902682729888L16.92329232923292,24.908195817910578L15.239923992399234,27.201554900147002L15.45754575457545,25.41550194030657L14.76627662766276,27.19316967498343L13.524552455245518,28.845059032206745L12.48764876487648,31.192922078006376L14.529452945294523,28.027499578758658L15.854385438543847,27.51600084378088L16.47524752475247,25.93119328786613L17.768176817681763,24.623098162349194L18.14581458145814,26.606203913533523L17.441744174417437,26.539122112224963L17.012901290129005,28.970837409660295L17.441744174417437,28.471916512427875L17.422542254225416,32.08175594534481L16.001600160015997,31.44447883291348L15.553555355535547,33.423391971516025L15.24632463246324,30.62272676688361L14.33743374337433,32.090141170508375L14.094209420942088,34.27029971303661L15.214321432143208,33.352117557625675L16.321632163216314,34.27868493820017L17.102510251025095,33.31019143180783L17.550555055505544,31.742154326220216L19.253125312531246,31.394167481932058L18.41464146414641,27.63339399607086L19.541154115411533,24.216414741916044L20.347634763476343,23.26888429843262L19.08670867086708,21.990137460988176L18.920292029202916,20.845554226160857L18.209820982098204,21.48702395117397L19.14431443144314,22.933475291889817L17.93459345934593,21.981752235824608L17.832183218321827,20.577227020926614L18.907490749074903,20.669464497725883L18.811481148114805,19.69258576616997Z" fill="#0C4D82"></path>
</svg>