<svg width="344" height="130" viewBox="0 0 344 130" fill="none" xmlns="http://www.w3.org/2000/svg">
<path d="M19.5078 117V105.578H25.9688V107.156H21.375V110.266H25.6797V111.828H21.375V115.414H25.9688V117H19.5078ZM28.25 117V104.844H30.0859V117H28.25ZM32.2031 112.742C32.2031 111.331 32.5547 110.221 33.2578 109.414C33.9609 108.607 34.9271 108.203 36.1562 108.203C37.2969 108.203 38.1979 108.549 38.8594 109.242C39.5208 109.935 39.8516 110.888 39.8516 112.102V113.094H34.0938C34.1198 113.932 34.3464 114.578 34.7734 115.031C35.2005 115.479 35.8021 115.703 36.5781 115.703C37.0885 115.703 37.5625 115.656 38 115.562C38.4427 115.464 38.9167 115.302 39.4219 115.078V116.57C38.974 116.784 38.5208 116.935 38.0625 117.023C37.6042 117.112 37.0807 117.156 36.4922 117.156C35.1484 117.156 34.0964 116.766 33.3359 115.984C32.5807 115.198 32.2031 114.117 32.2031 112.742ZM34.125 111.766H38.0469C38.0365 111.052 37.8646 110.513 37.5312 110.148C37.1979 109.779 36.7396 109.594 36.1562 109.594C35.5729 109.594 35.1042 109.779 34.75 110.148C34.401 110.518 34.1927 111.057 34.125 111.766ZM41.4219 112.727C41.4219 111.273 41.776 110.156 42.4844 109.375C43.1979 108.594 44.2266 108.203 45.5703 108.203C46.4818 108.203 47.3021 108.372 48.0312 108.711L47.4766 110.188C46.7005 109.885 46.0599 109.734 45.5547 109.734C44.0599 109.734 43.3125 110.727 43.3125 112.711C43.3125 113.68 43.4974 114.409 43.8672 114.898C44.2422 115.383 44.7891 115.625 45.5078 115.625C46.3255 115.625 47.099 115.422 47.8281 115.016V116.617C47.5 116.81 47.1484 116.948 46.7734 117.031C46.4036 117.115 45.9531 117.156 45.4219 117.156C44.1146 117.156 43.1198 116.776 42.4375 116.016C41.7604 115.25 41.4219 114.154 41.4219 112.727ZM48.8516 109.75V108.938L50.1172 108.266L50.7422 106.438H51.875V108.359H54.3359V109.75H51.875V114.375C51.875 114.818 51.9844 115.146 52.2031 115.359C52.4271 115.568 52.7188 115.672 53.0781 115.672C53.526 115.672 53.974 115.602 54.4219 115.461V116.844C54.2188 116.932 53.9557 117.005 53.6328 117.062C53.3151 117.125 52.9844 117.156 52.6406 117.156C50.901 117.156 50.0312 116.24 50.0312 114.406V109.75H48.8516ZM56.1562 117V108.359H57.5938L57.8359 109.883H57.9297C58.2161 109.367 58.5885 108.958 59.0469 108.656C59.5104 108.354 60.0078 108.203 60.5391 108.203C60.9089 108.203 61.2135 108.229 61.4531 108.281L61.2734 109.992C61.013 109.93 60.7422 109.898 60.4609 109.898C59.7266 109.898 59.1302 110.138 58.6719 110.617C58.2188 111.096 57.9922 111.719 57.9922 112.484V117H56.1562ZM62.5469 112.664C62.5469 111.263 62.9062 110.169 63.625 109.383C64.3438 108.596 65.3568 108.203 66.6641 108.203C67.9141 108.203 68.9036 108.607 69.6328 109.414C70.362 110.216 70.7266 111.299 70.7266 112.664C70.7266 114.076 70.3646 115.177 69.6406 115.969C68.9167 116.76 67.9089 117.156 66.6172 117.156C65.8099 117.156 65.0964 116.974 64.4766 116.609C63.8568 116.245 63.3802 115.721 63.0469 115.039C62.7135 114.357 62.5469 113.565 62.5469 112.664ZM64.4375 112.664C64.4375 114.659 65.1745 115.656 66.6484 115.656C68.1068 115.656 68.8359 114.659 68.8359 112.664C68.8359 110.69 68.1016 109.703 66.6328 109.703C65.862 109.703 65.3021 109.958 64.9531 110.469C64.6094 110.979 64.4375 111.711 64.4375 112.664ZM72.8438 117V108.359H74.2812L74.5391 109.492H74.6328C74.8932 109.081 75.263 108.763 75.7422 108.539C76.2214 108.315 76.7526 108.203 77.3359 108.203C79.4089 108.203 80.4453 109.258 80.4453 111.367V117H78.6016V111.688C78.6016 111.021 78.4661 110.523 78.1953 110.195C77.9297 109.867 77.5052 109.703 76.9219 109.703C76.1458 109.703 75.5781 109.932 75.2188 110.391C74.8594 110.849 74.6797 111.617 74.6797 112.695V117H72.8438ZM82.8906 106.07C82.8906 105.742 82.9792 105.49 83.1562 105.312C83.3385 105.135 83.5964 105.047 83.9297 105.047C84.2526 105.047 84.5026 105.135 84.6797 105.312C84.862 105.49 84.9531 105.742 84.9531 106.07C84.9531 106.383 84.862 106.63 84.6797 106.812C84.5026 106.99 84.2526 107.078 83.9297 107.078C83.5964 107.078 83.3385 106.99 83.1562 106.812C82.9792 106.63 82.8906 106.383 82.8906 106.07ZM83 117V108.359H84.8359V117H83ZM86.9531 112.727C86.9531 111.273 87.3073 110.156 88.0156 109.375C88.7292 108.594 89.7578 108.203 91.1016 108.203C92.013 108.203 92.8333 108.372 93.5625 108.711L93.0078 110.188C92.2318 109.885 91.5911 109.734 91.0859 109.734C89.5911 109.734 88.8438 110.727 88.8438 112.711C88.8438 113.68 89.0286 114.409 89.3984 114.898C89.7734 115.383 90.3203 115.625 91.0391 115.625C91.8568 115.625 92.6302 115.422 93.3594 115.016V116.617C93.0312 116.81 92.6797 116.948 92.3047 117.031C91.9349 117.115 91.4844 117.156 90.9531 117.156C89.6458 117.156 88.651 116.776 87.9688 116.016C87.2917 115.25 86.9531 114.154 86.9531 112.727ZM98.2344 117L102.508 105.531H104.539L108.812 117H106.828L105.688 113.828H101.32L100.203 117H98.2344ZM101.867 112.219H105.195L104.125 109.109C104.047 108.901 103.938 108.573 103.797 108.125C103.661 107.677 103.568 107.349 103.516 107.141C103.375 107.781 103.169 108.482 102.898 109.242L101.867 112.219ZM109.609 112.695C109.609 111.279 109.914 110.177 110.523 109.391C111.138 108.599 111.987 108.203 113.07 108.203C114.206 108.203 115.07 108.622 115.664 109.461H115.758C115.669 108.841 115.625 108.352 115.625 107.992V104.844H117.469V117H116.031L115.711 115.867H115.625C115.036 116.727 114.174 117.156 113.039 117.156C111.961 117.156 111.12 116.766 110.516 115.984C109.911 115.203 109.609 114.107 109.609 112.695ZM111.5 112.727C111.5 113.685 111.669 114.417 112.008 114.922C112.346 115.422 112.854 115.672 113.531 115.672C114.286 115.672 114.836 115.461 115.18 115.039C115.523 114.612 115.701 113.922 115.711 112.969V112.711C115.711 111.622 115.534 110.849 115.18 110.391C114.826 109.932 114.271 109.703 113.516 109.703C112.87 109.703 112.372 109.966 112.023 110.492C111.674 111.013 111.5 111.758 111.5 112.727ZM118.781 108.359H120.719L122.477 113.383C122.779 114.227 122.961 114.909 123.023 115.43H123.086C123.133 115.055 123.315 114.372 123.633 113.383L125.391 108.359H127.344L124.047 117H122.062L118.781 108.359ZM128.047 114.523C128.047 113.633 128.378 112.961 129.039 112.508C129.701 112.055 130.708 111.807 132.062 111.766L133.555 111.719V111.258C133.555 110.706 133.424 110.294 133.164 110.023C132.909 109.747 132.51 109.609 131.969 109.609C131.526 109.609 131.102 109.674 130.695 109.805C130.289 109.935 129.898 110.089 129.523 110.266L128.93 108.953C129.398 108.708 129.911 108.523 130.469 108.398C131.026 108.268 131.552 108.203 132.047 108.203C133.146 108.203 133.974 108.443 134.531 108.922C135.094 109.401 135.375 110.154 135.375 111.18V117H134.062L133.695 115.797H133.633C133.216 116.323 132.797 116.682 132.375 116.875C131.953 117.062 131.411 117.156 130.75 117.156C129.901 117.156 129.237 116.927 128.758 116.469C128.284 116.01 128.047 115.362 128.047 114.523ZM129.953 114.539C129.953 114.924 130.068 115.224 130.297 115.438C130.526 115.646 130.87 115.75 131.328 115.75C131.995 115.75 132.529 115.565 132.93 115.195C133.336 114.82 133.539 114.297 133.539 113.625V112.875L132.43 112.922C131.565 112.953 130.935 113.099 130.539 113.359C130.148 113.615 129.953 114.008 129.953 114.539ZM137.938 117V108.359H139.375L139.633 109.492H139.727C139.987 109.081 140.357 108.763 140.836 108.539C141.315 108.315 141.846 108.203 142.43 108.203C144.503 108.203 145.539 109.258 145.539 111.367V117H143.695V111.688C143.695 111.021 143.56 110.523 143.289 110.195C143.023 109.867 142.599 109.703 142.016 109.703C141.24 109.703 140.672 109.932 140.312 110.391C139.953 110.849 139.773 111.617 139.773 112.695V117H137.938ZM147.578 112.727C147.578 111.273 147.932 110.156 148.641 109.375C149.354 108.594 150.383 108.203 151.727 108.203C152.638 108.203 153.458 108.372 154.188 108.711L153.633 110.188C152.857 109.885 152.216 109.734 151.711 109.734C150.216 109.734 149.469 110.727 149.469 112.711C149.469 113.68 149.654 114.409 150.023 114.898C150.398 115.383 150.945 115.625 151.664 115.625C152.482 115.625 153.255 115.422 153.984 115.016V116.617C153.656 116.81 153.305 116.948 152.93 117.031C152.56 117.115 152.109 117.156 151.578 117.156C150.271 117.156 149.276 116.776 148.594 116.016C147.917 115.25 147.578 114.154 147.578 112.727ZM155.5 112.742C155.5 111.331 155.852 110.221 156.555 109.414C157.258 108.607 158.224 108.203 159.453 108.203C160.594 108.203 161.495 108.549 162.156 109.242C162.818 109.935 163.148 110.888 163.148 112.102V113.094H157.391C157.417 113.932 157.643 114.578 158.07 115.031C158.497 115.479 159.099 115.703 159.875 115.703C160.385 115.703 160.859 115.656 161.297 115.562C161.74 115.464 162.214 115.302 162.719 115.078V116.57C162.271 116.784 161.818 116.935 161.359 117.023C160.901 117.112 160.378 117.156 159.789 117.156C158.445 117.156 157.393 116.766 156.633 115.984C155.878 115.198 155.5 114.117 155.5 112.742ZM157.422 111.766H161.344C161.333 111.052 161.161 110.513 160.828 110.148C160.495 109.779 160.036 109.594 159.453 109.594C158.87 109.594 158.401 109.779 158.047 110.148C157.698 110.518 157.49 111.057 157.422 111.766ZM169.586 117V105.578H172.875C174.302 105.578 175.37 105.87 176.078 106.453C176.792 107.036 177.148 107.896 177.148 109.031C177.148 110.224 176.758 111.138 175.977 111.773C175.195 112.409 174.083 112.727 172.641 112.727H171.453V117H169.586ZM171.453 111.156H172.445C173.404 111.156 174.107 110.99 174.555 110.656C175.003 110.323 175.227 109.802 175.227 109.094C175.227 108.438 175.026 107.948 174.625 107.625C174.224 107.302 173.599 107.141 172.75 107.141H171.453V111.156ZM179.234 117V104.844H181.07V117H179.234ZM183.094 114.523C183.094 113.633 183.424 112.961 184.086 112.508C184.747 112.055 185.755 111.807 187.109 111.766L188.602 111.719V111.258C188.602 110.706 188.471 110.294 188.211 110.023C187.956 109.747 187.557 109.609 187.016 109.609C186.573 109.609 186.148 109.674 185.742 109.805C185.336 109.935 184.945 110.089 184.57 110.266L183.977 108.953C184.445 108.708 184.958 108.523 185.516 108.398C186.073 108.268 186.599 108.203 187.094 108.203C188.193 108.203 189.021 108.443 189.578 108.922C190.141 109.401 190.422 110.154 190.422 111.18V117H189.109L188.742 115.797H188.68C188.263 116.323 187.844 116.682 187.422 116.875C187 117.062 186.458 117.156 185.797 117.156C184.948 117.156 184.284 116.927 183.805 116.469C183.331 116.01 183.094 115.362 183.094 114.523ZM185 114.539C185 114.924 185.115 115.224 185.344 115.438C185.573 115.646 185.917 115.75 186.375 115.75C187.042 115.75 187.576 115.565 187.977 115.195C188.383 114.82 188.586 114.297 188.586 113.625V112.875L187.477 112.922C186.612 112.953 185.982 113.099 185.586 113.359C185.195 113.615 185 114.008 185 114.539ZM192.984 117V108.359H194.422L194.68 109.492H194.773C195.034 109.081 195.404 108.763 195.883 108.539C196.362 108.315 196.893 108.203 197.477 108.203C199.549 108.203 200.586 109.258 200.586 111.367V117H198.742V111.688C198.742 111.021 198.607 110.523 198.336 110.195C198.07 109.867 197.646 109.703 197.062 109.703C196.286 109.703 195.719 109.932 195.359 110.391C195 110.849 194.82 111.617 194.82 112.695V117H192.984ZM203.141 117V108.359H204.578L204.836 109.492H204.93C205.19 109.081 205.56 108.763 206.039 108.539C206.518 108.315 207.049 108.203 207.633 108.203C209.706 108.203 210.742 109.258 210.742 111.367V117H208.898V111.688C208.898 111.021 208.763 110.523 208.492 110.195C208.227 109.867 207.802 109.703 207.219 109.703C206.443 109.703 205.875 109.932 205.516 110.391C205.156 110.849 204.977 111.617 204.977 112.695V117H203.141ZM213.188 106.07C213.188 105.742 213.276 105.49 213.453 105.312C213.635 105.135 213.893 105.047 214.227 105.047C214.549 105.047 214.799 105.135 214.977 105.312C215.159 105.49 215.25 105.742 215.25 106.07C215.25 106.383 215.159 106.63 214.977 106.812C214.799 106.99 214.549 107.078 214.227 107.078C213.893 107.078 213.635 106.99 213.453 106.812C213.276 106.63 213.188 106.383 213.188 106.07ZM213.297 117V108.359H215.133V117H213.297ZM217.766 117V108.359H219.203L219.461 109.492H219.555C219.815 109.081 220.185 108.763 220.664 108.539C221.143 108.315 221.674 108.203 222.258 108.203C224.331 108.203 225.367 109.258 225.367 111.367V117H223.523V111.688C223.523 111.021 223.388 110.523 223.117 110.195C222.852 109.867 222.427 109.703 221.844 109.703C221.068 109.703 220.5 109.932 220.141 110.391C219.781 110.849 219.602 111.617 219.602 112.695V117H217.766ZM226.789 118.438C226.789 117.906 226.956 117.458 227.289 117.094C227.628 116.734 228.099 116.484 228.703 116.344C228.458 116.24 228.255 116.073 228.094 115.844C227.938 115.609 227.859 115.365 227.859 115.109C227.859 114.786 227.951 114.513 228.133 114.289C228.315 114.065 228.586 113.844 228.945 113.625C228.497 113.432 228.133 113.12 227.852 112.688C227.576 112.25 227.438 111.74 227.438 111.156C227.438 110.219 227.732 109.492 228.32 108.977C228.914 108.461 229.758 108.203 230.852 108.203C231.096 108.203 231.352 108.221 231.617 108.258C231.888 108.289 232.091 108.323 232.227 108.359H235.219V109.367L233.742 109.641C233.878 109.823 233.99 110.047 234.078 110.312C234.167 110.578 234.211 110.859 234.211 111.156C234.211 112.047 233.904 112.747 233.289 113.258C232.674 113.768 231.828 114.023 230.75 114.023C230.474 114.023 230.224 114.003 230 113.961C229.604 114.206 229.406 114.492 229.406 114.82C229.406 115.018 229.497 115.167 229.68 115.266C229.867 115.365 230.208 115.414 230.703 115.414H232.211C233.164 115.414 233.888 115.617 234.383 116.023C234.878 116.43 235.125 117.016 235.125 117.781C235.125 118.76 234.721 119.516 233.914 120.047C233.107 120.578 231.94 120.844 230.414 120.844C229.237 120.844 228.339 120.635 227.719 120.219C227.099 119.802 226.789 119.208 226.789 118.438ZM228.43 118.344C228.43 118.74 228.607 119.044 228.961 119.258C229.32 119.471 229.823 119.578 230.469 119.578C231.469 119.578 232.214 119.435 232.703 119.148C233.193 118.862 233.438 118.482 233.438 118.008C233.438 117.633 233.302 117.365 233.031 117.203C232.766 117.047 232.268 116.969 231.539 116.969H230.148C229.622 116.969 229.203 117.091 228.891 117.336C228.583 117.586 228.43 117.922 228.43 118.344ZM229.219 111.156C229.219 111.698 229.357 112.115 229.633 112.406C229.914 112.698 230.315 112.844 230.836 112.844C231.898 112.844 232.43 112.276 232.43 111.141C232.43 110.578 232.297 110.146 232.031 109.844C231.771 109.536 231.372 109.383 230.836 109.383C230.305 109.383 229.901 109.534 229.625 109.836C229.354 110.138 229.219 110.578 229.219 111.156ZM241.18 117V105.578H244.711C246.529 105.578 247.943 106.068 248.953 107.047C249.964 108.026 250.469 109.404 250.469 111.18C250.469 113.065 249.945 114.508 248.898 115.508C247.852 116.503 246.344 117 244.375 117H241.18ZM243.047 115.43H244.375C247.125 115.43 248.5 114.034 248.5 111.242C248.5 108.508 247.221 107.141 244.664 107.141H243.047V115.43ZM252.219 112.664C252.219 111.263 252.578 110.169 253.297 109.383C254.016 108.596 255.029 108.203 256.336 108.203C257.586 108.203 258.576 108.607 259.305 109.414C260.034 110.216 260.398 111.299 260.398 112.664C260.398 114.076 260.036 115.177 259.312 115.969C258.589 116.76 257.581 117.156 256.289 117.156C255.482 117.156 254.768 116.974 254.148 116.609C253.529 116.245 253.052 115.721 252.719 115.039C252.385 114.357 252.219 113.565 252.219 112.664ZM254.109 112.664C254.109 114.659 254.846 115.656 256.32 115.656C257.779 115.656 258.508 114.659 258.508 112.664C258.508 110.69 257.773 109.703 256.305 109.703C255.534 109.703 254.974 109.958 254.625 110.469C254.281 110.979 254.109 111.711 254.109 112.664ZM262 112.727C262 111.273 262.354 110.156 263.062 109.375C263.776 108.594 264.805 108.203 266.148 108.203C267.06 108.203 267.88 108.372 268.609 108.711L268.055 110.188C267.279 109.885 266.638 109.734 266.133 109.734C264.638 109.734 263.891 110.727 263.891 112.711C263.891 113.68 264.076 114.409 264.445 114.898C264.82 115.383 265.367 115.625 266.086 115.625C266.904 115.625 267.677 115.422 268.406 115.016V116.617C268.078 116.81 267.727 116.948 267.352 117.031C266.982 117.115 266.531 117.156 266 117.156C264.693 117.156 263.698 116.776 263.016 116.016C262.339 115.25 262 114.154 262 112.727ZM270.359 114.008V108.359H272.211V113.688C272.211 114.349 272.346 114.846 272.617 115.18C272.888 115.508 273.312 115.672 273.891 115.672C274.661 115.672 275.227 115.443 275.586 114.984C275.951 114.521 276.133 113.747 276.133 112.664V108.359H277.977V117H276.531L276.273 115.867H276.18C275.924 116.268 275.56 116.583 275.086 116.812C274.617 117.042 274.081 117.156 273.477 117.156C272.43 117.156 271.648 116.896 271.133 116.375C270.617 115.854 270.359 115.065 270.359 114.008ZM280.594 117V108.359H282.031L282.289 109.492H282.383C282.622 109.081 282.969 108.763 283.422 108.539C283.88 108.315 284.383 108.203 284.93 108.203C286.258 108.203 287.138 108.656 287.57 109.562H287.695C287.951 109.135 288.31 108.802 288.773 108.562C289.237 108.323 289.768 108.203 290.367 108.203C291.398 108.203 292.148 108.464 292.617 108.984C293.091 109.505 293.328 110.299 293.328 111.367V117H291.492V111.672C291.492 111.01 291.365 110.518 291.109 110.195C290.859 109.867 290.469 109.703 289.938 109.703C289.224 109.703 288.701 109.927 288.367 110.375C288.039 110.818 287.875 111.5 287.875 112.422V117H286.031V111.672C286.031 111.01 285.906 110.518 285.656 110.195C285.406 109.867 285.016 109.703 284.484 109.703C283.776 109.703 283.255 109.935 282.922 110.398C282.594 110.857 282.43 111.622 282.43 112.695V117H280.594ZM295.375 112.742C295.375 111.331 295.727 110.221 296.43 109.414C297.133 108.607 298.099 108.203 299.328 108.203C300.469 108.203 301.37 108.549 302.031 109.242C302.693 109.935 303.023 110.888 303.023 112.102V113.094H297.266C297.292 113.932 297.518 114.578 297.945 115.031C298.372 115.479 298.974 115.703 299.75 115.703C300.26 115.703 300.734 115.656 301.172 115.562C301.615 115.464 302.089 115.302 302.594 115.078V116.57C302.146 116.784 301.693 116.935 301.234 117.023C300.776 117.112 300.253 117.156 299.664 117.156C298.32 117.156 297.268 116.766 296.508 115.984C295.753 115.198 295.375 114.117 295.375 112.742ZM297.297 111.766H301.219C301.208 111.052 301.036 110.513 300.703 110.148C300.37 109.779 299.911 109.594 299.328 109.594C298.745 109.594 298.276 109.779 297.922 110.148C297.573 110.518 297.365 111.057 297.297 111.766ZM305.109 117V108.359H306.547L306.805 109.492H306.898C307.159 109.081 307.529 108.763 308.008 108.539C308.487 108.315 309.018 108.203 309.602 108.203C311.674 108.203 312.711 109.258 312.711 111.367V117H310.867V111.688C310.867 111.021 310.732 110.523 310.461 110.195C310.195 109.867 309.771 109.703 309.188 109.703C308.411 109.703 307.844 109.932 307.484 110.391C307.125 110.849 306.945 111.617 306.945 112.695V117H305.109ZM314.258 109.75V108.938L315.523 108.266L316.148 106.438H317.281V108.359H319.742V109.75H317.281V114.375C317.281 114.818 317.391 115.146 317.609 115.359C317.833 115.568 318.125 115.672 318.484 115.672C318.932 115.672 319.38 115.602 319.828 115.461V116.844C319.625 116.932 319.362 117.005 319.039 117.062C318.721 117.125 318.391 117.156 318.047 117.156C316.307 117.156 315.438 116.24 315.438 114.406V109.75H314.258Z" fill="white"/>
<path d="M150.778 93.9993L146.903 79.3649H121.342L117.36 93.9993H94.0044L119.674 15.5928H148.033L174.026 93.9993H150.778ZM142.491 62.0599L139.1 49.2414C138.311 46.3928 137.342 42.7075 136.194 38.1854C135.082 33.6633 134.347 30.4231 133.988 28.4647C133.665 30.2806 133.019 33.2716 132.051 37.4376C131.118 41.6037 129.019 49.8111 125.755 62.0599H142.491Z" fill="white"/>
<path d="M239.678 40.7491C239.678 49.4728 237.077 56.2203 231.875 60.9917C226.709 65.7274 219.355 68.0953 209.812 68.0953H203.838V93.9993H182.582V15.9132H209.812C219.749 15.9132 227.212 18.0675 232.198 22.3759C237.185 26.6843 239.678 32.8087 239.678 40.7491ZM203.838 50.8971H207.713C210.906 50.8971 213.435 50.0069 215.301 48.2266C217.202 46.4462 218.153 43.9893 218.153 40.8559C218.153 35.5861 215.211 32.9512 209.327 32.9512H203.838V50.8971Z" fill="white"/>
<path d="M319 53.3006C319 66.3327 315.377 76.3739 308.13 83.4241C300.919 90.4742 290.766 93.9993 277.671 93.9993H252.217V15.9132H279.447C292.075 15.9132 301.815 19.1179 308.668 25.5271C315.556 31.9364 319 41.1942 319 53.3006ZM296.936 54.0483C296.936 46.8913 295.501 41.5859 292.631 38.132C289.797 34.6781 285.474 32.9512 279.662 32.9512H273.474V76.6943H278.209C284.667 76.6943 289.402 74.8428 292.416 71.1396C295.43 67.4009 296.936 61.7038 296.936 54.0483Z" fill="white"/>
<path d="M66.1991 93.5292C74.085 92.3428 81.4392 88.9545 87.3556 83.7816L82.0852 78.1601C77.3047 82.3399 71.3623 85.0778 64.9904 86.0364C58.6184 86.995 52.0953 86.1324 46.2246 83.5551C40.354 80.9777 35.3925 76.7981 31.9513 71.5312C28.5101 66.2643 26.7397 60.1403 26.8581 53.9138C26.9766 47.6872 28.9787 41.6301 32.6179 36.4889C36.2571 31.3476 41.3742 27.3468 47.3389 24.9794C53.3036 22.612 59.8551 21.9814 66.1863 23.1654C72.2563 24.3005 77.8695 27.0559 82.3923 31.1118L72.5764 41.5649L56.2677 58.3701L49.2985 54.4513H37.1791L56.2677 69.1296L92.9914 30.5789L88.3258 26.0948C82.6301 20.7797 75.4577 17.175 67.6792 15.7204C59.8438 14.2552 51.7356 15.0356 44.3538 17.9655C36.9719 20.8954 30.639 25.8467 26.1351 32.2095C21.6313 38.5723 19.1535 46.0685 19.0069 53.7745C18.8603 61.4805 21.0514 69.0595 25.3102 75.5777C29.5689 82.096 35.7093 87.2686 42.9748 90.4584C50.2402 93.6481 58.3132 94.7156 66.1991 93.5292Z" fill="white"/>
</svg>
