<svg width="50" height="50" viewBox="0 0 50 50" fill="none" xmlns="http://www.w3.org/2000/svg">
<path d="M50 25C50 38.8071 38.8071 50 25 50C11.1929 50 0 38.8071 0 25C0 11.1929 11.1929 0 25 0C38.8071 0 50 11.1929 50 25Z" fill="white"/>
<path d="M28.253 43.826C32.0811 43.2387 35.6511 41.5613 38.5231 39.0005L35.9647 36.2176C33.644 38.2868 30.7594 39.6421 27.6662 40.1167C24.573 40.5913 21.4065 40.1643 18.5567 38.8883C15.7068 37.6124 13.2983 35.5433 11.6279 32.9359C9.95739 30.3286 9.09795 27.2969 9.15545 24.2144C9.21295 21.132 10.1849 18.1334 11.9514 15.5883C13.718 13.0431 16.2021 11.0625 19.0976 9.89048C21.993 8.71849 25.1734 8.40633 28.2468 8.99245C31.1934 9.55439 33.9182 10.9185 36.1138 12.9263L31.3488 18.1011L23.4319 26.4205L20.0488 24.4806H14.1656L23.4319 31.747L41.0077 12.9168L41.2589 12.6618L38.9941 10.4427C36.2292 7.81143 32.7475 6.02695 28.9715 5.30684C25.1679 4.58146 21.2319 4.9678 17.6485 6.41824C14.0651 7.86869 10.9908 10.3199 8.80448 13.4698C6.61817 16.6197 5.41533 20.3307 5.34417 24.1455C5.27301 27.9603 6.33664 31.7123 8.40401 34.9392C10.4714 38.166 13.4521 40.7267 16.979 42.3058C20.5059 43.8849 24.4249 44.4134 28.253 43.826Z" fill="#FDB124"/>
</svg>
