<svg width="24" height="29" viewBox="0 0 24 29" fill="none" xmlns="http://www.w3.org/2000/svg">
<path fill-rule="evenodd" clip-rule="evenodd" d="M14.759 9.0625H22.8527V27.6406C22.8527 28.3939 22.2159 29 21.4244 29H1.42829C0.636781 29 0 28.3939 0 27.6406V1.35938C0 0.606055 0.636781 0 1.42829 0H13.3307V7.70313C13.3307 8.45078 13.9735 9.0625 14.759 9.0625ZM22.4361 5.94727L16.6039 0.396484C16.3361 0.141602 15.9731 0 15.5922 0H15.2351V7.25H22.8527V6.90449C22.8527 6.54766 22.7039 6.20215 22.4361 5.94727ZM8.07632 16.844C8.07632 17.6673 7.83073 18.3033 7.33954 18.752C6.84836 19.2006 6.15068 19.4249 5.24649 19.4249H4.68053V21.8697H2.6665V14.5H5.24649C6.18807 14.5 6.8951 14.7033 7.36759 15.1099C7.84008 15.5166 8.07632 16.0946 8.07632 16.844ZM4.68053 17.8018H5.04764C5.35017 17.8018 5.59066 17.7177 5.76912 17.5497C5.94758 17.3817 6.0368 17.1498 6.0368 16.8541C6.0368 16.3567 5.75807 16.108 5.2006 16.108H4.68053V17.8018ZM15.5919 18.0286C15.5919 19.2586 15.2495 20.2062 14.5645 20.8716C13.8796 21.537 12.9168 21.8697 11.6761 21.8697H9.26434V14.5H11.8443C13.0408 14.5 13.9646 14.8024 14.6155 15.4074C15.2665 16.0123 15.5919 16.886 15.5919 18.0286ZM13.5014 18.0992C13.5014 17.4237 13.3663 16.923 13.0961 16.597C12.8258 16.271 12.4154 16.108 11.8647 16.108H11.2784V20.2365H11.7271C12.3389 20.2365 12.7876 20.0609 13.0731 19.7097C13.3587 19.3585 13.5014 18.8217 13.5014 18.0992ZM18.9112 21.8697H16.9278V14.5H21.3332V16.0979H18.9112V17.5043H21.1445V19.1023H18.9112V21.8697Z" fill="white"/>
</svg>
