<svg width="15" height="14" viewBox="0 0 15 14" fill="none" xmlns="http://www.w3.org/2000/svg">
<path d="M6.07188 0.285645C7.45749 0.285645 8.78636 0.786021 9.76613 1.6767C10.7459 2.56738 11.2963 3.77539 11.2963 5.035C11.2963 6.21138 10.8221 7.29277 10.0425 8.12573L10.2595 8.32302H10.8945L14.9133 11.9764L13.7076 13.0724L9.68881 9.41902V8.84179L9.4718 8.64451C8.55551 9.35326 7.36594 9.78436 6.07188 9.78436C4.68626 9.78436 3.3574 9.28398 2.37762 8.3933C1.39785 7.50262 0.847412 6.29461 0.847412 5.035C0.847412 3.77539 1.39785 2.56738 2.37762 1.6767C3.3574 0.786021 4.68626 0.285645 6.07188 0.285645ZM6.07188 1.74698C4.06247 1.74698 2.45494 3.20832 2.45494 5.035C2.45494 6.86168 4.06247 8.32302 6.07188 8.32302C8.08129 8.32302 9.68881 6.86168 9.68881 5.035C9.68881 3.20832 8.08129 1.74698 6.07188 1.74698Z" fill="#212121"/>
</svg>
