<?xml version="1.0" ?><!DOCTYPE svg  PUBLIC '-//W3C//DTD SVG 1.1//EN'  'http://www.w3.org/Graphics/SVG/1.1/DTD/svg11.dtd'><svg enable-background="new 0 0 512 512" height="512px" id="Layer_1" version="1.1" viewBox="0 0 512 512" width="512px" xml:space="preserve" xmlns="http://www.w3.org/2000/svg" xmlns:xlink="http://www.w3.org/1999/xlink"><g><path clip-rule="evenodd" d="M287.951,143.832c44.903,0,82.541,40.826,92.979,96.162H194.987   C205.409,184.658,243.063,143.832,287.951,143.832L287.951,143.832z M167.771,145.191C35.341,262.669-33.139,407.37,15.842,468.613   c29.029,36.739,93.885,35.38,169.615,2.719c30.389,15.877,65.309,24.488,102.494,24.488c101.588,0,187.301-67.135,214.518-159.664   H370.945c-16.326,38.1-47.621,63.963-82.994,63.963c-44.889,0-82.542-40.834-92.964-96.171h314.731   c1.375-10.438,2.281-21.314,2.281-32.2c0-33.567-7.266-65.322-20.874-94.349c24.952-55.797,28.576-104.789,4.999-134.27   C464.831,3.663,392.273,8.655,309.277,49.029c-7.266-0.906-14.062-1.367-21.326-1.367c-107.479,0-196.816,75.752-219.049,176.455   c29.029-30.387,88.885-78.019,118.82-96.163C181.379,133.4,174.567,139.292,167.771,145.191L167.771,145.191z M487.955,170.593   c-25.391-49.898-68.934-88.911-121.54-108.867c52.153-18.597,94.791-16.784,116.556,10.884   C501.109,94.84,501.563,129.767,487.955,170.593L487.955,170.593z M68.448,317.107C81.604,382.414,123.32,437.312,180.02,468.16   c-58.965,21.315-107.946,19.049-131.523-10.439C24.014,426.873,33.982,375.162,68.448,317.107L68.448,317.107z" fill="#0CA3D1" fill-rule="evenodd"/></g></svg>